<svg width="673" height="531" viewBox="0 0 673 531" fill="none" xmlns="http://www.w3.org/2000/svg">
<path d="M661.557 218.08C645.067 206.98 601.747 202.24 570.257 210.73C568.567 179.36 552.377 152.92 522.787 129.85L511.837 122.5L504.537 133.53C490.187 155.31 484.137 184.34 486.277 210.73C487.967 226.99 493.617 245.26 504.537 258.52C463.547 282.3 425.757 276.9 258.417 276.9H0.0572045C-0.692795 314.69 5.3772 387.37 51.5972 446.54C56.7072 453.08 62.2972 459.4 68.3772 465.49C105.957 503.12 162.737 530.72 247.637 530.79C377.167 530.91 488.137 460.89 555.647 291.61C577.857 291.97 636.497 295.59 665.197 240.14C665.897 239.21 672.497 225.44 672.497 225.44L661.557 218.09V218.08ZM168.667 183.53H96.0172V256.18H168.667V183.53ZM262.517 183.53H189.867V256.18H262.517V183.53ZM356.377 183.53H283.727V256.18H356.377V183.53ZM450.237 183.53H377.587V256.18H450.237V183.53ZM74.8072 183.53H2.1572V256.18H74.8072V183.53ZM168.667 91.77H96.0172V164.42H168.667V91.77ZM262.517 91.77H189.867V164.42H262.517V91.77ZM356.377 91.77H283.727V164.42H356.377V91.77ZM356.377 0H283.727V72.65H356.377V0Z" fill="#1D63ED"/>
</svg>
