<?xml version="1.0" encoding="UTF-8" standalone="no"?>
<svg
   xmlns:dc="http://purl.org/dc/elements/1.1/"
   xmlns:cc="http://creativecommons.org/ns#"
   xmlns:rdf="http://www.w3.org/1999/02/22-rdf-syntax-ns#"
   xmlns:svg="http://www.w3.org/2000/svg"
   xmlns="http://www.w3.org/2000/svg"
   xmlns:sodipodi="http://sodipodi.sourceforge.net/DTD/sodipodi-0.dtd"
   xmlns:inkscape="http://www.inkscape.org/namespaces/inkscape"
   inkscape:version="1.0beta1 (76ce730, 2019-10-19)"
   sodipodi:docname="Logo Assystem.svg"
   viewBox="0 0 400 279.59621"
   height="279.59622"
   width="400"
   xml:space="preserve"
   id="svg833"
   version="1.1"><metadata
     id="metadata839"><rdf:RDF><cc:Work
         rdf:about=""><dc:format>image/svg+xml</dc:format><dc:type
           rdf:resource="http://purl.org/dc/dcmitype/StillImage" /><dc:title></dc:title></cc:Work></rdf:RDF></metadata><defs
     id="defs837" /><sodipodi:namedview
     inkscape:current-layer="g841"
     inkscape:window-maximized="0"
     inkscape:window-y="23"
     inkscape:window-x="0"
     inkscape:cy="-29.926681"
     inkscape:cx="-99.84131"
     inkscape:zoom="0.35"
     showgrid="false"
     id="namedview835"
     inkscape:window-height="788"
     inkscape:window-width="1440"
     inkscape:pageshadow="2"
     inkscape:pageopacity="0"
     guidetolerance="10"
     gridtolerance="10"
     objecttolerance="10"
     borderopacity="1"
     inkscape:document-rotation="0"
     bordercolor="#666666"
     pagecolor="#ffffff" /><g
     transform="matrix(1.3333333,0,0,-1.3333333,-499.84131,468.34132)"
     inkscape:label="Logo Assystem"
     inkscape:groupmode="layer"
     id="g841"><g
       style="fill:#e4222b;fill-opacity:1;stroke:none"
       transform="matrix(2.7331366,0,0,2.7331366,452.6524,229.48383)"
       id="g873"><path
         inkscape:connector-curvature="0"
         id="path875"
         style="fill:#e4222b;fill-opacity:1;fill-rule:nonzero;stroke:none"
         d="M 0,0 C -8.891,0 -16.098,7.207 -16.098,16.098 -16.098,24.991 -8.891,32.2 0,32.2 8.891,32.2 16.099,24.991 16.099,16.098 16.099,7.207 8.891,0 0,0 M 81.309,-3.654 V 26.783 C 81.305,36.434 73.488,44.25 63.837,44.254 54.182,44.25 46.368,36.434 46.365,26.783 V 5.145 C 46.359,2.32 44.07,0.03 41.245,0.025 38.421,0.03 36.132,2.32 36.125,5.145 V 41.187 H 23.772 V 31.729 C 18.685,39.45 9.942,44.55 0.002,44.554 -15.717,44.549 -28.45,31.815 -28.453,16.098 -28.45,0.383 -15.717,-12.349 0.002,-12.354 c 10.245,0.004 19.218,5.418 24.227,13.539 1.797,-7.743 8.726,-13.509 17.016,-13.512 9.652,0.003 17.469,7.818 17.472,17.472 v 21.638 c 0.005,2.824 2.294,5.111 5.12,5.118 2.823,-0.007 5.112,-2.294 5.118,-5.118 V -3.654" /></g><g
       transform="matrix(2.7331366,0,0,2.7331366,-649.71999,-608.77464)"
       id="g939"><g
         id="g877"
         transform="translate(392.903,277.217)"
         style="fill:#000000;stroke:none"><path
           d="m 0,0 h 5.671 c 0.804,0 1.453,0.651 1.453,1.451 0,0.805 -0.651,1.456 -1.453,1.456 h -2.6 c -2.185,0 -3.955,1.77 -3.955,3.953 0,2.185 1.77,3.953 3.955,3.953 H 8.095 V 8.315 H 3.071 C 2.27,8.315 1.618,7.663 1.618,6.86 1.618,6.059 2.27,5.407 3.071,5.407 H 5.669 C 7.854,5.407 9.624,3.636 9.624,1.451 9.624,-0.73 7.854,-2.5 5.671,-2.5 H 0"
           style="fill:#000000;fill-opacity:1;fill-rule:nonzero;stroke:none"
           id="path879"
           inkscape:connector-curvature="0" /></g><g
         id="g881"
         transform="translate(405.755,277.217)"
         style="fill:#000000;stroke:none"><path
           d="m 0,0 h 5.67 c 0.804,0 1.455,0.651 1.455,1.451 0,0.805 -0.652,1.456 -1.455,1.456 H 3.072 c -2.184,0 -3.954,1.77 -3.954,3.953 0,2.185 1.77,3.953 3.954,3.953 H 8.094 V 8.315 H 3.072 C 2.267,8.315 1.618,7.663 1.618,6.86 1.618,6.059 2.269,5.407 3.072,5.407 H 5.67 C 7.853,5.407 9.624,3.636 9.624,1.451 9.624,-0.73 7.853,-2.5 5.67,-2.5 H 0"
           style="fill:#000000;fill-opacity:1;fill-rule:nonzero;stroke:none"
           id="path883"
           inkscape:connector-curvature="0" /></g><g
         id="g885"
         transform="translate(448.76,274.717)"
         style="fill:#000000;stroke:none"><path
           d="m 0,0 h -2.135 c -2.19,0 -3.968,1.775 -3.968,3.966 v 11.81 h 2.5 V 13.314 H -1.22 V 10.815 H -3.603 V 3.966 c 0,-0.811 0.66,-1.466 1.47,-1.466 H 0"
           style="fill:#000000;fill-opacity:1;fill-rule:nonzero;stroke:none"
           id="path887"
           inkscape:connector-curvature="0" /></g><g
         id="g889"
         transform="translate(377.51,281.39)"
         style="fill:#000000;stroke:none"><path
           d="M 0,0 C 0,-2.337 1.893,-4.229 4.231,-4.229 6.566,-4.229 8.46,-2.337 8.46,0 8.46,2.334 6.566,4.228 4.231,4.228 1.893,4.228 0,2.334 0,0 m 11.088,-2.827 c 0,-0.686 0.545,-1.255 1.204,-1.346 v -2.499 c -1.313,0.065 -2.419,0.716 -3.105,1.686 l -0.1,0.142 -0.126,-0.121 C 7.73,-6.138 6.065,-6.858 4.231,-6.858 c -3.788,0 -6.86,3.07 -6.86,6.858 0,3.788 3.072,6.857 6.86,6.857 3.787,0 6.857,-3.069 6.857,-6.857 0,-0.102 0,-2.827 0,-2.827"
           style="fill:#000000;fill-opacity:1;fill-rule:nonzero;stroke:none"
           id="path891"
           inkscape:connector-curvature="0" /></g><g
         id="g893"
         transform="translate(420.622,274.717)"
         style="fill:#000000;stroke:none"><path
           d="m 0,0 v 3.879 l -4.683,9.435 h 2.857 L 1.326,6.733 4.475,13.314 H 7.333 L 2.65,3.879 V 0"
           style="fill:#000000;fill-opacity:1;fill-rule:nonzero;stroke:none"
           id="path895"
           inkscape:connector-curvature="0" /></g><g
         id="g897"
         transform="translate(429.717,277.217)"
         style="fill:#000000;stroke:none"><path
           d="m 0,0 h 5.943 c 0.803,0 1.454,0.651 1.454,1.451 0,0.805 -0.651,1.456 -1.454,1.456 H 3.345 c -2.184,0 -3.955,1.77 -3.955,3.953 0,2.185 1.771,3.953 3.955,3.953 H 8.366 V 8.315 H 3.345 C 2.542,8.315 1.891,7.663 1.891,6.86 1.891,6.059 2.542,5.407 3.345,5.407 H 5.943 C 8.128,5.407 9.896,3.636 9.896,1.451 9.896,-0.73 8.128,-2.5 5.943,-2.5 H 0"
           style="fill:#000000;fill-opacity:1;fill-rule:nonzero;stroke:none"
           id="path899"
           inkscape:connector-curvature="0" /></g><g
         id="g901"
         transform="translate(453.105,282.412)"
         style="fill:#000000;stroke:none"><path
           d="M 0,0 C 0.274,1.975 1.878,3.335 3.765,3.34 5.651,3.335 7.269,1.957 7.582,0 Z M 3.765,5.836 C 0.119,5.827 -2.75,2.765 -2.757,-0.929 -2.75,-4.622 0.119,-7.688 3.765,-7.695 h 4.277 v 2.501 H 3.765 c -1.777,0.001 -3.279,1.241 -3.749,3.003 h 10.151 c 0.076,0.409 0.119,0.831 0.119,1.262 -0.007,3.694 -2.875,6.756 -6.521,6.765"
           style="fill:#000000;fill-opacity:1;fill-rule:nonzero;stroke:none"
           id="path903"
           inkscape:connector-curvature="0" /></g><g
         id="g905"
         transform="translate(483.059,286.963)"
         style="fill:#000000;stroke:none"><path
           d="m 0,0 c -0.95,0.811 -2.216,1.284 -3.591,1.286 -1.375,-0.002 -2.641,-0.475 -3.593,-1.288 -0.113,-0.096 -0.22,-0.196 -0.324,-0.306 -0.105,0.11 -0.215,0.21 -0.327,0.308 -0.949,0.811 -2.218,1.284 -3.593,1.286 -1.375,-0.002 -2.641,-0.475 -3.591,-1.288 -0.947,-0.803 -1.588,-1.989 -1.585,-3.317 v -8.927 h 2.517 v 8.926 c 0,1.163 1.19,2.105 2.661,2.105 1.467,0 2.656,-0.94 2.659,-2.1 v -8.931 h 2.515 v 8.926 c 0,1.163 1.193,2.105 2.663,2.105 1.469,0 2.659,-0.942 2.659,-2.105 v -8.926 h 2.515 v 8.927 C 1.588,-1.991 0.947,-0.805 0,0"
           style="fill:#000000;fill-opacity:1;fill-rule:nonzero;stroke:none"
           id="path907"
           inkscape:connector-curvature="0" /></g></g></g></svg>
