<svg xmlns="http://www.w3.org/2000/svg" xmlns:xlink="http://www.w3.org/1999/xlink" preserveAspectRatio="xMidYMid meet" width="1000" height="800" viewBox="0 0 1000 800" style="width:100%;height:100%"><defs><animateMotion repeatCount="indefinite" dur="3s" begin="0s" xlink:href="#_R_G_L_2_G" fill="freeze" keyTimes="0;0.1388889;0.1944444;0.3055556;0.375;0.4305556;0.4722222;0.5138889;1" path="M500 458 C500,458 500,458 500,458 C500,461.33 500,503 500,478 C500,453 500,302.33 500,308 C500,313.67 500,492 500,512 C500,532 500,433.67 500,428 C500,422.33 500,473 500,478 C500,483 500,461.33 500,458 C500,458 500,458 500,458 " keyPoints="0;0;0.06;0.36;0.72;0.87;0.96;1;1" keySplines="0.107 0.126 0.256 1;0.107 0.126 0.256 1;0.12 0 0.265 1;0.714 0 0.623 1;0.373 0 0.84 1;0.493 0 0.667 1;0.6 0 0.64 0.965;0 0 0 0" calcMode="spline"/><animateTransform repeatCount="indefinite" dur="3s" begin="0s" xlink:href="#_R_G_L_2_G" fill="freeze" attributeName="transform" from="-500 -500" to="-500 -500" type="translate" additive="sum" keyTimes="0;1" values="-500 -500;-500 -500" keySplines="0 0 1 1" calcMode="spline"/><animateMotion repeatCount="indefinite" dur="3s" begin="0s" xlink:href="#_R_G_L_1_G" fill="freeze" keyTimes="0;0.0833333;0.1388889;0.25;0.3194444;0.375;0.4166667;0.4583333;1" path="M500 458 C500,458 500,458 500,458 C500,461.33 500,503 500,478 C500,453 500,302.33 500,308 C500,313.67 500,492 500,512 C500,532 500,433.67 500,428 C500,422.33 500,473 500,478 C500,483 500,461.33 500,458 C500,458 500,458 500,458 " keyPoints="0;0;0.06;0.36;0.72;0.87;0.96;1;1" keySplines="0.107 0.126 0.256 1;0.107 0.126 0.256 1;0.12 0 0.265 1;0.714 0 0.623 1;0.373 0 0.84 1;0.493 0 0.667 1;0.6 0 0.64 0.965;0 0 0 0" calcMode="spline"/><animateTransform repeatCount="indefinite" dur="3s" begin="0s" xlink:href="#_R_G_L_1_G" fill="freeze" attributeName="transform" from="-500 -500" to="-500 -500" type="translate" additive="sum" keyTimes="0;1" values="-500 -500;-500 -500" keySplines="0 0 1 1" calcMode="spline"/><animateMotion repeatCount="indefinite" dur="3s" begin="0s" xlink:href="#_R_G_L_0_G" fill="freeze" keyTimes="0;0.0277778;0.0833333;0.1944444;0.2638889;0.3194444;0.3611111;0.4027778;1" path="M500 458 C500,458 500,458 500,458 C500,461.33 500,503 500,478 C500,453 500,302.33 500,308 C500,313.67 500,492 500,512 C500,532 500,433.67 500,428 C500,422.33 500,473 500,478 C500,483 500,461.33 500,458 C500,458 500,458 500,458 " keyPoints="0;0;0.06;0.36;0.72;0.87;0.96;1;1" keySplines="0.107 0.126 0.256 1;0.107 0.126 0.256 1;0.12 0 0.265 1;0.714 0 0.623 1;0.373 0 0.84 1;0.493 0 0.667 1;0.6 0 0.64 0.965;0 0 0 0" calcMode="spline"/><animateTransform repeatCount="indefinite" dur="3s" begin="0s" xlink:href="#_R_G_L_0_G" fill="freeze" attributeName="transform" from="-500 -500" to="-500 -500" type="translate" additive="sum" keyTimes="0;1" values="-500 -500;-500 -500" keySplines="0 0 1 1" calcMode="spline"/><animate attributeType="XML" attributeName="opacity" dur="3s" from="0" to="1" xlink:href="#time_group"/></defs><g id="_R_G"><g id="_R_G_L_2_G"><path id="_R_G_L_2_G_D_0_P_0" fill="#ffffff" fill-opacity="1" fill-rule="nonzero" d=" M895 278.2 C922.4,277.9 986.4,305.2 982.7,507 C987.5,584.7 946.8,721 873.8,730.6 C844.1,730 801.9,719.5 784.5,687.8 C753.3,723.2 744.6,736.9 702.1,736.9 C643.4,738.5 573.1,685.6 575.3,524.4 C571.6,410.8 601.2,290.3 674.7,279.7 C739.7,279.2 756.6,375.9 761.9,431.9 C778.8,407.1 797.3,404.4 810.5,405.5 C822.6,345.8 836.2,278.7 895,278.2z "/><path id="_R_G_L_2_G_D_1_P_0" stroke="#000000" stroke-linecap="round" stroke-linejoin="round" fill="none" stroke-width="11" stroke-opacity="1" d=" M757.5 537.8 C763.8,482.1 761.2,425.3 749.8,370.5 C745.6,349.9 739.8,329.1 727.6,312 C715.4,294.9 695.5,282 674.5,283.3 C653,284.6 634.7,300 621.9,317.4 C588.5,362.4 581.2,421.1 578.1,477.1 C574.2,546.9 575.9,620.2 609.1,681.6 C628,716.4 663.8,735.7 703.3,738 C761.9,741.4 793.8,676.4 799.4,638.9 "/><path id="_R_G_L_2_G_D_2_P_0" stroke="#000000" stroke-linecap="round" stroke-linejoin="round" fill="none" stroke-width="11" stroke-opacity="1" d=" M760.3 451.3 C762.4,425 784.2,410.6 801.3,408.2 C818.4,405.8 836.5,415 844.9,430.1 C849.9,439.2 851.5,449.7 852.6,459.9 C855.5,486.8 855.9,514 853.7,541 "/><path id="_R_G_L_2_G_D_3_P_0" stroke="#000000" stroke-linecap="round" stroke-linejoin="round" fill="none" stroke-width="11" stroke-opacity="1" d=" M812.2 404.2 C815.8,378 823.6,352.5 833.2,327.7 C842.4,304 863.7,280.6 890.1,280.3 C945,279.6 963.8,340.8 969.7,371.1 C988.2,466.7 991.1,563.4 954.5,653.7 C942.4,683.3 916.4,715.6 886.7,727.7 C857,739.8 790.6,714.9 787.3,683.1 "/></g><g id="_R_G_L_1_G"><path id="_R_G_L_1_G_D_0_P_0" fill="#ffffff" fill-opacity="1" fill-rule="nonzero" d=" M484.7 268.5 C534,263.2 582.2,293.8 608.8,335.7 C635.3,377.6 643.1,428.7 643.2,478.2 C643.2,531.8 634.5,586.5 608.4,633.2 C582.3,679.9 537.1,717.8 484.2,726.2 C442.7,732.7 397.2,718.3 369,688.1 C279.6,592 344.3,279.6 484.7,268.5z "/><path id="_R_G_L_1_G_D_1_P_0" stroke="#000000" stroke-linecap="round" stroke-linejoin="round" fill="none" stroke-width="11" stroke-opacity="1" d=" M484.7 268.5 C534,263.2 582.2,293.8 608.8,335.7 C635.3,377.6 643.1,428.7 643.2,478.2 C643.2,531.8 634.5,586.5 608.4,633.2 C582.3,679.9 537.1,717.8 484.2,726.2 C442.7,732.7 397.2,718.3 369,688.1 C279.6,592 344.3,279.6 484.7,268.5z "/><path id="_R_G_L_1_G_D_2_P_0" fill="#ffffff" fill-opacity="1" fill-rule="nonzero" d=" M489.9 440.7 C508.8,476 511.1,517.1 496.2,553.5 "/><path id="_R_G_L_1_G_D_3_P_0" stroke="#000000" stroke-linecap="round" stroke-linejoin="round" fill="none" stroke-width="11" stroke-opacity="1" d=" M489.9 440.7 C508.8,476 511.1,517.1 496.2,553.5 "/><path id="_R_G_L_1_G_D_4_P_0" fill="#ffffff" fill-opacity="1" fill-rule="nonzero" d=" M509.6 492.3 C530.3,481.9 544.9,462.9 547.6,442.4 "/><path id="_R_G_L_1_G_D_5_P_0" stroke="#000000" stroke-linecap="round" stroke-linejoin="round" fill="none" stroke-width="11" stroke-opacity="1" d=" M509.6 492.3 C530.3,481.9 544.9,462.9 547.6,442.4 "/><path id="_R_G_L_1_G_D_6_P_0" fill="#ffffff" fill-opacity="1" fill-rule="nonzero" d=" M512.4 495.9 C538.5,502.1 556.8,520 555,537.6 "/><path id="_R_G_L_1_G_D_7_P_0" stroke="#000000" stroke-linecap="round" stroke-linejoin="round" fill="none" stroke-width="11" stroke-opacity="1" d=" M512.4 495.9 C538.5,502.1 556.8,520 555,537.6 "/></g><g id="_R_G_L_0_G"><path id="_R_G_L_0_G_D_0_P_0" fill="#ffffff" fill-opacity="1" fill-rule="nonzero" d=" M333.7 272.2 C361.1,271.9 425.1,299.2 421.4,501 C426.2,578.7 385.5,715 312.5,724.6 C282.8,724 240.6,713.5 223.2,681.8 C192,717.2 183.3,730.9 140.8,730.9 C82.1,732.5 11.8,679.6 14,518.4 C10.3,404.8 39.9,284.3 113.4,273.7 C178.4,273.2 195.3,369.9 200.6,425.9 C217.5,401.1 236,398.4 249.2,399.5 C261.3,339.8 274.9,272.7 333.7,272.2z "/><path id="_R_G_L_0_G_D_1_P_0" stroke="#000000" stroke-linecap="round" stroke-linejoin="round" fill="none" stroke-width="11" stroke-opacity="1" d=" M196 530.7 C202.3,475 199.7,418.2 188.3,363.4 C184.1,342.8 178.3,322 166.1,304.9 C153.9,287.8 134,274.9 113,276.2 C91.5,277.5 73.2,292.9 60.4,310.3 C27,355.3 19.7,414 16.6,470 C12.7,539.8 14.4,613.1 47.6,674.5 C66.5,709.3 102.3,728.6 141.8,730.9 C200.4,734.3 232.3,669.3 237.9,631.8 "/><path id="_R_G_L_0_G_D_2_P_0" stroke="#000000" stroke-linecap="round" stroke-linejoin="round" fill="none" stroke-width="11" stroke-opacity="1" d=" M198.8 444.2 C200.9,417.9 222.7,403.5 239.8,401.1 C256.9,398.7 275,407.9 283.4,423 C288.4,432.1 290,442.6 291.1,452.8 C294,479.7 294.4,506.9 292.2,533.9 "/><path id="_R_G_L_0_G_D_3_P_0" stroke="#000000" stroke-linecap="round" stroke-linejoin="round" fill="none" stroke-width="11" stroke-opacity="1" d=" M250.6 397.2 C254.2,371 262,345.5 271.6,320.7 C280.8,297 302.1,273.6 328.5,273.3 C383.4,272.6 402.2,333.8 408.1,364.1 C426.6,459.7 429.5,556.4 392.9,646.7 C380.8,676.3 354.8,708.6 325.1,720.7 C295.4,732.8 229,707.9 225.7,676.1 "/></g></g><g id="time_group"/></svg>