<svg xmlns="http://www.w3.org/2000/svg" xmlns:xlink="http://www.w3.org/1999/xlink" preserveAspectRatio="xMidYMid meet" width="400" height="700" viewBox="0 0 400 700" style="width:100%;height:100%"><defs><animate repeatCount="indefinite" dur="1s" begin="0s" xlink:href="#_R_G_L_1_G" fill="freeze" attributeName="opacity" from="1" to="1" keyTimes="0;0.4999996;0.5;0.9999996;1" values="1;1;0;0;1" keySplines="0 0 1 1;0 0 1 1;0 0 1 1;0 0 1 1" calcMode="spline"/><animate attributeType="XML" attributeName="opacity" dur="1s" from="0" to="1" xlink:href="#time_group"/></defs><g id="_R_G"><g id="_R_G_L_1_G"><path id="_R_G_L_1_G_D_0_P_0" stroke="#000000" stroke-linecap="round" stroke-linejoin="round" fill="none" stroke-width="12.948" stroke-opacity="1" d=" M132.1 52.64 C132.1,52.64 142.1,149.14 142.1,149.14 "/><path id="_R_G_L_1_G_D_1_P_0" stroke="#000000" stroke-linecap="round" stroke-linejoin="round" fill="none" stroke-width="12.948" stroke-opacity="1" d=" M213.4 93.14 C213.4,93.14 196.4,151.94 196.4,151.94 "/><path id="_R_G_L_1_G_D_2_P_0" stroke="#000000" stroke-linecap="round" stroke-linejoin="round" fill="none" stroke-width="12.948" stroke-opacity="1" d=" M49.2 126.94 C49.2,126.94 90.4,175.34 90.4,175.34 "/></g><g id="_R_G_L_0_G"><path id="_R_G_L_0_G_D_0_P_0" stroke="#000000" stroke-linecap="round" stroke-linejoin="round" fill="none" stroke-width="12.948" stroke-opacity="1" d=" M287.6 622.54 C256,646.74 212.9,650.44 173.7,643.84 C148.8,639.64 123.5,631.04 105.8,612.84 C89.9,596.54 81.8,574.04 78.7,551.44 C70,487.94 97.8,425.64 104.8,361.94 C109.6,318.64 104.9,273.74 118.6,232.44 C122.6,220.44 128.4,208.54 137.9,200.14 C147.4,191.74 161.2,187.44 173.1,191.74 C188.3,197.24 195.8,214.34 199,230.14 C203.1,249.94 203.2,270.44 199.4,290.24 C197.4,300.64 194.2,311.34 196.1,321.74 C199,337.54 213.1,349.34 228.3,354.54 C243.5,359.74 259.9,359.64 276,360.24 C292,360.84 308.7,362.44 322.6,370.34 C337.1,378.64 347.5,393.74 350,410.34 C352.5,426.94 347.1,444.44 335.7,456.64 C323.8,469.34 306.5,475.94 289.2,477.54 C271.9,479.24 254.5,476.34 237.4,472.74 C220.8,469.24 201.5,462.14 198,445.54 C196,436.14 200.2,426.24 207.1,419.64 C214,413.04 223.2,409.24 232.5,407.04 C251.4,402.44 271.7,403.74 290,410.54 "/><path id="_R_G_L_0_G_D_1_P_0" stroke="#000000" stroke-linecap="round" stroke-linejoin="round" fill="none" stroke-width="12.948" stroke-opacity="1" d=" M335.2 461.24 C350.9,479.44 352.1,508.64 337.8,528.04 C326.3,543.64 306.9,551.94 287.7,553.74 C268.4,555.44 249.1,551.34 230.5,545.94 C215.2,541.44 197.6,533.44 195.1,517.74 C194.1,511.24 195.9,504.64 197.9,498.44 C201.6,486.64 208.3,473.14 220.6,472.04 C221.2,471.94 220.6,473.24 220.3,472.74 "/><path id="_R_G_L_0_G_D_2_P_0" stroke="#000000" stroke-linecap="round" stroke-linejoin="round" fill="none" stroke-width="12.948" stroke-opacity="1" d=" M327.9 544.04 C337.1,549.84 341.2,561.64 340.2,572.54 C338.4,592.54 321.5,608.74 302.3,614.74 C283.1,620.74 262.4,618.04 243,612.84 C231.9,609.84 220.9,605.94 211.9,598.84 C202.9,591.74 196.2,581.04 196.4,569.54 C196.6,558.04 205.1,546.64 216.5,545.34 "/></g></g><g id="time_group"/></svg>