<svg xmlns="http://www.w3.org/2000/svg" xmlns:xlink="http://www.w3.org/1999/xlink" preserveAspectRatio="xMidYMid meet" width="300" height="300" viewBox="0 0 300 300" style="width:100%;height:100%"><defs><animateMotion repeatCount="indefinite" dur="1.3333333s" begin="0s" xlink:href="#_R_G_L_0_G" fill="freeze" keyTimes="0;0.5;1" path="M149.87 182.72 C149.87,169.39 149.87,102.72 149.87,102.72 C149.87,102.72 149.87,169.39 149.87,182.72 " keyPoints="0;0.5;1" keySplines="0.333 0 0 1;1 0 0.667 1" calcMode="spline"/><animateTransform repeatCount="indefinite" dur="1.3333333s" begin="0s" xlink:href="#_R_G_L_0_G" fill="freeze" attributeName="transform" from="0" to="0" type="rotate" additive="sum" keyTimes="0;0.5;1" values="0;12;0" keySplines="0.333 0 0 1;1 0 0.667 1" calcMode="spline"/><animateTransform repeatCount="indefinite" dur="1.3333333s" begin="0s" xlink:href="#_R_G_L_0_G" fill="freeze" attributeName="transform" from="-116.47 -107.543" to="-116.47 -107.543" type="translate" additive="sum" keyTimes="0;1" values="-116.47 -107.543;-116.47 -107.543" keySplines="0 0 1 1" calcMode="spline"/><animate attributeType="XML" attributeName="opacity" dur="1s" from="0" to="1" xlink:href="#time_group"/></defs><g id="_R_G"><g id="_R_G_L_0_G"><path id="_R_G_L_0_G_D_0_P_0" fill="#ffffff" fill-opacity="1" fill-rule="nonzero" d=" M87.7 167.69 C80.5,174.39 75.7,180.89 66.8,181.59 C60,182.19 58,181.59 51.2,182.59 C49.5,182.89 44.1,186.59 41.2,188.59 C37.8,190.99 29.9,197.59 22.4,188.79 C17.5,183.09 21.4,175.89 25.1,172.59 C31.7,166.69 33.3,164.09 36,156.79 C37.6,152.59 36.5,151.59 38.7,147.69 C41.2,143.39 48.7,135.69 52.6,132.59 "/><path id="_R_G_L_0_G_D_1_P_0" stroke="#000000" stroke-linecap="round" stroke-linejoin="round" fill="none" stroke-width="7" stroke-opacity="1" d=" M87.7 167.69 C80.5,174.39 75.7,180.89 66.8,181.59 C60,182.19 58,181.59 51.2,182.59 C49.5,182.89 44.1,186.59 41.2,188.59 C37.8,190.99 29.9,197.59 22.4,188.79 C17.5,183.09 21.4,175.89 25.1,172.59 C31.7,166.69 33.3,164.09 36,156.79 C37.6,152.59 36.5,151.59 38.7,147.69 C41.2,143.39 48.7,135.69 52.6,132.59 "/><path id="_R_G_L_0_G_D_2_P_0" stroke="#000000" stroke-linecap="round" stroke-linejoin="round" fill="none" stroke-width="7" stroke-opacity="1" d=" M210.1 57.29 C210.1,57.29 87.1,167.99 87.1,167.99 C81.8,173.49 69.5,170.19 59.6,160.69 C49.8,151.19 46.1,139.09 51.3,133.59 C51.3,133.59 174.3,22.89 174.3,22.89 "/><path id="_R_G_L_0_G_D_3_P_0" stroke="#000000" stroke-linecap="round" stroke-linejoin="round" fill="none" stroke-width="6.999" stroke-opacity="1" d=" M182.72 50.13 C172.86,40.63 169.15,28.48 174.43,22.99 C179.72,17.5 192,20.75 201.87,30.25 C211.73,39.75 215.44,51.91 210.16,57.39 C204.87,62.88 192.59,59.63 182.72,50.13z "/><path id="_R_G_L_0_G_D_4_P_0" fill="#000000" fill-opacity="1" fill-rule="nonzero" d=" M191.2 74.38 C185.9,79.88 173.6,76.58 163.7,67.08 C153.9,57.58 150.2,45.48 155.4,39.98 C155.4,39.98 139.1,53.79 139.1,53.79 C133.8,59.29 137.5,71.38 147.4,80.88 C157.3,90.39 169.6,93.69 174.9,88.19 C174.9,88.19 191.2,74.38 191.2,74.38z "/><path id="_R_G_L_0_G_D_5_P_0" stroke="#000000" stroke-linecap="round" stroke-linejoin="round" fill="none" stroke-width="3.517" stroke-opacity="1" d=" M191.2 74.38 C185.9,79.88 173.6,76.58 163.7,67.08 C153.9,57.58 150.2,45.48 155.4,39.98 C155.4,39.98 139.1,53.79 139.1,53.79 C133.8,59.29 137.5,71.38 147.4,80.88 C157.3,90.39 169.6,93.69 174.9,88.19 C174.9,88.19 191.2,74.38 191.2,74.38z "/><path id="_R_G_L_0_G_D_6_P_0" fill="#000000" fill-opacity="1" fill-rule="nonzero" d=" M113.8 144.79 C108.5,150.29 97.5,147.48 87.7,137.98 C77.9,128.48 73.7,115.59 79,110.09 C79,110.09 66.2,121.09 66.2,121.09 C60.9,126.59 64.6,138.69 74.5,148.19 C84.4,157.69 96.7,160.98 102,155.48 C102,155.48 113.8,144.79 113.8,144.79z "/><path id="_R_G_L_0_G_D_7_P_0" stroke="#000000" stroke-linecap="round" stroke-linejoin="round" fill="none" stroke-width="3.517" stroke-opacity="1" d=" M113.8 144.79 C108.5,150.29 97.5,147.48 87.7,137.98 C77.9,128.48 73.7,115.59 79,110.09 C79,110.09 66.2,121.09 66.2,121.09 C60.9,126.59 64.6,138.69 74.5,148.19 C84.4,157.69 96.7,160.98 102,155.48 C102,155.48 113.8,144.79 113.8,144.79z "/></g></g><g id="time_group"/></svg>