<svg width="1024" height="1024" viewBox="0 0 1024 1024" fill="none" xmlns="http://www.w3.org/2000/svg">
<path d="M330.525 647.053C375.828 613.148 353.96 529.115 420.265 519.056C446.465 516.269 453.297 537.032 447.706 558.517C443.904 572.69 437.741 586.617 432.949 600.408C416.415 646.948 399.886 693.753 351.349 715.426C283.829 745.574 206.431 711.291 201.023 633.387C198.317 594.414 210.43 563.823 223.678 527.415L246.845 464.066C260.347 427.766 272.439 389.41 289.816 354.733C331.309 271.932 406.343 211.791 500.411 204.296C510.341 203.201 526.445 204.307 536.613 205.746C569.123 210.264 603.644 224.111 623.649 251.314C658.618 298.966 647.558 372.063 600.011 407.351C572.36 427.873 520.695 429.413 499.162 399.367C492.313 389.957 489.512 378.199 491.382 366.712C492.476 360.364 499.795 341.281 509.02 343.184C512.837 343.971 512.963 352.984 515.313 356.502C521.732 366.108 536.452 367.955 546.731 364.096C568.168 356.485 574.545 329.716 567.821 309.969C562.179 293.4 543.481 283.211 527.357 279.613C493.52 272.498 457.191 283.008 428.408 301.145C400.955 318.664 377.306 342.802 359.557 370.006C345.793 392.612 336.452 417.108 327.132 441.755C319.457 462.052 312.25 482.163 305.254 502.698C294.903 533.084 282.528 562.973 275.169 594.3C270.119 615.798 271.277 649.97 298.479 655.407C309.705 657.635 321.293 653.169 330.525 647.053Z" fill="black"/>
<path d="M689.872 370.2C696.418 347.749 705.149 325.904 711.695 303.317C714.191 294.704 726.222 265.966 714.448 260.569C711.517 259.226 707.667 259.878 704.746 261.096C697.866 263.965 698.947 275.407 694.042 277.804C691.751 277.968 689.08 276.969 687.537 275.434C677.821 265.775 688.338 246.151 694.868 238.893C707.325 225.046 722.281 218.464 739.973 217.204C758.055 216.235 778.773 223.148 787.129 240.503C795.237 257.344 788.609 277.352 783.59 294.266C776.079 319.582 767.287 345.051 758.314 369.927C770.38 368.91 783.853 369.361 795.645 371.891C791.795 389.3 794.819 402.098 798.949 418.717C786.878 432.858 763.69 431.336 747.147 431.442C743.066 431.467 738.842 432.065 737.282 436.337C734.212 444.739 731.615 453.393 728.579 461.851L702.233 536.471C694.723 557.635 687.444 578.879 680.397 600.201C675.654 614.152 670.602 627.901 667.099 642.277C666.063 646.935 665.053 653.59 667.917 657.695C673.294 665.402 685.128 657.003 685.805 649.715C686.303 644.353 680.867 643.664 678.261 640.062C676.296 637.344 676.48 632.66 676.903 629.517C678.248 619.947 683.336 611.302 691.049 605.479C704.348 595.395 723.956 593.706 736.38 604.628C770.205 634.364 747.014 703.569 707.95 718.099C688.895 725.187 673.081 728.929 653.023 725.466C636.874 722.678 621.428 716.563 611.845 703.108C603.679 691.399 600.451 676.947 602.858 662.877C599.65 666.578 595.505 672.637 592.426 676.719C581.631 691.339 570.091 704.234 555.136 714.774C522.549 737.74 469.178 730.965 447.105 696.505C430.111 669.974 437.332 635.051 443.839 605.973C447.403 591.677 452.908 575.718 457.345 561.485C464.349 539.012 471.768 517.627 480.836 495.85C490.4 472.881 502.51 457.898 526.1 448.28C544.939 440.06 581.202 439.039 599.839 447.44C646.285 468.375 607.643 550.195 595.325 582.977C587 605.133 568.105 627.136 545.964 634.993C532.461 639.784 520.838 640.465 507.693 634.65C506.573 646.066 507.371 656.282 519.947 660.635C532.609 665.018 549.975 661.807 561.648 656.024C606.199 633.955 618.341 583.852 633.171 540.857L670.447 431.616C654.458 431.448 629.792 433.717 616.951 424.501C632.83 411.492 642.322 401.218 651.298 382.081C653.077 378.29 654.172 374.682 655.789 370.884C666.232 369.482 679.029 370.238 689.872 370.2ZM551.106 505.894C546.952 508.969 545.46 510.981 543.387 515.768C541.582 519.939 539.921 523.984 538.337 528.25C531.851 545.724 525.565 563.284 519.921 581.049C519.947 581.36 519.973 581.671 519.999 581.982C521.729 582.291 522.64 581.936 524.343 581.546C532.207 578.468 534.418 572.941 537.588 565.661C541.09 557.62 557.841 513.644 555.381 508.006C554.884 506.867 554.156 506.449 553.01 506.096C552.466 505.929 551.657 505.932 551.106 505.894Z" fill="black"/>
<path d="M275.417 275.406C294.264 259.595 320.144 245.339 344.64 241.663C348.395 241.351 354.463 240.493 356.032 244.729C355.906 245.237 355.779 245.744 355.652 246.251C350.76 250.691 339.651 255.363 334.201 258.614C316.489 269.18 304.996 279.958 291.652 295.738C283.755 304.368 276.703 314.563 267.05 321.349C254.668 330.054 235.067 334.922 225.005 320.345C213.127 297.877 237.894 269.264 257.977 261.869C262.727 260.12 272.06 257.064 276.777 259.347C283.021 262.368 277.358 271.681 275.417 275.406Z" fill="black"/>
<path d="M538.542 430.563C626.252 443.077 677.556 335.76 640.012 265.038C635.694 256.904 630.498 250.247 625.19 242.842C629.231 244.82 636.705 254.176 639.356 257.882C674.91 307.593 655.669 386.213 607.241 420.013C589.174 432.769 566.71 437.66 544.976 433.571C541.911 432.53 541.3 432.194 538.542 430.563Z" fill="black"/>
<path d="M772.066 359.503C771.316 359.947 771.004 360.009 770.183 360.314C769.404 358.995 771.73 350.846 772.223 349.081C781.073 317.341 797.868 283.058 797.413 249.812C804.038 258.84 801.138 271.996 798.74 281.913C794.666 298.758 789.366 315.139 783.272 331.349C779.808 340.562 776.636 350.793 772.066 359.503Z" fill="black"/>
<path d="M347.404 426.923L347.247 426.969C345.363 419.214 355.648 396.148 359.716 388.497C381.109 348.266 415.935 315.3 459.855 301.603L460.007 301.67C459.993 301.833 459.98 301.996 459.966 302.159C451.945 306.385 437.924 315.041 431.052 319.292C397.384 340.117 373.928 368.715 357.117 404.334C353.592 411.803 350.675 419.262 347.404 426.923Z" fill="black"/>
<path d="M777.278 465.497C793.822 458.143 814.249 455.294 831.925 452.983C854.497 450.032 880.077 447.533 890.681 424.181C895.598 413.355 896.704 400.316 892.511 389.102C888.259 377.94 879.714 368.945 868.784 364.128C850.329 355.964 829.412 365.572 822.035 383.845C817.058 395.466 818.952 408.394 824.466 419.453C825.505 421.537 832.439 433.526 831.318 435.101C827.924 439.872 819.499 434.16 816.173 431.326C805.893 422.565 800.867 407.651 799.858 394.525C798.302 372.256 805.477 350.255 819.863 333.185C836.198 314.181 856.117 303.67 881.201 301.705C891.618 301.162 902.047 302.511 911.983 305.686C961.543 322.002 979.222 377.385 963.216 423.935C956.989 442.045 948.25 453.97 934.677 466.937C892.298 507.421 838.638 480.83 788.406 486.484C762.801 489.451 750.842 498.83 729.914 509.266C741.086 488.362 755.346 475.033 777.278 465.497Z" fill="black"/>
<path d="M199.235 388.541C221.256 383.398 237.408 368.58 253.497 353.488C259.577 347.785 263.753 342.297 271.274 338.524C280.229 338.682 278.08 347.815 275.429 353.4C255.691 394.975 223.815 437.841 181.637 458.433C170.047 464.091 148.795 466.068 136.601 460.673C125.891 455.75 121.542 449.908 117.309 439.405C117.146 438.796 116.989 438.187 116.838 437.576C108.349 403.233 136.916 372.516 168.511 364.503C185.256 360.256 214.404 364.913 199.235 388.541Z" fill="black"/>
<path d="M397.632 479.251C395.541 465.873 397.392 457.152 405.289 445.658C410.9 437.489 414.018 424.028 400.14 421.375C394.481 420.811 389.628 422.988 385.478 426.363C379.394 431.311 377.626 437.138 377.185 444.723C377.108 446.04 377.522 450.789 376.03 450.996C372.507 451.484 368.853 449.826 366.798 446.919C358.766 434.972 365.881 418.656 373.945 408.709C387.075 392.513 405.488 384.065 425.818 381.688C434.629 380.313 447.925 383.016 455.902 386.871C501.907 409.113 480.613 499.878 430.267 501.189C413.93 501.614 402.618 495.623 397.632 479.251Z" fill="black"/>
<path d="M217.689 450.089C221.898 443.409 227.362 436.944 231.632 430.178C234.956 424.912 238.746 419.412 244.318 416.433C252.026 417.469 249 427.188 247.197 432.018C239.257 453.283 210.507 506.073 182.686 496.14C175.706 491.022 175.208 484.351 177.397 476.483C180.544 465.17 189.88 458.287 199.812 453.051C205.715 449.94 211.052 447.999 217.689 450.089Z" fill="black"/>
<path d="M402.842 499.171C410.966 504.952 416.345 508.332 426.663 508.482C463.355 509.014 483.099 470.353 486.115 438.503C486.535 434.066 486.549 429.432 486.572 424.853C491.923 448.941 484.698 476.468 468.434 494.977C459.282 505.5 446.304 511.928 432.388 512.834C421.717 513.481 415.224 511.387 407.267 504.367C405.826 502.784 404.25 500.827 402.842 499.171Z" fill="black"/>
<path d="M722.059 507.913C721.874 507.616 721.688 507.319 721.502 507.022C724.81 487.484 736.058 464.062 741.941 444.692C744.249 437.094 751.507 437.75 758.401 437.958C771.317 438.347 781.197 436.382 793.375 432.035L793.886 432.464C785.008 443.397 761.164 442.403 748.736 443.488C746.259 447.596 742.747 458.873 740.802 463.869C734.757 479.393 730.065 493.256 722.059 507.913Z" fill="black"/>
<path d="M650.886 439.799C646.28 440.838 643.267 441.357 638.518 441.399C631.301 441.464 616.963 437.763 611.954 432.615C618.953 433.877 625.879 435.969 632.924 437.3C638.093 438.276 646.657 438.16 651.239 439.315L650.886 439.799Z" fill="black"/>
<path d="M633.705 485.363L633.355 485.912C632.414 484.397 631.813 478.141 631.428 475.797C629.681 465.101 625.31 453.538 617 446.203C614.053 443.603 610.285 442.089 607.314 439.134C631.363 444.006 637.779 463.435 633.705 485.363Z" fill="black"/>
<path d="M119.482 519.177C130.802 507.543 137.698 495.232 145.503 481.117C147.421 477.649 150.155 474.199 153.477 472.022C169.184 470.25 159.579 493.561 156.938 501.722C148.527 527.119 138.263 551.157 124.781 574.268C100.984 615.058 57.8279 611.163 55.2925 559.675C55.1202 544.728 57.7929 530.507 64.3298 516.834C72.7066 500.229 87.8709 484.25 105.439 477.498C113.63 474.35 126.162 475.173 128.359 485.493C130.827 497.089 125.408 509.375 119.482 519.177Z" fill="black"/>
<path d="M907.548 527.084C898.373 520.317 896.951 514.089 904.617 504.36C911.584 495.518 920.915 490.01 932.207 488.671C939.781 488.14 947.554 490.485 952.079 496.76C963.751 512.992 952.733 532.61 938.156 542.232C924.269 551.399 908.815 552.916 892.823 549.746C886.419 547.695 878.121 543.473 875.63 536.842C874.847 534.816 874.97 532.552 875.969 530.623C879.902 522.876 892.817 528.674 899.491 528.469C903.334 528.351 903.907 528.14 907.548 527.084Z" fill="black"/>
<path d="M761.077 543.129C763.925 541.663 765.276 541.836 768.075 540.518L768.266 539.753C757.398 531.469 731.696 546.918 723.146 553.675C720.638 555.657 700.177 577.91 700.215 566.118C700.242 557.775 713.328 542.558 718.82 535.903C739.206 512.429 766.974 496.992 798.256 494.704C822.66 493.007 852.814 503.873 860.346 527.796C873.82 572.483 826.306 587.466 792.972 569.028C785.784 565.052 755.323 553.491 761.077 543.129Z" fill="black"/>
<path d="M524.343 581.546C522.64 581.936 521.729 582.291 519.999 581.982C519.973 581.671 519.947 581.36 519.921 581.049C525.565 563.284 531.851 545.724 538.337 528.25C539.921 523.984 541.582 519.939 543.387 515.768C545.46 510.981 546.952 508.969 551.106 505.894C551.657 505.932 552.466 505.929 553.01 506.096C554.156 506.449 554.884 506.867 555.381 508.006C557.841 513.644 541.09 557.62 537.588 565.661C534.418 572.941 532.207 578.468 524.343 581.546Z" fill="white"/>
<path d="M526.126 648.768L525.464 648.522C525.724 647.916 529.178 647.756 530.198 647.625C539.18 646.399 547.899 643.71 556.012 639.666C580.659 627.106 594.051 603.442 604.838 579.176C613.997 558.571 621.758 536.776 628.82 515.365C629.724 520.907 625.943 534.858 624.204 540.207C610.656 581.859 593.891 633.682 547.425 648.264C540.101 650.563 533.524 650.221 526.126 648.768Z" fill="black"/>
<path d="M180.911 547.495C183.52 537.141 188.564 521.777 199.745 517.981C205.719 518.371 205.08 521.699 203.598 526.535C200.422 536.902 196.771 547.183 194.125 557.712C189.745 575.208 186.315 592.594 180.062 609.593C174.697 624.199 166.098 641.321 148.466 642.682C142.568 643.137 138.734 640.969 134.606 637.151C115.863 616.789 135.087 575.48 150.145 558.228C157.209 550.136 170.468 537.98 180.911 547.495Z" fill="black"/>
<path d="M869.614 587.23C864.927 583.894 863.67 580.352 867.104 575.087C873.164 565.794 885.203 558.517 895.906 556.108C898.461 555.775 901.051 555.817 903.594 556.232C915.346 558.226 922.885 567.691 920.352 579.78C918.282 589.658 909.933 597.878 901.658 603.119C884.147 614.209 864.695 616.246 844.693 611.678C838.899 609.774 822.907 603.02 823.971 593.828C824.12 592.538 826.084 591.509 827.439 591.391C830.657 591.113 834.08 592.361 837.255 592.854C849.328 595.346 858.769 592.351 869.614 587.23Z" fill="black"/>
<path d="M697.785 590.674C704.81 570.676 730.412 564.291 749.043 562.71C750.503 562.6 751.967 562.547 753.431 562.553C762.315 562.61 774.54 564.022 781.18 570.777C785.819 575.496 787.873 584.946 781.77 589.491C771.933 596.816 761.665 586.715 752.445 583.123C747.028 581.011 744.022 580.336 738.125 579.527C721.545 578.352 712.271 582.757 697.785 590.674Z" fill="black"/>
<path d="M343.883 611.15C343.856 611.04 343.83 610.931 343.803 610.821C344.048 596.526 352.84 575.611 360.206 564.367C360.95 567.964 346.55 605.864 343.883 611.15Z" fill="black"/>
<path d="M795.075 617.48L793.871 616.518C786.945 611.092 777.61 599.407 787.306 592.072C812.582 589.853 832.277 620.438 833.992 642.763C835.347 660.402 827.836 678.134 808.026 679.748C768.903 678.851 762.217 599.402 795.075 617.48Z" fill="black"/>
<path d="M75.8992 720.745C40.6404 699.949 79.3258 623.479 108.293 612.561C111.449 612.317 115.983 612.319 117.454 615.686C121.31 624.511 113.403 635.7 112.951 645.031C112.547 650.105 112.828 655.908 113.69 660.943C117.459 682.971 114.04 706.044 93.4763 718.523C88.1276 721.768 81.9046 722.533 75.8992 720.745Z" fill="black"/>
<path d="M868.729 654.882C868.299 654.254 867.887 653.615 867.493 652.964C860.541 641.261 877.766 642.458 881.253 640.422L881.211 639.754C879.691 638.347 869.876 636.941 867.078 636.938C860.455 636.932 845.506 625.949 846.974 619.065C849.776 617.116 858.278 619.639 862.685 620.215C878.66 622.302 889.497 614.336 904.642 613.204C912.512 613.189 920.325 615.151 925.595 620.846C945.273 642.111 918.199 667.77 895.483 666.152C884.017 665.335 876.414 662.872 868.729 654.882Z" fill="black"/>
<path d="M354.847 779.49C363.256 796.248 352.629 812.28 336.055 817.061C308.76 824.935 275.737 819.99 250.584 807.283C210.181 786.872 189.237 743.098 182.4 700.164C178.756 676.961 177.385 636.913 188.251 615.849C188.943 619.053 187.447 632.864 187.471 637.337C187.505 643.694 187.741 648.903 188.596 655.429C192.286 683.599 201.75 713.869 218.421 737.085C221.685 741.631 227.419 746.452 231.626 749.788C227.436 742.994 209.534 720.944 214.759 714.184C216.821 713.457 217.914 713.235 219.958 714.627C223.561 717.081 226.176 721.541 229.208 724.716C235.78 731.6 243.782 737.647 252.053 742.236C267.29 750.689 284.265 752.285 301.316 752.969C309.02 753.278 316.502 753.554 323.937 755.757C338.195 759.983 347.624 766.534 354.847 779.49Z" fill="black"/>
<path d="M308.285 649.42C294.517 653.892 283.015 642.924 280.807 629.835C281.388 630.424 285.662 636.59 286.922 638.07C294.271 646.698 299.581 645.44 308.174 648.628L308.285 649.42Z" fill="black"/>
<path d="M272.575 735.612C298.073 739.773 321.264 739.074 345.597 729.349C374.423 717.828 396.691 696.692 413.001 670.639C418.071 662.539 422.393 656.331 426.255 647.353C428.7 660.124 419.908 669.94 413.746 680.01C387.805 722.408 326.39 758.112 276.928 738.068C275.498 737.302 273.998 736.416 272.575 735.612Z" fill="black"/>
<path d="M146.426 726.281C149.741 710.725 153.001 662.252 165.462 653.947C169.31 654.004 171.866 654.073 172.256 658.718C172.676 663.643 172.407 668.973 172.321 673.913C171.729 707.726 179.809 740.686 196.417 770.159C200.186 776.85 206.067 784.294 208.481 791.529L208.713 792.234C203.549 816.301 161.683 825.775 141.78 816.148C125.88 808.457 117.556 799.197 111.178 783.144C99.5849 748.682 113.821 702.451 131.398 671.728C133.795 667.538 141.792 657.126 146.506 656.752C157.209 655.904 149.063 675.205 148.498 680.493C145.371 695.303 143.517 711.421 146.426 726.281Z" fill="black"/>
<path d="M661.695 742.645C659.989 742.106 659.152 742.015 657.904 740.729L658.176 740.083C661.534 739.046 669.658 738.796 673.266 738.575C710.026 736.347 744.873 709.718 755.91 674.448C757.267 670.112 759.577 662.468 761.689 658.86C764.661 662.2 762.86 669.361 761.891 673.281C755.835 697.62 738.446 718.305 716.993 730.802C706.109 737.142 695.874 741.367 683.334 743.009C675.333 744.057 669.49 744.694 661.695 742.645Z" fill="black"/>
<path d="M817.061 737.337C833.139 720.366 838.598 695.696 839.442 673.371C839.622 668.61 840.824 665.548 844.521 662.524C846.55 662.442 848.22 662.311 849.879 663.742C854.996 668.156 856.455 678.923 856.907 685.202C858.012 681.456 859.443 667.803 862.184 666.437C868.914 669.141 871.689 687.699 872.255 694.026C875.324 728.399 867.777 765.923 845.116 792.875C824.508 817.387 785.243 831.584 758.465 808.359C726.22 776.426 780.229 717.249 808.644 703.405C811.884 701.661 820.656 697.201 824.294 699.231C834.656 705.013 820.32 730.392 817.061 737.337Z" fill="black"/>
<path d="M601.207 783.96C606.503 751.62 643.067 751.052 668.784 751.897C671.607 751.99 680.089 752.302 682.338 753.613C696.983 762.151 676.47 768.876 669.148 770.595L668.923 770.992C677.24 772.989 686.582 769.613 694.131 766.782C728.831 753.766 753.443 723.415 765.577 689.092C767.375 684.006 769.524 678.305 771.702 673.373C776.558 677.632 772.798 699.186 770.897 704.867C752.438 760.019 706.665 825.366 640.99 819.716C619.665 817.882 599.498 807.942 601.207 783.96Z" fill="black"/>
<path d="M482.723 734.572C492.144 737.152 506.941 738.742 516.807 738.278C545.659 736.921 565.903 720.634 583.847 699.399C588.687 693.671 593.586 685.97 598.37 680.732L598.777 680.296L599.744 680.733C600.392 683.444 598.044 687.067 596.637 689.565C580.332 718.509 549.516 743.284 515.079 743.469C507.888 743.508 492.363 742.444 486.252 739.1L482.723 734.572Z" fill="black"/>
<path d="M431.293 768.997L430.552 768.503C414.161 757.464 423.846 739.839 441.513 737.146C462.61 735.262 486.095 754.565 489.153 775.357C492.87 800.624 467.826 816.619 445.423 819.618C424.028 822.382 402.411 816.535 385.325 803.364C379.972 799.275 375.234 794.026 370.473 788.252C361.822 778.939 349.406 751.519 362.944 741.604C376.164 731.921 399.197 755.789 409.788 761.859C417.005 765.995 423.799 767.637 431.293 768.997Z" fill="black"/>
<path d="M549.645 769.699C580.797 760.478 567.749 744.744 586.761 738.613C591.083 738.252 595.659 737.448 598.313 741.496C602.036 747.174 601.149 755.647 599.825 761.857C595.669 781.338 587.84 800.405 570.364 811.524C557.469 820.066 542.152 821.401 527.229 818.7C516.928 816.836 509.92 810.39 504.354 801.879C497.967 788.638 498.415 775.993 507.986 764.415C515.227 755.655 525.526 747.785 537.126 746.406C543.937 745.596 555.395 749.446 555.538 757.751C555.601 762.512 552.748 766.348 549.645 769.699Z" fill="black"/>
</svg>
