<?xml version="1.0" encoding="UTF-8" standalone="no"?>
<!--********* Copyright (c) 2024 Pareto Softare, LLC DBA Simplemaps.com ***************************************
************* Free for Commercial Use, full terms at  https://simplemaps.com/resources/svg-license ************
************* Attribution is appreciated! https://simplemaps.com *******************************************-->

<svg
   baseprofile="tiny"
   fill="#6f9c76"
   height="873.3999"
   stroke="#ffffff"
   stroke-linecap="round"
   stroke-linejoin="round"
   stroke-width="0.5"
   version="1.2"
   viewbox="0 0 1000 960"
   width="909.5"
   id="svg13"
   xmlns="http://www.w3.org/2000/svg"
   xmlns:svg="http://www.w3.org/2000/svg">
  <defs
     id="defs13" />
  <g
     id="features"
     style="fill:#bdcfff;fill-opacity:0.363914"
     transform="translate(-45.25,-43.350109)">
    <path
       d="m 623.9,153.9 0.1,1.6 v 2 l 0.4,1 0.6,0.8 0.8,1.7 0.2,1 v 0.9 l -0.1,0.6 -0.6,1.2 -0.9,1.7 -0.4,1.1 -0.5,3.3 0.2,0.7 1,0.9 0.4,1.1 v 1.3 l -0.3,0.9 -0.6,0.7 -2.2,2 -0.9,1.1 -0.6,0.5 -0.6,0.3 -0.6,0.5 -0.7,0.9 -0.8,1.5 -0.7,0.7 -0.7,0.3 -1.3,-0.1 -0.6,0.2 -0.6,0.4 -0.5,0.7 0.2,0.7 0.5,1.4 0.2,1.3 0.3,0.6 0.3,0.7 0.2,0.9 -0.2,0.8 -0.3,0.9 v 0.7 l 0.3,0.9 0.1,1 -0.3,0.6 -1.2,1 -0.4,0.9 0.1,0.8 0.3,0.8 1.2,1.9 0.3,1.1 -1.2,0.3 -0.6,0.4 -0.3,0.6 -0.3,0.7 0.9,0.5 0.5,1.3 -0.1,2.4 -0.2,0.7 -0.3,0.8 -0.3,0.5 -0.6,0.2 -0.6,-0.2 -1.1,-0.8 -0.5,-0.1 -0.7,0.2 -0.7,0.5 -0.6,0.1 -0.6,-0.1 -1.8,-1.2 -0.6,-0.3 -0.8,-0.2 H 603 l -0.8,0.5 -0.4,0.5 v 0.6 l 0.1,0.6 v 0.6 l -0.2,0.4 -0.4,0.2 -3.9,0.5 -5.2,1.5 -2.2,1.2 -1.1,0.9 0.1,0.7 0.7,1.4 0.2,0.7 0.1,0.7 0.2,4.1 0.1,0.6 0.2,0.6 0.2,0.4 0.6,0.1 h 0.5 l 0.5,0.3 0.4,0.4 0.3,0.6 0.5,0.5 1.1,0.6 0.2,0.4 0.1,0.5 -0.3,0.8 -0.5,0.7 -0.6,0.4 -0.7,0.2 -0.7,0.1 -2.6,-0.5 -0.7,0.1 -0.8,0.4 -0.4,0.3 -0.2,0.4 -0.1,0.6 -0.1,0.6 0.1,0.6 0.3,1.3 v 0.7 l -0.2,0.8 -0.5,1 -0.6,0.8 -0.4,0.4 -0.9,0.6 -0.2,0.6 v 0.4 0.5 l 0.1,0.3 0.1,0.4 0.5,0.4 0.6,0.1 2,-0.2 h 0.6 l 0.6,0.1 0.5,0.3 0.4,0.5 v 0.9 l -0.3,0.6 -0.5,0.5 -0.6,0.4 -1.1,1.1 -0.7,1.3 -1.1,0.7 -0.7,0.7 -0.3,0.7 -0.2,0.9 -0.5,0.8 -3.9,3.8 -0.5,0.8 -0.7,1.2 -0.9,2 -1.7,0.3 -0.9,-0.1 -1,-0.4 -2.2,-1.7 -0.6,-0.9 -0.1,-0.7 -0.1,-1.1 -0.2,-1.5 -0.3,-0.5 -0.4,-0.4 -0.5,0.1 -1,0.6 -0.7,-0.2 -8.9,-8 -0.5,-0.6 -0.2,-0.8 v -0.4 l 0.2,-0.6 0.2,-0.6 0.2,-0.9 -0.1,-0.9 -0.9,-2.2 -0.6,-0.8 -0.5,-0.6 -3.8,-1.2 -1.4,1 -0.7,0.3 -1,-0.1 -0.8,0.1 -0.9,0.4 -1,0.9 h -0.5 l -0.9,-0.7 -0.6,-0.3 -1,0.4 -4.8,0.9 -3.4,-1 -0.6,-0.1 -0.6,0.1 -0.7,0.6 -0.3,0.5 -0.4,0.4 -0.4,0.2 h -0.7 l -0.6,-0.3 -0.3,-0.2 -0.6,-0.6 -0.5,-0.2 -1.3,0.5 -0.7,0.1 -0.7,-0.6 -1.1,-1.2 -1.5,-0.3 -2.7,1.2 -1.3,-1.1 -0.6,-0.8 -0.2,-0.5 -0.4,-0.4 -0.5,-0.3 -1,0.5 h -0.6 l -10.8,-6 -1,-0.4 -1.1,0.4 -2.1,1.3 -0.9,0.1 -0.9,-0.2 -3.9,-1.8 -1.5,-0.3 h -1 l -1.6,-0.8 -0.8,-0.6 -0.4,-0.6 -0.5,-0.4 -0.6,-0.1 -0.9,0.3 -0.7,0.5 -2.7,2 -0.9,0.4 -1.2,0.3 -2.9,0.1 -2.2,0.6 -1.1,-0.5 -1.8,-0.3 -2.9,-0.9 -1.9,-0.1 -0.7,-0.1 -0.7,-0.2 -0.8,-0.6 -0.4,-0.7 -0.2,-1 -0.2,-0.7 -0.9,-0.9 -0.3,-1.2 -0.1,-0.6 V 221 l 0.8,-1.3 0.7,-0.4 0.6,-0.1 0.6,0.3 0.5,0.6 0.8,1 0.1,0.2 0.2,0.1 0.4,0.2 0.5,-0.1 0.3,-0.2 0.1,-0.1 0.1,-0.1 -0.4,-1.6 -1.7,-4.1 -1.8,-6.8 -0.2,-2.7 v -1.2 l 0.2,-1.2 0.6,-1.4 0.5,-1.3 0.2,-0.4 0.1,-0.2 0.2,-0.1 0.4,-0.1 0.5,-0.5 0.4,-1.1 0.1,-0.9 -0.5,-0.9 -0.6,-0.1 -0.6,0.2 -0.6,0.3 -0.4,0.1 h -0.3 l -0.5,-0.6 -0.2,-1.1 -0.2,-3.2 -0.3,-1.2 -0.3,-1 -0.2,-2.9 v -1.8 l -0.2,-0.7 -0.4,-0.5 -0.1,-0.5 0.4,-0.6 1.2,-0.7 0.7,-0.6 0.7,-1.1 0.3,-0.9 -0.3,-0.8 h -0.6 l -0.6,0.1 -0.7,0.3 -0.6,0.2 -0.6,-0.1 -0.1,-0.8 0.4,-1.2 2.1,-3.4 0.6,-0.7 1.1,-0.6 0.5,-0.7 -0.1,-1 -0.2,-0.7 -0.5,-1.4 -1.3,-2.1 -0.6,-1.4 -0.9,-3.8 -0.9,-1.3 -10.2,-10.8 -8.9,-6.3 1.1,-0.9 3.3,-4.1 0.7,-0.6 0.6,-0.8 1.3,-5.1 2.2,-2.9 2.1,-0.3 6.1,3 h 0.6 l 0.5,-0.5 v -0.7 h -0.6 l -0.4,-0.1 -0.4,-0.4 -0.3,-0.8 h 1.3 v -0.7 h -1.2 l -1.3,-0.4 -0.9,-0.8 -0.4,-1.1 -0.6,-1.2 -2.7,-1.3 -0.6,-0.8 0.1,-3.1 0.5,-3.8 1.3,-2.6 1.4,0.3 1,0.2 v -0.6 l -3.4,-2.7 v -0.7 l 1.1,-3.2 0.1,-4.6 0.3,-4 1.9,-1.4 -1.7,-2.6 -0.3,-1.4 -0.3,-4.6 -0.6,-4.1 -0.1,-2 0.3,-1.8 1.3,-3.8 0.8,-1.5 0.3,-1.8 -0.4,-2.3 -1,-3.6 -0.1,-1.4 -0.1,-0.5 1.5,-1.2 0.6,-0.2 1.3,-0.1 1.1,-0.5 1.1,-1 1.8,-2.5 1.9,-1.8 11.8,-5.2 1.1,0.2 2.2,-1.2 5.5,-0.8 4.4,-0.5 10.6,-3.5 0.7,-0.4 h 0.5 l 3.7,0.4 5,-1.3 2.5,-1.2 1,-0.6 v -0.1 l 0.9,2.3 0.6,4.3 0.7,1.9 2.2,2.5 0.9,1.5 0.2,1.9 -0.3,0.6 -1.4,1.5 -0.4,0.8 1.2,4.4 -0.1,0.6 -0.4,1.1 -0.1,0.4 0.2,0.4 0.7,0.3 0.3,0.4 0.6,1.2 0.3,0.6 0.4,0.2 0.9,0.2 h 0.6 l 1.1,-0.2 0.6,0.1 0.8,0.4 0.3,0.6 0.2,0.6 0.4,0.8 2.3,2.2 0.4,0.6 0.8,2 0.3,0.6 1.2,1 4.9,2.2 0.3,0.2 1,0.2 0.8,-0.6 1.9,-3.3 1.1,-1.2 1.4,-0.9 3.2,-1 5,-1.6 1.6,0.5 1,1 1,1.9 0.9,1.5 0.8,1.9 0.5,0.6 0.8,0.1 0.9,0.3 0.5,0.9 0.7,2.3 -0.9,1.6 0.5,2.8 1.6,5.5 0.1,3.1 0.3,1.1 1,1.3 0.8,0.6 2.7,1.4 1.1,0.3 1.5,-0.1 2.7,-1 0.9,-0.7 0.6,-0.6 0.6,-0.4 0.9,-0.1 0.9,0.3 0.4,0.5 -0.1,0.8 -0.6,1.1 0.8,0.5 4,0.1 1.4,0.3 1.3,0.6 1.2,1.2 1,1.9 0.6,3.7 v 4.5 l 0.5,4 2.2,2 0.2,-0.6 h 0.1 l 0.1,0.1 0.3,-0.2 0.2,-0.3 0.2,-0.8 1.2,-1.9 0.5,-0.6 0.8,-0.3 2.7,-0.2 2.6,0.3 1.2,0.6 1.1,0.8 1.1,0.5 h 1.4 l 3.9,-1.7 1.4,-0.1 1.2,0.6 2,2.3 1.3,0.7 1.3,1.2 1.7,3.6 1.1,0.6 0.5,-0.5 -0.1,-0.7 v -0.6 l 0.8,-0.3 0.6,0.2 0.8,0.5 0.8,0.7 0.4,0.6 -0.2,1 -0.6,0.7 -1.5,1.2 -0.6,0.9 -0.3,0.8 -0.3,1.8 -1.2,3.8 -0.2,1.8 0.9,0.4 1.2,-0.5 0.7,-0.1 0.6,0.3 1.1,4.1 0.3,0.9 0.5,0.8 -0.1,0.6 -1.4,0.8 -1.5,1 -1.1,1.1 -0.5,0.5 -0.3,0.7 -0.2,1.2 0.3,0.1 0.3,1.5 0.1,1.4 -0.5,-0.1 3.5,1.9 0.8,0.3 z"
       id="FRHDF"
       name="Hauts de France"
       style="fill:#bdcfff;fill-opacity:0.363914" />
    <path
       d="m 805,385.3 0.2,-1 0.3,-0.8 v -0.5 -0.5 -0.6 l -0.1,-0.6 -0.4,-0.8 -0.5,-0.8 -3.4,-3.8 -0.8,-0.4 -0.6,-0.1 h -0.6 -0.6 l -0.5,-0.3 -0.4,-0.6 v -0.7 -0.5 l 0.2,-0.4 1.1,-1.5 0.3,-0.6 0.3,-0.6 0.1,-0.7 0.2,-0.6 v -0.6 -0.6 l -0.2,-2.1 -0.3,-1.2 -0.7,-0.8 -1,-1 -8.7,-5.1 -0.4,-0.6 -0.4,-0.5 v -1.5 l -1.7,-0.2 -0.4,-0.3 -4.6,-3.5 -1.3,-1.3 -0.8,-0.5 -1.9,-0.7 -0.7,-0.6 -0.6,-0.6 -1.2,-1.7 -1.2,-1.3 -0.8,-0.5 -0.6,-0.1 -0.5,0.4 -0.3,0.5 -0.6,1.1 -0.4,0.6 -0.5,0.5 -0.7,0.4 -0.8,0.2 -0.9,0.1 h -1.2 l -0.8,-0.2 -0.4,-0.2 -5.4,-3.5 -2.4,-1 -3.2,0.3 -1.1,0.4 -0.7,0.6 -0.6,0.4 -0.9,0.3 h -1.5 l -1,-0.5 -0.9,-0.7 -1.1,-0.3 -0.6,-0.4 -0.2,-0.5 0.1,-1.2 -0.1,-0.6 -0.4,-0.7 -0.6,-0.7 -1.2,-0.9 -3,-0.6 -1,0.1 -0.7,0.3 -0.5,0.4 -0.6,0.8 -1.2,1.7 -0.5,0.5 -1.5,1 -0.7,0.8 -0.5,0.4 -0.7,0.3 -0.3,-0.4 -0.1,-0.5 0.2,-1.2 V 341 l -0.1,-0.5 -0.3,-0.4 h -0.4 l -0.4,0.3 -0.3,0.4 -1.1,2.2 -0.2,0.4 -0.7,0.6 -1.2,0.4 0.4,1.3 -0.1,0.4 -0.3,0.5 -0.5,0.2 -0.7,0.2 -0.7,0.3 -0.5,0.7 -1.2,2.1 -0.8,0.7 -6.5,4.7 -0.7,1.1 -0.3,0.8 0.6,1.5 v 1.1 l -0.3,1.7 -0.2,1.1 v 0.9 l 0.1,0.8 0.1,0.9 -0.2,1.1 -0.5,0.7 -0.6,0.4 -6,2.1 -0.6,0.1 h -0.7 l -0.6,-0.3 -3.4,-2 h -1.1 l -1,0.4 -1.4,0.3 h -0.7 l -0.7,0.3 -0.5,0.5 -0.4,0.7 -2,4.6 -0.2,0.7 -0.4,0.3 -0.4,0.3 -0.5,-0.1 -0.3,-0.7 -0.4,-0.4 -0.5,-0.1 -0.5,0.3 -1.8,1.4 -0.6,0.1 -0.5,-0.2 -0.4,-0.9 -0.2,-1.3 -0.2,-0.4 -0.3,-0.3 -0.7,-0.3 -1.6,-0.9 -1.1,-1 -0.6,-0.7 -0.2,-0.6 v -0.6 l -0.2,-0.5 -0.5,-0.4 -0.7,0.1 -0.4,0.4 -0.4,0.5 -0.2,0.5 -0.4,0.5 -0.4,0.4 -0.6,0.2 -0.6,0.1 -0.6,-0.1 -0.6,-0.3 -1.2,-0.8 -0.7,-0.6 -0.6,-0.9 -1,-1.7 -0.6,-0.8 -0.7,-0.1 -0.4,0.3 -0.7,1 -0.3,0.2 -0.5,0.2 -0.6,-0.1 -0.6,-0.5 -0.5,-1.2 -0.2,-0.8 -0.4,-2.7 v -0.5 -0.1 l -0.5,-0.7 -0.6,-0.7 -0.3,-0.7 0.1,-0.8 0.4,-0.4 0.6,-0.2 1.2,-0.1 0.6,-0.1 0.5,-0.4 0.2,-0.5 V 356 l -0.2,-0.6 -1.2,-2.6 -1.3,-2.3 -3.2,-4.1 -0.7,-0.1 -0.3,0.3 -0.5,0.9 -0.4,0.3 h -0.5 l -0.4,-0.4 -0.4,-0.8 0.1,-0.7 0.2,-0.6 0.6,-1.1 0.2,-0.4 v -0.4 l -0.3,-0.4 -0.5,-0.5 -2.2,-0.8 -0.7,-0.4 -0.2,-0.7 0.6,-1 -0.2,-0.6 -0.7,-0.5 -3.8,-0.8 -2,-1.5 -1.8,1 -0.7,0.2 h -1 l -2,-0.6 h -0.8 l -0.9,0.4 -1.2,1.2 -0.3,0.8 v 0.8 l 0.1,0.6 -0.4,0.4 -0.7,0.4 -13.4,1.8 -2.3,2 h -0.7 l -0.6,-0.3 -0.7,-0.7 -1.1,-1.4 -0.9,-1.7 -0.4,-0.4 -0.3,0.2 -0.1,0.5 v 0.5 0.6 0.6 l -0.1,0.5 -0.4,0.2 -0.5,-0.2 -0.6,-0.6 -0.6,-0.5 -0.8,-0.1 -0.6,0.4 -0.4,0.4 -0.3,0.6 -0.3,0.4 -0.6,0.2 -0.6,0.1 -1.3,-0.1 -1.2,-0.4 -0.6,-0.1 -0.5,0.2 -0.8,0.9 -0.5,0.3 -0.6,0.1 -0.5,-0.2 -1,-0.5 -0.4,-0.1 -0.4,-0.1 -2.4,0.3 -1.7,-0.2 -0.5,-0.3 -0.5,-0.5 -0.3,-0.8 v -0.7 l 0.1,-1.9 -0.1,-0.5 -0.3,-0.4 -0.7,-0.1 -1.2,0.4 h -0.6 l -1.2,-0.7 -0.5,-0.3 -0.1,-0.5 0.1,-0.2 0.3,-0.3 1,-0.2 0.4,-0.3 v -0.5 l -0.3,-0.6 -4.4,-7.7 -1,-1.4 -0.9,-0.8 -0.3,-0.7 -0.2,-0.7 -0.2,-0.7 -0.5,-0.6 -0.9,-0.4 -0.6,0.1 -0.3,0.5 -0.1,0.5 -0.3,0.4 -1.1,0.3 -0.8,-0.1 -1.1,-0.7 -1.9,-1.7 -2.2,-1.1 v -0.6 l 0.3,-0.6 1.1,-1 0.4,-0.6 0.1,-0.5 v -0.6 l -0.3,-1.4 -0.1,-0.5 0.1,-0.7 -0.1,-0.6 -0.4,-0.9 -0.8,-1.2 -4,-5.4 -0.8,-0.8 -1,-0.9 -2,-1.1 -1,-0.1 -1.1,0.3 -0.4,-0.3 -0.2,-1 -0.1,-0.8 -0.2,-1.2 -1.1,-0.9 -0.2,-0.9 0.2,-1.1 0.3,-1.1 0.1,-0.5 v -0.3 l -0.7,-1.4 0.1,-0.6 0.3,-0.6 1.3,-1.1 0.2,-0.5 -0.1,-0.3 -0.6,-1.1 -0.3,-0.6 0.1,-0.5 0.3,-0.2 1,-0.3 h 0.7 l 0.8,-0.3 0.6,-0.6 0.5,-1.1 0.4,-1.7 1.1,-1.7 2.7,-2.4 -1.3,-1.8 -0.5,-0.8 -0.4,-0.2 h -0.4 l -1.1,0.4 -0.6,0.1 -0.5,-0.4 -0.2,-0.7 -0.1,-1.1 0.5,-2.2 -0.1,-1 -0.3,-1.5 -0.1,-0.6 -0.2,-0.6 -0.3,-0.5 -0.5,-0.4 -0.5,-0.4 -0.3,-0.7 -0.2,-0.3 -0.1,-0.1 h -0.3 l -0.7,0.1 -0.4,-0.1 v -0.1 l -0.2,-0.2 v -0.6 l 0.2,-1 0.5,-0.7 0.8,-0.7 0.4,-0.5 -0.1,-0.5 -0.8,-0.7 -0.3,-0.5 0.2,-0.4 0.7,-0.2 h 2.1 l 0.6,-0.2 0.4,-0.5 0.3,-0.6 0.1,-2 0.9,-2 0.7,-1.2 0.5,-0.8 3.9,-3.8 0.5,-0.8 0.2,-0.9 0.3,-0.7 0.7,-0.7 1.1,-0.7 0.7,-1.3 1.1,-1.1 0.6,-0.4 0.5,-0.5 0.3,-0.6 v -0.9 l -0.4,-0.5 -0.5,-0.3 -0.6,-0.1 h -0.6 l -2,0.2 -0.6,-0.1 -0.5,-0.4 -0.1,-0.4 -0.1,-0.3 v -0.5 -0.4 l 0.2,-0.6 0.9,-0.6 0.4,-0.4 0.6,-0.8 0.5,-1 0.2,-0.8 v -0.7 l -0.3,-1.3 -0.1,-0.6 0.1,-0.6 0.1,-0.6 0.2,-0.4 0.4,-0.3 0.8,-0.4 0.7,-0.1 2.6,0.5 0.7,-0.1 0.7,-0.2 0.6,-0.4 0.5,-0.7 0.3,-0.8 -0.1,-0.5 -0.2,-0.4 -1.1,-0.6 -0.5,-0.5 -0.3,-0.6 -0.4,-0.4 -0.5,-0.3 h -0.5 l -0.6,-0.1 -0.2,-0.4 -0.2,-0.6 -0.1,-0.6 -0.2,-4.1 -0.1,-0.7 -0.2,-0.7 -0.7,-1.4 -0.1,-0.7 1.1,-0.9 2.2,-1.2 5.2,-1.5 3.9,-0.5 0.4,-0.2 0.2,-0.4 v -0.6 l -0.1,-0.6 v -0.6 l 0.4,-0.5 0.8,-0.5 h 1.5 l 0.8,0.2 0.6,0.3 1.8,1.2 0.6,0.1 0.6,-0.1 0.7,-0.5 0.7,-0.2 0.5,0.1 1.1,0.8 0.6,0.2 0.6,-0.2 0.3,-0.5 0.3,-0.8 0.2,-0.7 0.1,-2.4 -0.5,-1.3 -0.9,-0.5 0.3,-0.7 0.3,-0.6 0.6,-0.4 1.2,-0.3 -0.3,-1.1 -1.2,-1.9 -0.3,-0.8 -0.1,-0.8 0.4,-0.9 1.2,-1 0.3,-0.6 -0.1,-1 -0.3,-0.9 v -0.7 l 0.3,-0.9 0.2,-0.8 -0.2,-0.9 -0.3,-0.7 -0.3,-0.6 -0.2,-1.3 -0.5,-1.4 -0.2,-0.7 0.5,-0.7 0.6,-0.4 0.6,-0.2 1.3,0.1 0.7,-0.3 0.7,-0.7 0.8,-1.5 0.7,-0.9 0.6,-0.5 0.6,-0.3 0.6,-0.5 0.9,-1.1 2.2,-2 0.6,-0.7 0.3,-0.9 v -1.3 l -0.4,-1.1 -1,-0.9 -0.2,-0.7 0.5,-3.3 0.4,-1.1 0.9,-1.7 0.6,-1.2 0.1,-0.6 V 162 l -0.2,-1 -0.8,-1.7 -0.6,-0.8 -0.4,-1 v -2 l -0.1,-1.6 3.8,-0.5 9.3,2.5 0.5,0.2 1.8,-0.4 8.6,-4.3 2.6,-0.4 0.7,-0.4 0.5,-1.1 0.5,-1.5 0.5,-3.1 -0.1,-0.7 -0.2,-0.5 -0.2,-0.5 0.2,-1 0.3,-0.7 6.6,-6.7 1.7,-0.8 0.3,1.4 0.7,0.3 1.9,-0.4 0.6,0.8 -0.1,1.7 -0.3,1.9 -0.2,1.7 -0.6,-0.7 -0.4,0.1 -1.2,2.6 v 0.8 l 0.1,0.8 -0.1,1.1 -2.4,5.9 -0.2,1.6 0.8,1.3 2.9,1.2 1,1.8 0.1,1.2 -0.2,0.9 -0.3,0.8 -0.3,1.1 -0.2,0.5 -0.6,0.7 -0.1,0.6 0.1,0.4 0.6,1.1 0.2,0.5 v 3.6 l 0.5,0.7 1.7,0.3 1.3,-0.3 2.7,-0.9 1.2,-0.1 h 0.1 l 1.1,0.7 2.3,2.2 1.3,0.7 2.2,0.7 0.7,0.7 2.7,3.8 0.9,0.9 1.1,0.9 1.4,0.4 2.8,-0.8 h 1.4 l 1.3,1.2 1.1,1.5 0.5,1.4 -0.3,0.4 -0.5,0.3 -0.2,1.4 0.2,0.8 0.3,0.4 1,0.2 0.4,-0.1 0.4,-0.5 0.2,-0.5 0.2,-0.3 0.4,0.1 0.7,0.4 1.9,0.7 0.5,0.4 0.7,0.6 3,5.5 0.2,0.8 v 1 l -0.2,0.9 v 0.9 l 0.3,0.8 1.4,0.4 1.6,-1 1.5,-1.2 1.2,-0.5 1.9,0.9 0.6,0.1 0.9,-0.1 0.2,-0.4 0.1,-0.7 0.8,-1 1.5,-0.8 1.4,0.4 1.3,0.6 1.4,0.3 0.7,-0.4 0.8,-1 0.7,-0.4 0.7,0.1 1.3,0.8 0.7,0.2 2,2.6 1.1,1 1.5,0.8 4,0.9 1.1,1.2 0.9,2.7 1,-0.4 5.3,-0.3 0.9,-0.3 0.1,-0.1 0.5,-0.8 0.7,-0.3 h 0.1 v -0.1 l 0.1,-0.4 v -0.6 l 0.3,-0.6 0.5,-0.2 1.7,-0.2 -0.4,-0.8 1.5,-0.2 2.1,-0.2 1.7,0.2 1.7,0.6 0.1,0.1 3,2.2 1.6,0.9 1.3,0.2 h 0.5 l 0.6,-0.1 0.2,-0.1 0.3,-0.2 0.7,-0.5 0.5,-0.2 0.7,0.1 5.7,2.9 1.1,1 0.3,0.8 0.2,0.8 v 0.5 h -0.1 l 0.4,0.7 3,3.2 0.2,0.5 -0.2,0.8 -1.1,0.1 -0.4,0.8 0.4,1.1 1.1,1.3 4.1,4 0.1,0.4 -0.2,0.9 0.1,0.4 0.3,0.3 0.9,0.3 0.3,0.3 0.5,1.7 0.2,0.4 v 0.2 l 0.1,0.8 0.2,0.3 h 0.3 l 0.8,-0.6 h 0.3 l 0.4,1.5 -0.4,1.2 -0.1,1.2 0.8,1.3 0.7,0.3 h 2.7 l 2.5,0.9 0.7,-0.1 1.1,-1.5 -0.2,-1.5 -0.5,-1.6 0.4,-1.3 0.6,-0.1 2.6,0.6 1.8,-0.2 0.7,0.1 3.8,2.2 h 1.4 l -0.1,3.4 0.7,2.6 1.4,1.1 1.9,-1.2 0.1,-0.5 -0.2,-0.5 -0.1,-0.5 0.6,-0.6 h 0.4 l 2.3,1.8 1,0.5 1,0.3 5.3,0.1 1.7,0.7 0.3,0.1 0.4,-0.4 0.7,-1.3 0.4,-0.5 0.5,-0.2 1.3,-0.1 0.4,-0.3 0.4,-0.5 0.4,-1.4 0.3,-0.4 1,-0.6 0.3,-0.1 1.2,-0.3 1.2,0.1 0.2,1 2.7,0.2 1.1,0.4 0.4,1.4 -0.4,0.3 -0.2,0.2 -0.1,0.3 0.9,0.9 1.4,2.3 0.8,1 1.3,0.9 2.8,0.5 1.3,0.7 0.5,0.5 0.6,1.3 0.6,0.5 0.6,0.1 h 0.2 l 0.8,-0.1 0.7,-0.4 0.8,-0.1 0.6,0.1 1.4,0.5 0.6,0.1 0.7,-0.2 1.5,-0.8 0.6,-0.2 5.2,1.5 3.5,-0.4 1.1,0.1 9.8,5.3 6.1,1.2 0.7,0.7 v 0.1 l -1.3,1.4 -1.9,3.7 -2.8,7.7 -0.8,1.3 -0.3,0.4 -2.3,1.2 h -0.6 l -0.1,0.2 -0.3,0.3 -0.3,0.5 -0.1,0.9 -0.1,0.5 -0.4,0.3 -0.5,0.2 h -1.7 l -0.7,0.3 -0.3,0.8 -0.1,1.8 -0.3,0.7 -0.6,0.9 -0.9,0.8 -0.7,0.5 -1.7,2 -0.9,0.8 -1.1,0.4 -0.7,0.5 -2.6,4.1 -0.5,3 v 3.3 l 0.7,2 v 0.6 l -1.5,1.2 -0.8,0.8 -0.3,0.9 -0.1,1.7 -0.3,0.9 -0.4,0.6 -0.5,0.9 -0.3,1.1 -0.4,2.5 -0.1,1.2 0.2,1.1 0.4,1.2 0.3,1.2 -0.1,1.3 -0.8,1.4 -1.2,0.6 -1,0.8 -0.4,2 -0.1,1.9 -0.4,1.6 -0.7,1.3 -3.9,5.5 -0.4,1.1 -0.1,1.4 -0.3,0.7 -0.4,0.6 -0.5,0.8 -0.2,0.8 -0.2,0.6 -0.4,1.8 0.2,3.8 2.7,4.8 0.1,2.8 -0.6,1.2 -1.6,1.7 -0.4,1.2 0.1,1.5 -0.1,0.5 -0.4,0.9 -0.2,0.4 -0.5,0.4 -0.1,0.4 -0.1,0.4 v 0.3 l 0.1,0.2 v 0.4 l 0.3,1.7 -0.2,1 -0.8,0.5 -0.3,0.4 -0.9,3 -0.2,1.3 0.8,3.2 -0.1,1.5 -0.3,0.6 -1,1.1 -0.3,0.6 0.2,2 0.2,1 0.3,0.4 0.9,0.5 0.8,1.1 1.4,2.8 0.4,0.5 0.4,0.3 0.3,0.5 0.1,0.9 -0.1,0.3 -0.3,1 -2.2,0.8 -1.5,0.8 -0.3,0.3 -2.4,1.9 0.2,0.1 1,0.8 h 0.2 v 0.9 l -0.2,0.5 -0.5,0.2 -0.7,-0.1 -0.3,0.1 -0.1,0.3 0.1,0.4 0.5,0.6 v 0.2 0.1 0.2 l -0.1,0.3 -0.1,0.1 -0.9,0.9 -0.8,-0.1 -0.5,-0.4 -0.3,-0.2 -1,-0.3 -0.7,0.2 v 0.6 l 0.3,0.5 0.2,0.3 0.3,0.4 0.1,0.5 -0.2,0.9 -0.3,0.4 -0.9,1.2 -1.1,0.4 -0.6,0.3 -2.6,-0.2 h -1.7 l -1.6,0.3 -2.4,1 -0.4,0.1 -0.5,-0.2 -0.2,-0.3 -0.2,-0.3 -0.3,-0.2 -1.8,-0.6 -1.3,-0.8 -0.4,-1.5 1.2,-2.6 -1.7,0.2 z"
       id="FRGES"
       name="Grand Est"
       style="fill:#bdcfff;fill-opacity:0.363914" />
    <path
       d="m 623.3,741 1.6,-1 0.6,-1.3 0.2,-0.8 0.1,-0.3 v -0.1 h 0.1 l 0.1,-0.1 0.3,-0.2 h 0.6 l 0.5,-0.3 0.4,-0.5 0.5,-0.4 1.4,-0.2 0.7,-0.4 1,-0.6 2.5,-2.2 0.3,-0.1 1.1,-0.3 0.3,-0.1 0.2,-0.3 v -0.6 l 0.1,-0.3 0.2,-0.3 0.5,-0.3 0.3,-0.1 1.1,-0.1 h 0.3 l 0.3,-0.3 0.3,-0.5 0.3,-1.1 v -0.5 l -0.2,-0.2 h -0.6 -0.3 l -0.4,-0.1 -0.2,-0.1 -0.2,-0.2 -0.2,-0.2 v -0.3 l 0.2,-0.3 0.5,-1.1 0.2,-0.5 0.2,-0.8 0.3,-0.6 1.6,-2.3 1.4,-1.1 1.6,-0.5 0.3,-0.1 h 0.3 0.3 l 2,0.7 0.5,0.3 0.5,0.3 0.2,0.1 0.3,0.1 h 0.3 0.2 l 0.2,-0.2 0.3,-0.5 0.2,-1 0.1,-0.5 v -0.5 l -0.1,-0.2 -0.1,-0.3 v -0.3 l 0.1,-0.4 1.1,-2.3 0.7,-2.3 0.2,-0.9 v -0.6 -0.6 l -0.3,-1.8 -0.1,-0.3 -0.1,-0.6 -0.1,-1 0.1,-0.7 0.4,-0.4 0.7,-0.6 1.9,-1.1 2.3,-1.9 0.8,-0.4 2.1,-0.9 0.4,-0.4 0.1,-0.2 0.4,-0.3 0.8,-0.5 0.3,-0.3 0.4,-0.5 0.4,-0.5 0.1,-0.3 0.1,-0.4 v -0.3 l -0.1,-1.3 v -0.5 -0.2 -0.1 l 0.3,-0.1 h 0.2 l 0.3,0.1 h 0.1 l 0.3,0.1 0.2,-0.1 h 0.1 0.1 v -0.1 l 0.1,-0.1 0.1,-0.2 v -0.3 -0.4 l -0.1,-0.4 -0.2,-0.4 -1.2,-1.3 -2.9,-4 -0.3,-0.3 -0.4,-0.2 -0.4,-0.1 h -0.7 -0.3 l -0.2,0.1 -0.5,0.3 h -0.2 l -0.2,-0.2 -0.2,-0.5 -0.3,-2.6 0.1,-0.4 v -0.3 l 0.1,-0.3 0.1,-0.3 0.1,-1.1 v -0.7 l -0.2,-2.6 -0.2,-0.3 -0.2,-0.5 -0.6,-0.5 -0.7,-0.5 -0.3,-0.3 -0.1,-0.4 v -0.7 l 0.1,-0.4 -0.1,-0.3 -0.1,-0.4 -0.5,-0.6 -0.7,-0.9 -0.5,-2.1 -0.1,-3.9 1.8,-0.2 h 1.9 l 1.7,0.3 0.4,0.2 0.5,0.3 0.9,0.8 0.5,0.7 0.3,0.6 1.4,4 0.3,0.6 0.5,0.4 0.6,0.1 0.8,-0.2 0.6,-0.3 1.2,-0.9 0.5,-0.3 0.6,-0.2 1.7,-0.2 0.5,-0.1 1.2,-0.5 1.2,-0.7 1.2,-0.5 4.2,-1.2 h 0.8 l 2.8,0.7 1,-0.1 0.7,-0.3 0.9,-0.9 0.4,-0.4 0.5,-0.1 0.3,0.3 0.1,0.7 -0.2,0.6 -0.5,1.2 -0.1,0.6 0.1,1.3 v 0.6 l 0.3,0.6 0.6,0.6 0.9,0.4 1.9,0.4 1.1,-0.1 0.9,-0.2 h 0.9 l 4.3,1.6 0.8,0.1 h 0.6 l 0.6,0.2 0.5,0.3 0.4,0.8 0.2,0.7 0.1,0.7 0.2,0.6 0.3,0.6 0.6,0.5 1.1,0.5 2.2,2 0.6,0.3 2.1,0.2 1.9,-1.2 1.8,-1.8 0.8,-1.1 0.8,-0.7 0.8,-0.3 1.4,0.3 0.7,0.5 0.3,0.5 0.1,0.6 0.3,0.5 0.4,0.3 0.5,0.1 0.4,-0.2 0.3,-0.5 -0.3,-2.1 0.5,-0.8 0.2,-0.3 0.2,-3.4 -0.1,-2.2 -0.3,-0.7 -0.5,-0.4 -1,-0.4 -0.4,-0.4 -0.8,-1 -0.4,-0.5 -0.3,-0.4 -0.1,-0.6 0.4,-0.7 0.2,-0.6 -0.3,-0.4 -0.5,-0.2 h -0.5 l -2.9,0.2 -0.5,-0.2 -1.1,-0.7 -0.6,-0.2 -1.2,-0.2 -0.4,-0.2 -0.3,-0.1 -2.4,-1.9 -0.2,-0.5 -0.1,-0.4 -0.1,-0.8 -0.1,-0.5 -0.4,-0.6 -0.9,-1 -0.2,-0.5 0.1,-0.5 0.7,-0.3 h 0.6 l 1.7,0.5 h 0.5 l 0.5,-0.1 0.3,-0.3 0.2,-0.3 v -0.6 l -0.2,-0.3 -0.3,-0.3 -0.5,-0.3 -0.4,-0.4 -0.4,-0.5 -0.2,-0.5 -0.1,-0.7 -0.1,-0.6 0.1,-0.5 0.3,-0.3 0.8,-0.2 h 0.6 l 1.9,0.3 3.8,1.4 0.6,0.1 0.7,-0.2 2.7,-2 0.5,-0.6 -0.1,-1 -0.3,-0.6 -0.4,-0.5 -1.6,-1.1 -0.4,-0.5 -0.2,-0.4 -0.2,-0.5 0.1,-0.5 v -0.4 l 0.4,-0.6 1.8,-2.8 0.4,-1.1 0.2,-0.9 v -0.6 l 0.2,-0.6 0.9,-0.3 h 0.7 0.6 l 0.7,0.2 1.2,0.1 0.7,-0.1 0.7,-0.3 1.1,-0.5 1.8,-0.2 0.5,-0.3 0.9,-1 0.5,-0.6 0.3,-0.6 0.1,-0.6 -0.1,-0.6 -0.7,-0.5 -0.3,-0.8 1.5,-2.6 0.5,-0.7 0.8,-0.3 0.6,-0.1 1.9,0.1 1.3,-0.2 2.4,-0.8 0.5,-0.5 0.4,-0.5 0.1,-0.9 -0.3,-0.6 -0.1,-0.7 0.3,-0.6 1.5,-1.2 1,-0.6 0.6,-0.3 0.6,-0.1 0.5,0.1 1.1,0.4 h 0.5 l 0.7,-0.2 3.2,-2.2 0.6,-0.2 h 0.6 l 1.1,0.4 0.6,0.1 1.9,-0.4 h 0.5 l 1.2,0.1 h 0.6 l 2,-0.9 0.6,-0.2 h 0.6 l 0.6,0.1 2.2,0.8 0.5,0.1 0.5,-0.1 0.3,-0.4 0.2,-0.5 0.1,-1.3 0.2,-2.5 -0.2,-0.7 -0.2,-0.7 -0.7,-1 -0.6,-0.6 -0.5,-0.7 -0.2,-0.7 v -1.9 l -0.1,-0.8 -0.3,-0.6 -0.6,-0.5 -0.6,-0.2 -2.9,0.6 -0.8,-0.1 -0.6,-0.1 -0.6,-0.3 -0.2,-0.9 V 605 l 0.6,-3.1 0.1,-1.5 0.3,-1.2 0.2,-0.5 1.5,-1.7 1,0.9 0.6,0.2 1,0.1 h 1.4 l 1.6,0.3 0.8,0.5 0.5,0.6 0.3,1.2 0.2,0.5 0.5,0.5 4,1.5 0.7,-0.1 0.6,-0.3 1,-1.1 0.3,-0.9 0.2,-0.7 0.1,-0.6 0.3,-0.5 0.6,-0.2 h 1.8 l 0.7,-0.1 2.3,-1.4 1.9,-0.3 -0.9,0.8 -0.7,1 1.1,1.7 1,0.8 0.1,0.7 -0.1,0.7 0.2,0.8 0.7,1.2 0.7,0.6 2.1,0.2 1.7,1.2 0.4,2.5 -0.2,4.9 1.1,1.8 2,1.8 4.3,2.5 1.2,0.3 3,-0.6 1.1,0.1 3.1,1.2 1.1,1.3 0.3,0.4 0.1,0.5 v 0.3 l -0.1,0.2 v 0.4 l -0.1,0.1 -0.3,1.4 v 0.1 l 0.7,1.9 0.3,2.1 0.2,0.8 1.3,2.3 0.6,1.2 0.4,1.2 h -1.1 l -2.3,-0.7 h -1.1 l -1.4,0.8 -1.2,1.4 -0.1,0.8 -0.3,1 0.7,1.8 -0.9,0.7 -2.1,3.7 -3.1,2.4 -0.7,1.2 0.2,2.7 1.4,2.4 1.9,2 1.6,1.3 -2.1,1.2 -0.4,0.7 -0.5,2.7 -0.2,0.6 v 0.4 l 0.2,0.8 0.3,0.4 0.2,0.3 1.1,1.3 0.5,0.9 0.8,1.7 0.3,0.7 0.6,0.5 1.2,0.9 0.5,0.7 0.4,0.9 0.2,0.8 0.3,0.7 0.6,0.7 0.8,0.3 0.8,-0.1 0.7,-0.3 h 0.8 l 0.8,0.2 3.7,2 2.4,0.9 6.6,4 1.2,0.5 1.6,0.3 0.8,0.3 0.4,0.6 0.4,0.8 0.6,0.5 0.5,0.2 h 2.5 l 10.8,-3.1 1.8,-0.1 2.5,-1.7 1.9,0.3 -0.8,2.9 0.7,1.6 1.4,1.3 0.7,1.6 0.3,0.5 -0.1,1.5 -0.7,0.9 -0.9,0.7 -0.7,0.8 -0.4,1.1 -0.5,1.9 -0.5,1 -1.4,1.5 -3.2,2.7 -1.2,2 -2.7,3 -1,1.8 0.3,2.1 1.3,4.2 -0.9,0.5 h -0.2 -0.3 l -0.3,0.1 v 0.3 l 0.1,1.1 -0.1,0.3 -0.4,0.3 -0.4,-0.1 -0.5,0.5 -0.5,0.6 -0.6,0.5 -0.7,-1 -1.1,-0.7 -1.2,0.5 -1,1 -0.3,1 -0.1,1 -0.8,0.6 -0.6,0.7 -0.3,0.8 -0.5,1 -0.7,0.1 -1.1,-0.2 -1.3,-0.5 -1.4,0.2 -1,0.6 -0.8,0.9 0.2,0.9 -1.1,1.2 -0.6,0.4 -0.5,-1.1 -1.1,-0.2 -0.8,0.3 -0.8,0.1 -0.5,0.8 -0.5,0.4 -0.2,0.6 -0.4,2.4 0.3,2.3 0.1,0.5 0.2,0.9 0.2,0.7 -0.9,0.6 -0.7,-1.5 -0.6,-0.3 h -1 l -1,0.7 -0.8,0.9 -0.8,0.6 -0.5,0.6 -0.4,-1 h -1 l -1.3,-0.1 -1.1,0.1 -0.9,0.6 -1,1.1 -0.3,1.3 0.6,0.4 H 793 l 0.3,0.3 v 0.3 l -1.3,1.7 -0.5,0.7 -0.3,2 -1.3,0.9 -0.3,0.9 -1.4,0.1 -0.1,-0.5 -0.2,-0.3 -0.2,-0.3 -0.3,0.3 -0.1,0.6 0.2,1.1 -0.8,0.3 -0.7,-0.3 h -1 l -2.3,0.6 -0.6,-0.8 -1,-0.4 -0.6,0.4 -1,0.9 0.1,2.2 -0.9,1.3 v 1.4 l -1.5,0.2 -1.2,0.1 -0.5,1.2 -0.3,0.9 -0.6,0.6 -1.7,1.6 -1.6,1 -0.4,1.3 1.2,0.4 3.8,-1 1.3,0.3 0.3,0.6 -0.8,1.5 -1,0.7 -0.2,1.6 0.4,0.6 0.5,1 -1.2,1 -1.3,0.7 -0.7,0.2 -1.2,0.5 -0.6,-0.1 -0.3,-0.4 -0.1,-0.7 -0.7,0.3 h -1.1 l -1.5,0.2 -0.2,0.8 -0.6,1 -1.3,0.8 -1.7,-0.4 -1.7,0.3 h -1.8 l -1.2,0.5 -1.5,0.9 -0.8,1.5 0.3,1.1 0.3,1.2 h -2 l -0.9,-0.7 -0.2,-0.4 -1.2,-0.4 -1.6,-0.8 -1.6,-0.2 -2.1,0.4 -1.6,0.6 -0.9,0.5 -1,0.9 -0.6,1.7 -0.1,2 1.2,0.5 0.9,-0.2 -0.4,0.8 -1.5,0.2 -3.6,0.2 -0.5,-0.3 0.9,-0.5 1,-0.4 0.8,-0.6 -0.2,-1.6 -1.2,-1.1 -1.1,0.1 -2.9,0.4 H 736 l -0.7,-1.8 -1.5,-0.2 h -2.1 l -1.5,-1 0.2,-0.5 0.1,-0.8 0.1,-0.4 -1,-0.1 -1,0.3 -1.8,0.9 1.1,0.4 0.9,1.9 1,0.5 1.5,0.6 -0.7,0.8 -1.4,-0.1 h -1.8 l -0.8,0.3 -1.2,2 -2.3,-0.7 -1.8,-1.4 -0.5,-0.8 1.3,-0.8 0.9,-0.9 -0.4,-0.6 -0.6,-0.5 -1.1,-0.2 -0.2,-0.7 -0.3,-0.7 -0.9,-0.1 h -1.2 l -2.8,-1.2 -0.5,-1.9 -0.9,-0.9 -0.1,-0.1 -1,-0.4 -1.3,-0.1 -0.7,0.8 -0.7,1.4 -1.5,-0.6 -0.9,-0.1 -0.9,-1.1 -0.7,-1 -0.6,-1.2 -0.8,-0.4 -0.7,0.4 -0.6,0.2 -2.7,-0.3 -1.3,0.1 -1.8,-0.3 -0.9,-0.1 -1.6,0.4 -1.4,-0.7 0.2,-1.5 0.2,-0.8 0.4,-0.9 0.6,-1.4 -0.8,-0.9 -0.1,-0.9 -0.2,-0.5 -0.8,-3.1 -2.8,-1.8 -3.4,2.3 -4.7,-0.1 -2.3,0.3 -3.8,-0.2 -1.9,-0.6 -1.2,-1.9 -0.5,-2.1 1.2,-2.3 2,-1.1 h 5.5 l 1.7,-0.5 1.2,-1 1.2,-1.6 0.8,-1.9 -0.2,-2 -1.8,1.2 -1.7,0.6 -1.6,-0.2 -1.4,-1.6 -0.4,-1.3 v -0.7 l -0.3,-0.5 -1.3,-0.4 -0.5,-0.1 -1.5,0.1 -0.2,-0.3 -0.9,-1.2 -0.4,-0.3 -0.4,0.6 -0.4,1.1 -0.3,1.2 -0.1,0.6 0.3,1.7 0.6,0.7 0.7,0.4 0.9,0.7 0.8,2.2 -0.7,1.9 -1.5,1 -1.8,0.2 -0.9,-0.2 -3.4,-2 -1.6,0.8 -0.6,0.5 -1.5,0.3 -0.6,0.6 -0.5,1.1 0.2,0.5 0.7,1.6 0.1,1 2.1,-0.1 -1.5,1.4 -1.3,0.7 -0.3,-1.4 -1.1,-2 -2.6,-1.5 -2.1,-1.9 -0.9,-2.3 0.1,-5 -0.1,-1.4 -0.4,-1.3 -0.6,-1.5 -0.9,-1.3 -1.1,-0.6 v 0.5 l 1.9,3 0.2,0.9 v 6.1 l 0.9,2.8 1.7,1.8 1.9,1.4 1.4,1.6 -0.2,1.7 -1.8,0.1 -7.8,-0.2 -4.5,-1 -1.6,-1 -0.1,-1.4 1.3,-1.4 0.1,-1.1 -0.5,-1.1 -1.5,-1.1 -2.6,-1.1 -6.4,0.7 z m 125.2,39.4 -0.8,0.4 -0.9,0.3 -0.7,-0.2 -1.5,-0.9 -0.1,-0.4 0.6,-0.3 h 1.8 l 0.5,-0.3 0.2,-0.2 0.2,-0.1 0.2,0.1 0.7,-0.1 0.1,-0.6 0.5,-0.2 0.5,0.7 0.1,1.2 z m -83,-113 -0.3,-0.6 -0.2,-0.7 0.1,-0.8 0.4,-1.3 3.1,-5.2 0.7,-0.7 0.9,-0.4 h 0.9 l 0.8,0.5 2.5,2.6 0.4,0.6 0.3,0.7 v 0.9 l -0.3,0.5 -1,0.9 -0.5,0.7 -0.8,1.8 -0.6,0.6 -0.7,0.3 H 666 Z"
       id="FRPAC"
       name="Provence Alpes Côte d'Azu"
       style="fill:#bdcfff;fill-opacity:0.363914" />
    <path
       d="m 773.2,597.1 -1.9,0.3 -2.3,1.4 -0.7,0.1 h -1.8 l -0.6,0.2 -0.3,0.5 -0.1,0.6 -0.2,0.7 -0.3,0.9 -1,1.1 -0.6,0.3 -0.7,0.1 -4,-1.5 -0.5,-0.5 -0.2,-0.5 -0.3,-1.2 -0.5,-0.6 -0.8,-0.5 -1.6,-0.3 h -1.4 l -1,-0.1 -0.6,-0.2 -1,-0.9 -1.5,1.7 -0.2,0.5 -0.3,1.2 -0.1,1.5 -0.6,3.1 v 1.5 l 0.2,0.9 0.6,0.3 0.6,0.1 0.8,0.1 2.9,-0.6 0.6,0.2 0.6,0.5 0.3,0.6 0.1,0.8 v 1.9 l 0.2,0.7 0.5,0.7 0.6,0.6 0.7,1 0.2,0.7 0.2,0.7 -0.2,2.5 -0.1,1.3 -0.2,0.5 -0.3,0.4 -0.5,0.1 -0.5,-0.1 -2.2,-0.8 -0.6,-0.1 H 752 l -0.6,0.2 -2,0.9 h -0.6 l -1.2,-0.1 h -0.5 l -1.9,0.4 -0.6,-0.1 -1.1,-0.4 h -0.6 l -0.6,0.2 -3.2,2.2 -0.7,0.2 h -0.5 l -1.1,-0.4 -0.5,-0.1 -0.6,0.1 -0.6,0.3 -1,0.6 -1.5,1.2 -0.3,0.6 0.1,0.7 0.3,0.6 -0.1,0.9 -0.4,0.5 -0.5,0.5 -2.4,0.8 -1.3,0.2 -1.9,-0.1 -0.6,0.1 -0.8,0.3 -0.5,0.7 -1.5,2.6 0.3,0.8 0.7,0.5 0.1,0.6 -0.1,0.6 -0.3,0.6 -0.5,0.6 -0.9,1 -0.5,0.3 -1.8,0.2 -1.1,0.5 -0.7,0.3 -0.7,0.1 -1.2,-0.1 -0.7,-0.2 h -0.6 -0.7 l -0.9,0.3 -0.2,0.6 v 0.6 l -0.2,0.9 -0.4,1.1 -1.8,2.8 -0.4,0.6 v 0.4 l -0.1,0.5 0.2,0.5 0.2,0.4 0.4,0.5 1.6,1.1 0.4,0.5 0.3,0.6 0.1,1 -0.5,0.6 -2.7,2 -0.7,0.2 -0.6,-0.1 -3.8,-1.4 -1.9,-0.3 h -0.6 l -0.8,0.2 -0.3,0.3 -0.1,0.5 0.1,0.6 0.1,0.7 0.2,0.5 0.4,0.5 0.4,0.4 0.5,0.3 0.3,0.3 0.2,0.3 v 0.6 l -0.2,0.3 -0.3,0.3 -0.5,0.1 h -0.5 l -1.7,-0.5 h -0.6 l -0.7,0.3 -0.1,0.5 0.2,0.5 0.9,1 0.4,0.6 0.1,0.5 0.1,0.8 0.1,0.4 0.2,0.5 2.4,1.9 0.3,0.1 0.4,0.2 1.2,0.2 0.6,0.2 1.1,0.7 0.5,0.2 2.9,-0.2 h 0.5 l 0.5,0.2 0.3,0.4 -0.2,0.6 -0.4,0.7 0.1,0.6 0.3,0.4 0.4,0.5 0.8,1 0.4,0.4 1,0.4 0.5,0.4 0.3,0.7 0.1,2.2 -0.2,3.4 -0.2,0.3 -0.5,0.8 0.3,2.1 -0.3,0.5 -0.4,0.2 -0.5,-0.1 -0.4,-0.3 -0.3,-0.5 -0.1,-0.6 -0.3,-0.5 -0.7,-0.5 -1.4,-0.3 -0.8,0.3 -0.8,0.7 -0.8,1.1 -1.8,1.8 -1.9,1.2 -2.1,-0.2 -0.6,-0.3 -2.2,-2 -1.1,-0.5 -0.6,-0.5 -0.3,-0.6 -0.2,-0.6 -0.1,-0.7 -0.2,-0.7 -0.4,-0.8 -0.5,-0.3 -0.6,-0.2 h -0.6 l -0.8,-0.1 -4.3,-1.6 h -0.9 l -0.9,0.2 -1.1,0.1 -1.9,-0.4 -0.9,-0.4 -0.6,-0.6 -0.3,-0.6 v -0.6 l -0.1,-1.3 0.1,-0.6 0.5,-1.2 0.2,-0.6 -0.1,-0.7 -0.3,-0.3 -0.5,0.1 -0.4,0.4 -0.9,0.9 -0.7,0.3 -1,0.1 -2.8,-0.7 h -0.8 l -4.2,1.2 -1.2,0.5 -1.2,0.7 -1.2,0.5 -0.5,0.1 -1.7,0.2 -0.6,0.2 -0.5,0.3 -1.2,0.9 -0.6,0.3 -0.8,0.2 -0.6,-0.1 -0.5,-0.4 -0.3,-0.6 -1.4,-4 -0.3,-0.6 -0.5,-0.7 -0.9,-0.8 -0.5,-0.3 -0.4,-0.2 -1.7,-0.3 H 653 l -1.8,0.2 0.1,3.9 -2.9,-0.7 -1.6,-0.9 -0.4,-0.3 -0.2,-0.2 -0.3,-0.4 -0.2,-0.2 -0.5,-0.4 -0.2,-0.2 -0.1,-0.2 -0.3,-0.4 -1.8,-0.8 -1.6,-0.2 -1.8,0.2 -0.7,0.4 -0.3,0.5 v 1.1 l -0.1,0.5 -0.2,0.5 -0.4,0.5 -0.6,0.4 -0.7,0.1 -0.6,-0.2 -0.8,-0.8 -0.2,-0.6 v -0.6 l 0.2,-0.5 0.1,-0.6 -0.2,-0.5 -0.4,-0.4 -0.9,-0.1 -1.9,0.5 -0.5,0.3 -1.4,1.3 -1.6,1 -0.4,0.4 -0.7,1 -0.5,0.4 -0.5,0.1 h -0.7 l -0.7,-0.3 -4.2,-2.5 -0.7,-0.2 -0.5,-0.4 -0.4,-0.6 -0.3,-0.3 -0.6,-0.1 -1.1,0.5 h -0.6 l -0.5,-0.1 h -0.6 l -1.1,0.4 -0.5,-0.1 -0.3,-0.5 -0.2,-2.8 -0.3,-1.1 0.2,-0.8 0.4,-0.4 0.3,-0.5 -0.1,-0.7 -0.8,-1.2 -0.9,-1.9 -1.7,-1.6 -1.8,-6.8 -0.5,-1.3 -0.9,-1.6 -1.3,-0.9 -0.6,-1.3 -0.7,-2.4 -0.5,-3.6 -0.8,-2.5 -0.1,-0.2 -0.2,-0.4 -0.2,-0.9 -0.2,-1.1 0.2,-2.5 -1.5,-0.4 -0.3,-0.1 -0.4,-0.3 -0.4,-0.4 -0.4,-0.2 -0.9,-0.3 -0.8,-0.5 -1.9,-1.6 -1.7,-1.9 -0.5,-0.4 -0.8,-0.3 -3.4,-0.6 -0.4,-0.2 -0.1,-0.4 0.2,-0.5 0.2,-0.5 0.2,-0.6 -0.1,-0.5 -0.5,-0.6 -0.6,-0.5 -1.1,-0.2 -0.8,0.1 -0.7,0.1 -0.4,0.3 -0.3,0.5 -0.1,0.6 -0.1,1.2 -0.2,0.6 -0.3,0.5 -0.6,0.3 -0.6,0.1 -2.1,0.1 -0.6,0.2 -0.6,0.2 -0.8,0.5 -0.9,-0.5 -1.2,-1.3 -3.5,-6.8 -0.5,-1.8 -0.3,-1.1 -0.2,-0.5 -0.5,-0.3 -0.6,0.3 -0.7,-0.1 -0.8,0.2 -0.4,0.2 -2.6,1.8 -0.7,0.3 -0.6,0.2 h -0.6 l -0.5,-0.2 -0.8,0.4 -3.5,3.6 -1.2,0.8 -0.9,0.1 -0.4,-0.4 -1,-1.6 -0.4,-0.2 -0.6,0.1 -0.5,0.5 -0.4,0.6 -0.2,2 -0.5,1.9 -0.6,0.6 -1.1,0.6 -0.5,1.1 -0.6,1.6 -0.8,3.7 -0.4,3 -0.2,0.7 -1.1,1.5 -0.6,1.2 -0.9,2.8 -2,-1.8 -0.5,-0.6 -0.3,-0.5 -0.5,-1.2 -0.3,-1.1 -0.1,-0.6 -0.1,-1.8 -0.1,-0.5 -0.1,-0.6 -0.3,-0.6 -0.2,-0.5 0.2,-0.4 0.4,-0.3 0.6,-0.3 0.2,-0.4 -0.2,-0.5 -0.3,-0.3 -0.3,-0.1 -1.4,-0.5 -0.5,-0.3 -0.4,-0.4 -0.3,-0.6 -0.5,-1.7 -0.3,-0.6 -1.3,-1.6 -0.6,-1.4 -0.3,-0.1 -0.3,-0.1 H 537 l -1.8,0.4 -0.4,-0.1 -0.2,-0.4 0.1,-1.1 v -0.5 l -0.1,-0.6 -0.2,-0.6 -0.3,-0.6 -0.9,-1 -0.3,-0.5 -0.3,-0.6 -0.4,-0.3 -0.4,-0.1 -8.2,8.8 -0.3,0.6 -0.1,0.5 -0.2,1.2 -0.1,0.5 -0.4,0.7 -1.4,2 -0.7,1.5 -0.1,0.5 -0.3,1.7 -0.2,0.5 -0.2,0.5 -0.4,0.5 -1.9,2.1 -0.7,1.1 -0.6,0.6 -1.1,0.6 -2,0.2 h -2.3 l -0.7,-0.1 h -0.4 l -0.3,0.1 -0.6,0.4 -0.4,0.2 h -0.4 l -0.5,-0.4 -0.2,-0.4 -0.4,-0.5 -0.6,-0.2 -0.7,0.1 -3.8,1.3 H 501 l -0.9,0.5 -0.6,2.2 -0.7,-0.1 -0.8,-0.7 -0.3,-0.7 -0.3,-0.9 -0.4,-2.5 -0.2,-0.5 -0.5,-0.5 -1,-0.5 -0.3,-0.2 0.1,-0.7 0.5,-1.2 1,-4.7 -0.1,-0.9 -0.3,-1 -1,-1.9 -2.6,-4.2 -0.5,-1.2 -0.4,-1.5 -0.5,-5.2 -0.8,-1.7 1.4,-0.6 2.2,-0.3 0.5,-0.2 0.4,-0.4 0.2,-0.4 v -0.2 -0.2 l -0.1,-0.3 -0.2,-0.5 -1.2,-2.3 -0.2,-0.5 v -0.7 l 0.4,-0.7 2.4,-1.8 0.5,-0.6 0.5,-0.7 0.4,-1.2 0.3,-0.8 0.3,-0.9 1.4,-2.8 0.2,-1 -0.2,-0.8 -0.4,-0.6 -0.3,-0.6 -0.2,-0.7 -0.1,-0.7 0.1,-0.6 0.1,-0.6 2.4,-1.9 0.3,-0.5 0.4,-1.8 0.1,-0.3 0.3,-0.3 1.2,-0.2 1.2,-0.8 0.5,-0.4 2,-3.3 0.5,-0.2 0.3,-0.2 0.3,-0.4 0.4,-1.1 0.8,-1.4 0.1,-0.3 v -0.4 -0.3 -0.4 l -0.1,-0.3 -0.1,-0.3 -0.2,-0.2 -0.2,-0.2 -0.2,-0.2 -0.2,-0.2 -0.1,-0.2 0.1,-0.3 0.3,-0.4 1.1,-0.3 h 0.5 l 0.5,0.1 0.3,0.1 0.5,0.3 0.8,0.8 1.5,0.6 1.8,0.3 h 0.4 l 0.3,-0.2 0.4,-0.5 0.7,-1.8 1.2,-5.4 -1,-0.7 -0.2,-0.4 -0.2,-0.9 v -1.2 -1.6 l -0.1,-1.1 -0.4,-0.9 -1,-1.1 -0.3,-0.7 -0.1,-0.8 0.6,-2.9 0.4,-0.5 0.4,-0.3 1.3,-0.5 0.3,-0.4 0.3,-0.3 0.1,-0.3 0.1,-0.5 0.1,-0.9 0.1,-1.5 v -1.3 -0.6 l -0.6,-1.4 -1.6,-2 -0.3,-0.4 -0.5,-0.4 -0.4,-0.5 -0.1,-0.1 -0.6,-0.2 h -0.4 l -0.5,-0.2 -0.4,-0.4 -0.2,-0.6 -0.2,-1.1 -0.2,-0.6 -0.4,-0.6 -1.3,-1.8 -0.2,-0.7 0.2,-0.6 0.7,-0.8 1.2,-0.8 0.7,-0.5 0.7,-1 0.6,-0.4 0.6,-0.2 1.2,0.2 0.3,-0.1 h 0.2 l 0.3,-0.3 0.9,-1.3 0.3,-0.4 0.5,-0.4 0.5,-0.6 0.4,-0.8 0.5,-1.4 0.4,-0.9 0.3,-0.7 0.5,-0.6 0.9,-1 0.3,-0.7 -0.1,-1.3 0.1,-0.8 -0.1,-0.4 0.3,-0.9 v -0.7 l -0.2,-0.8 -0.6,-1.2 -1,-2 -0.3,-0.7 -0.2,-1 v -0.8 l 0.4,-4 -0.6,-1.5 -1.2,-2.1 -0.4,-0.9 -0.3,-0.8 -0.4,-1.9 -0.4,-0.9 -2.5,-4.1 -0.6,-0.7 -0.9,-0.3 -0.5,0.2 -0.6,0.6 -0.4,-0.1 -0.4,-0.6 -0.2,-0.6 -0.3,-1 -0.3,-0.5 -0.5,-0.4 -1.8,-0.4 -1.2,-0.4 -0.6,-0.3 -0.5,-0.6 -0.5,-1.6 -0.1,-0.9 -0.4,-0.9 -1.7,-1.7 -2.1,-3.1 1.6,-2.8 0.5,-1.1 0.2,-0.4 0.5,-0.3 0.5,-0.1 0.5,-0.4 0.6,-0.6 0.9,-1.5 3.7,-1.9 1.3,-0.3 0.9,-0.1 0.6,0.1 h 0.6 l 1.8,-0.5 2.9,-0.2 5.2,-1.5 0.2,-0.2 0.1,-0.4 v -0.5 l -0.1,-0.4 -0.1,-0.3 -0.2,-0.5 -0.4,-0.6 -0.9,-1.2 -0.4,-0.6 -0.1,-0.6 0.1,-0.6 0.4,-0.9 0.1,-0.3 -0.1,-0.5 -0.7,-1 -0.3,-0.5 0.1,-0.5 0.2,-0.3 0.4,-0.2 1.4,0.1 0.6,-0.1 0.4,-0.5 -0.3,-1.2 0.1,-0.5 0.4,-0.3 1.5,-0.1 1.1,-0.8 1.8,-1.6 1,-1.3 0.4,-0.3 0.5,0.2 0.2,0.4 0.3,0.5 2.1,0.8 0.5,-0.1 0.9,-1.1 0.6,-0.3 0.8,0.1 0.7,0.2 0.6,0.1 0.6,-0.7 0.4,-0.6 0.4,-0.9 0.4,-0.4 3.9,-2.6 2.8,-0.9 1.6,0.3 1.7,-0.1 v 0.9 0.4 l 0.1,0.4 0.1,0.3 0.3,0.6 0.9,1.1 1.2,1 1.2,0.6 0.4,0.4 0.3,0.1 h 0.3 l 0.6,-0.2 0.8,0.1 1.1,0.3 0.7,0.6 1.7,2 0.5,0.5 0.6,0.3 h 0.7 l 2.5,-1.3 0.8,-0.1 h 1 l 1.7,0.3 1,0.4 1.3,0.8 0.5,0.1 0.7,-0.1 0.6,-0.6 0.7,-1.1 0.5,-0.4 0.6,-0.2 1.6,0.5 0.4,0.5 0.4,1.2 0.3,0.5 0.3,0.6 0.1,0.6 v 0.5 l -0.1,0.6 0.3,0.4 0.6,0.1 h 0.8 l 0.7,-0.3 2.6,-1.7 0.8,-0.3 0.6,-0.5 0.3,-0.9 V 457 l 0.2,-0.6 0.8,-0.4 0.5,-0.5 0.3,-0.8 V 454 l 0.1,-0.6 0.1,-0.3 1.7,0.3 1.6,2.8 0.2,0.6 0.1,1 0.2,0.4 0.8,0.8 0.1,0.3 0.8,0.9 0.2,0.2 0.3,0.1 0.3,0.3 0.3,0.5 0.3,1 1,1.6 0.7,0.4 0.3,0.3 0.1,0.4 0.2,1.5 -0.1,2.4 v 0.3 l -0.3,0.7 v 0.3 l 0.1,0.3 0.5,0.3 1,0.4 0.1,0.1 0.6,0.5 0.3,0.2 0.6,0.1 0.3,0.2 0.2,0.2 0.2,0.2 0.2,0.2 0.3,0.1 0.9,-0.1 h 0.3 l 0.3,0.1 0.3,0.2 0.7,0.9 0.9,0.6 0.1,0.1 0.2,0.4 0.2,0.2 0.3,0.2 1.8,0.5 1.8,0.3 0.6,0.2 0.8,0.6 0.8,0.4 0.2,0.1 0.1,0.2 0.1,0.4 0.1,0.7 v 0.6 l 0.1,0.4 0.2,0.4 0.1,0.3 0.2,0.4 v 0.4 l -0.1,0.4 -0.5,2.5 -0.1,0.6 0.1,0.4 0.1,0.3 0.2,0.2 0.1,0.3 0.1,0.3 v 0.4 l -0.1,0.5 v 0.4 0.4 l 0.2,0.3 0.1,0.3 0.2,0.3 0.2,0.3 0.1,0.1 0.1,0.2 v 0.3 0.3 l -0.1,0.2 -0.7,0.7 -0.6,0.6 -5.7,3.2 0.6,1.2 0.2,0.9 v 0.2 0.1 l -0.2,2.2 v 0.6 l 0.1,0.5 0.4,0.3 0.5,0.3 1.5,0.4 0.6,0.4 1.6,1.3 0.5,0.4 0.7,0.1 h 1 l 3.5,-1.4 0.7,-0.1 1.1,0.2 2.5,0.9 h 0.6 l 0.7,-0.1 1.6,-0.6 0.7,-0.1 3,0.7 1.9,0.8 0.5,0.1 h 0.6 l 0.7,-0.1 0.8,-0.3 1,-0.5 1.6,-1.3 1.8,-2.5 0.3,-0.7 0.5,-1.9 0.4,-2.2 0.1,-0.5 0.2,-0.5 0.4,-0.3 0.5,-0.1 2.3,1.1 2.4,0.6 1.2,-0.1 0.8,-0.3 0.4,-0.5 0.5,-0.3 h 0.5 l 0.7,0.8 0.4,0.6 0.6,0.6 0.7,0.3 h 0.8 l 0.6,-0.4 0.2,-0.5 0.1,-0.6 0.1,-0.6 0.1,-0.6 0.3,-0.3 0.6,-0.2 1.7,0.6 0.5,0.3 0.1,0.8 v 0.6 l -0.1,0.6 0.3,0.5 1.2,0.7 0.4,0.5 0.1,0.8 -0.1,1.2 0.1,0.6 0.5,1.3 0.4,1.3 1.2,1.1 3.6,0.5 -0.2,-0.7 v -0.3 -0.5 -0.4 l 0.4,-0.9 0.9,-4.3 0.2,-0.6 3.3,-7.2 0.2,-0.3 v -0.3 -0.4 l -0.1,-0.6 v -0.4 l 0.1,-0.3 0.1,-0.3 0.6,-0.8 0.8,-1.8 0.2,-0.7 0.2,-0.8 0.4,-3.1 0.1,-0.4 0.1,-0.3 0.6,-1.6 0.1,-0.4 0.4,-0.9 0.1,-0.4 0.1,-0.8 0.1,-0.1 0.2,-0.3 0.3,-0.2 0.8,-0.2 0.9,0.1 0.9,0.2 2.3,1.1 1,0.3 1.4,-0.2 3.8,-1.5 1.8,-0.2 0.7,0.2 0.8,0.4 1,0.9 1.1,1.4 1.7,1 4.4,1.2 v 3.1 l 0.5,1.1 1.6,0.5 0.5,0.3 0.6,0.7 0.3,0.7 0.1,0.9 0.3,1.2 0.5,0.7 0.6,0.5 1.3,0.4 0.8,0.3 0.8,1.2 0.5,0.3 1.3,0.2 0.3,0.4 0.1,0.5 -0.1,0.7 -0.2,0.6 -0.1,0.8 0.1,0.9 0.3,0.6 0.5,0.3 1.7,0.5 0.3,-0.1 0.2,-0.2 0.2,-0.2 0.4,-0.5 1.2,-0.5 0.3,-0.2 0.3,-0.2 0.5,-0.8 0.2,-0.2 0.2,-0.2 0.3,-0.1 0.6,-0.1 h 0.3 l 0.3,-0.2 0.1,-0.3 0.2,-0.7 0.1,-0.3 0.2,-0.2 0.5,-0.3 0.2,-0.2 0.5,-0.8 0.2,-0.2 1.2,-1 0.2,0.3 2.9,2.6 0.6,0.9 0.2,0.8 v 0.6 l 0.2,0.8 0.5,0.4 0.5,0.2 6.8,0.3 1.3,-0.2 0.7,-0.2 0.5,-0.3 2.2,-1.9 0.4,-0.5 0.3,-0.5 0.4,-0.5 0.6,-0.4 0.3,-0.2 0.2,-0.3 0.8,-1.5 0.3,-0.4 2.1,-2.3 0.4,-0.8 0.5,-0.6 2.5,-2.8 3.1,1.8 0.9,1 0.8,1.4 v 1 l -1.1,2.4 -0.9,2.1 -0.2,0.7 -0.4,2.5 v 1 0.8 l -0.3,0.6 -1.3,0.4 -0.4,0.1 -0.3,-0.1 -0.5,-0.1 -0.1,-0.1 -0.1,0.1 h -0.2 l -3.7,1.8 -1.5,1 -0.2,1 0.6,1.3 1.1,1.3 -0.2,0.8 -0.4,0.9 -0.9,1.9 1.5,-0.8 2.8,-0.7 2.9,-0.1 2.1,0.9 2,-1 3.1,-3.7 4,-2.7 1.6,-1.6 -0.3,-2.1 -0.5,-0.2 -1,0.5 -0.6,-0.4 -0.3,-0.3 -0.6,-1.5 v -0.4 l -0.6,-1.5 -0.1,-0.4 -0.2,-0.5 0.4,-1.2 1.3,-1.8 1.7,-2.3 2.1,-1.8 1.9,-0.6 2,-0.1 2,-0.5 5.3,-3.6 3.9,-0.8 4.2,0.1 9.2,2.4 0.9,0.5 0.6,0.9 0.1,0.8 v 0.9 l -0.4,1.5 -1.6,1.9 -0.4,1 1.2,2.1 2.2,2.3 1.4,2.4 -2.2,4.3 -1.1,3.2 -0.5,3.1 0.5,1.5 4.9,1 1,1 -0.1,0.6 -0.4,0.7 -0.5,0.6 -0.3,0.5 0.2,-0.1 0.1,0.9 v 0.9 l -0.1,0.1 v 0.7 l -0.1,0.4 v 0.3 l 0.6,0.4 0.6,0.1 0.5,-0.4 0.4,-0.5 0.5,-0.2 1.4,0.6 4.2,4.8 0.3,0.2 0.2,0.9 0.7,1.9 0.5,1.6 0.3,0.9 0.4,0.7 -0.9,0.5 -0.6,0.8 -0.5,1 -0.4,1.2 -0.8,1.5 -1.3,1 -1.4,0.7 -1.3,0.4 h -1.5 l -0.5,0.1 v 0.4 l -0.1,0.7 v 0.4 l -0.4,0.1 -0.4,-0.6 -0.4,-0.3 -0.5,-0.2 -1.7,0.5 -1,0.6 -0.7,1.3 -0.4,1.5 v 1.6 l 0.1,1.1 v 0.4 l 0.7,3.7 1.3,1.9 1.7,1.3 1.6,0.3 0.8,0.3 1.4,1.4 0.8,0.6 2,0.5 0.8,0.6 0.4,1.3 -0.2,0.5 -0.7,1.6 -0.1,0.7 0.1,0.7 0.7,1 0.2,0.7 0.3,3.7 0.5,1.2 2.8,1.6 2.7,2.1 0.2,0.3 0.4,0.6 0.5,1.1 0.5,1 0.8,0.6 2.6,1.2 0.5,0.4 -0.1,1.1 -0.5,1.3 -1.3,2.3 -2,2.4 -0.3,0.5 0.3,2.6 0.7,1.7 v 1.4 l -1.7,1.4 -1.2,2.2 -0.4,0.4 -0.3,-0.1 -0.8,-0.9 -0.5,-0.2 -2.2,0.6 -2.2,1 -0.8,0.7 -1.1,1.9 -0.9,0.9 -0.5,0.1 h -1.5 l -0.5,0.2 -0.3,0.8 0.3,0.4 0.4,0.4 -0.2,0.6 -2,1 -2.2,-0.8 -2.3,-1.3 -2.1,-0.3 -0.5,0.2 -1.1,0.9 -0.6,0.3 -0.4,0.1 -1.2,-0.1 -0.5,0.1 -2.2,1.3 z m -107.7,70.3 0.5,0.4 h 5.2 l 0.7,-0.3 0.6,-0.6 0.8,-1.8 0.5,-0.7 1,-0.9 0.3,-0.5 v -0.9 l -0.3,-0.7 -0.4,-0.6 -2.5,-2.6 -0.8,-0.5 h -0.9 l -0.9,0.4 -0.7,0.7 -3.1,5.2 -0.4,1.3 -0.1,0.8 0.2,0.7 z"
       id="FRARA"
       name="Auvergne Rhône Alpes"
       style="fill:#bdcfff;fill-opacity:0.363914" />
    <path
       d="m 805,385.3 h -0.1 l -0.9,-0.4 -1.4,-0.3 -3.1,0.5 -1.6,-0.2 -0.6,-0.5 -0.5,-0.1 -0.6,0.1 -0.5,0.5 -1.2,0.3 0.2,1 0.6,1.3 0.3,1.1 -0.5,0.8 -0.9,0.7 -1,0.6 -0.8,0.2 -0.8,0.2 -0.1,1.7 -1.6,1 -0.9,1.2 -0.8,1.4 -0.3,1.2 7.4,-0.8 1.1,-0.5 0.9,0.7 1,0.9 0.6,0.9 -0.5,1 -0.5,0.4 -0.7,0.1 -0.6,0.4 -0.9,1.3 -0.4,0.1 -0.5,0.1 -1.2,1.2 -0.4,1.8 0.3,2.3 -4.2,3.1 -1.8,1.8 -1.2,2 -0.1,0.1 -4,3.6 -1.8,0.7 0.1,1.5 -0.9,0.5 -0.3,0.2 -0.2,0.5 -1.5,0.6 -0.6,0.6 -0.9,1.4 0.8,1.7 -1.4,2.1 -4.2,3.1 -6.6,2.1 -3,1.8 -0.9,3.1 0.2,0.9 0.8,1.5 0.2,1 -0.1,1.3 -0.2,0.5 -0.1,0.3 -0.4,0.8 -1,3 -0.1,0.4 0.2,0.5 0.3,0.5 0.5,0.5 v 1.5 l -0.2,0.7 -0.7,0.9 -0.7,0.5 -2,1.1 -1.7,1.8 -0.6,0.6 -4.4,2.4 -8.3,7.6 -0.9,1.1 0.2,1.2 1,1.2 0.5,0.5 -2.2,2.8 -2.1,3.7 -0.7,0.7 -0.3,0.6 v 0.4 l 0.2,0.5 0.1,0.3 v 0.3 0.7 l 0.2,0.6 -0.1,0.6 -0.7,0.7 0.2,0.2 -2.5,2.8 -0.5,0.6 -0.4,0.8 -2.1,2.3 -0.3,0.4 -0.8,1.5 -0.2,0.3 -0.3,0.2 -0.6,0.4 -0.4,0.5 -0.3,0.5 -0.4,0.5 -2.2,1.9 -0.5,0.3 -0.7,0.2 -1.3,0.2 -6.8,-0.3 -0.5,-0.2 -0.5,-0.4 -0.2,-0.8 v -0.6 l -0.2,-0.8 -0.6,-0.9 -2.9,-2.6 -0.2,-0.3 -1.2,1 -0.2,0.2 -0.5,0.8 -0.2,0.2 -0.5,0.3 -0.2,0.2 -0.1,0.3 -0.2,0.7 -0.1,0.3 -0.3,0.2 h -0.3 l -0.6,0.1 -0.3,0.1 -0.2,0.2 -0.2,0.2 -0.5,0.8 -0.3,0.2 -0.3,0.2 -1.2,0.5 -0.4,0.5 -0.2,0.2 -0.2,0.2 -0.3,0.1 -1.7,-0.5 -0.5,-0.3 -0.3,-0.6 -0.1,-0.9 0.1,-0.8 0.2,-0.6 0.1,-0.7 -0.1,-0.5 -0.3,-0.4 -1.3,-0.2 -0.5,-0.3 -0.8,-1.2 -0.8,-0.3 -1.3,-0.4 -0.6,-0.5 -0.5,-0.7 -0.3,-1.2 -0.1,-0.9 -0.3,-0.7 -0.6,-0.7 -0.5,-0.3 -1.6,-0.5 -0.5,-1.1 V 479 l -4.4,-1.2 -1.7,-1 -1.1,-1.4 -1,-0.9 -0.8,-0.4 -0.7,-0.2 -1.8,0.2 -3.8,1.5 -1.4,0.2 -1,-0.3 -2.3,-1.1 -0.9,-0.2 -0.9,-0.1 -0.8,0.2 -0.3,0.2 -0.2,0.3 -0.1,0.1 -0.1,0.8 -0.1,0.4 -0.4,0.9 -0.1,0.4 -0.6,1.6 -0.1,0.3 -0.1,0.4 -0.4,3.1 -0.2,0.8 -0.2,0.7 -0.8,1.8 -0.6,0.8 -0.1,0.3 -0.1,0.3 v 0.4 l 0.1,0.6 v 0.4 0.3 l -0.2,0.3 -3.3,7.2 -0.2,0.6 -0.9,4.3 -0.4,0.9 v 0.4 0.5 0.3 l 0.2,0.7 -3.6,-0.5 -1.2,-1.1 -0.4,-1.3 -0.5,-1.3 -0.1,-0.6 0.1,-1.2 -0.1,-0.8 -0.4,-0.5 -1.2,-0.7 -0.3,-0.5 0.1,-0.6 v -0.6 l -0.1,-0.8 -0.5,-0.3 -1.7,-0.6 -0.6,0.2 -0.3,0.3 -0.1,0.6 -0.1,0.6 -0.1,0.6 -0.2,0.5 -0.6,0.4 h -0.8 l -0.7,-0.3 -0.6,-0.6 -0.4,-0.6 -0.7,-0.8 h -0.5 l -0.5,0.3 -0.4,0.5 -0.8,0.3 -1.2,0.1 -2.4,-0.6 -2.3,-1.1 -0.5,0.1 -0.4,0.3 -0.2,0.5 -0.1,0.5 -0.4,2.2 -0.5,1.9 -0.3,0.7 -1.8,2.5 -1.6,1.3 -1,0.5 -0.8,0.3 -0.7,0.1 h -0.6 l -0.5,-0.1 -1.9,-0.8 -3,-0.7 -0.7,0.1 -1.6,0.6 -0.7,0.1 h -0.6 l -2.5,-0.9 -1.1,-0.2 -0.7,0.1 -3.5,1.4 h -1 l -0.7,-0.1 -0.5,-0.4 -1.6,-1.3 -0.6,-0.4 -1.5,-0.4 -0.5,-0.3 -0.4,-0.3 -0.1,-0.5 v -0.6 l 0.2,-2.2 v -0.1 -0.2 l -0.2,-0.9 -0.6,-1.2 5.7,-3.2 0.6,-0.6 0.7,-0.7 0.1,-0.2 v -0.3 -0.3 l -0.1,-0.2 -0.1,-0.1 -0.2,-0.3 -0.2,-0.3 -0.1,-0.3 -0.2,-0.3 v -0.4 -0.4 l 0.1,-0.5 v -0.4 l -0.1,-0.3 -0.1,-0.3 -0.2,-0.2 -0.1,-0.3 -0.1,-0.4 0.1,-0.6 0.5,-2.5 0.1,-0.4 v -0.4 l -0.2,-0.4 -0.1,-0.3 -0.2,-0.4 -0.1,-0.4 V 479 l -0.1,-0.7 -0.1,-0.4 -0.1,-0.2 -0.2,-0.1 -0.8,-0.4 -0.8,-0.6 -0.6,-0.2 -1.8,-0.3 -1.8,-0.5 -0.3,-0.2 -0.2,-0.2 -0.2,-0.4 -0.1,-0.1 -0.9,-0.6 -0.7,-0.9 -0.3,-0.2 -0.3,-0.1 h -0.3 l -0.9,0.1 -0.3,-0.1 -0.2,-0.2 -0.2,-0.2 -0.2,-0.2 -0.3,-0.2 -0.6,-0.1 -0.3,-0.2 -0.6,-0.5 -0.1,-0.1 -1,-0.4 -0.5,-0.3 -0.1,-0.3 v -0.3 l 0.3,-0.7 v -0.3 l 0.1,-2.4 -0.2,-1.5 -0.1,-0.4 -0.3,-0.3 -0.7,-0.4 -1,-1.6 -0.3,-1 -0.3,-0.5 -0.3,-0.3 -0.3,-0.1 -0.2,-0.2 -0.8,-0.9 -0.1,-0.3 -0.8,-0.8 -0.2,-0.4 -0.1,-1 -0.2,-0.6 -1.6,-2.8 -1.7,-0.3 -0.1,0.3 -0.1,0.6 v 0.7 l -0.3,0.8 -0.5,0.5 -0.8,0.4 -0.2,0.6 v 0.7 l -0.3,0.9 -0.6,0.5 -0.8,0.3 -2.6,1.7 -0.7,0.3 h -0.8 l -0.6,-0.1 -0.3,-0.4 0.1,-0.6 v -0.5 l -0.1,-0.6 -0.3,-0.6 -0.3,-0.5 -0.4,-1.2 -0.4,-0.5 -1.6,-0.5 -0.6,0.2 -0.5,0.4 -0.7,1.1 -0.6,0.6 -0.7,0.1 -0.5,-0.1 -1.3,-0.8 -1,-0.4 -1.7,-0.3 h -1 l -0.8,0.1 -2.5,1.3 h -0.7 l -0.6,-0.3 -0.5,-0.5 -1.7,-2 -0.7,-0.6 -1.1,-0.3 -0.8,-0.1 -0.6,0.2 H 555 l -0.3,-0.1 -0.4,-0.4 -1.2,-0.6 -1.2,-1 -0.9,-1.1 -0.3,-0.6 -0.1,-0.3 -0.1,-0.4 v -0.4 -0.9 l 0.3,-1.9 v -0.2 l 0.4,-0.8 1.4,-2.7 0.4,-0.9 0.2,-0.7 -0.1,-0.6 v -0.4 l -0.1,-0.3 -0.7,-1.4 -0.1,-0.4 -0.2,-0.7 v -0.5 l 0.1,-0.4 0.5,-1.6 0.6,-2.1 0.1,-0.9 v -0.7 -0.8 l -0.3,-1 v -2.3 l -0.1,-1.7 -0.1,-0.3 -0.2,-0.3 -0.2,-0.2 -1.2,-1 -0.3,-0.3 -0.3,-0.7 v -0.7 -0.7 l 0.2,-1.4 v -0.7 l -0.1,-0.7 -0.4,-1.6 -0.1,-0.4 -0.7,-2.7 -0.9,-2.6 -0.5,-0.9 -0.1,-0.4 -0.5,-3.2 -0.3,-0.8 -0.3,-0.6 -0.2,-0.2 -1,-0.8 -0.5,-0.4 -1.5,-2.1 -0.2,-0.2 -0.3,-0.1 -0.6,-0.3 -0.3,-0.2 -0.3,-0.1 -0.2,-0.3 -0.3,-0.4 -0.4,-0.8 -0.2,-0.5 v -0.4 l 0.1,-0.3 0.5,-1.2 0.8,-0.9 0.7,-1.4 0.2,-0.5 0.1,-0.3 0.2,-0.6 0.4,-0.9 0.1,-0.4 0.5,-2.5 V 389 l -0.1,-0.5 -0.4,-0.5 -1,-1.4 -0.4,-0.7 -0.6,-1.7 -0.6,-1.3 -0.5,-0.6 -1.1,-1.4 0.1,-0.4 v -0.3 l 2.6,-1.5 0.6,-0.2 h 2.4 l 1.3,-0.5 -0.6,-1.4 -1.8,-2.4 -0.4,-0.9 v -0.7 l 0.6,-1.2 v -0.8 l -0.4,-1 -0.8,-1.7 -0.7,-0.8 -1.7,-1.6 -0.6,-0.4 -0.6,-0.2 h -0.6 l -0.6,-0.5 -0.3,-0.6 -0.1,-0.7 0.1,-0.9 0.2,-0.9 v -0.1 l 0.4,-0.5 0.5,-0.3 0.6,-0.2 1.3,-0.2 1.2,0.1 h 0.5 l 0.6,-0.2 2,-1.3 2,-0.8 0.6,-0.4 0.5,-0.9 v -0.6 -0.7 l -0.2,-0.7 0.1,-0.5 0.2,-0.4 0.3,-0.5 0.3,-0.8 -0.1,-0.6 -0.6,-1 -0.3,-0.9 -0.2,-2.4 0.1,-0.6 0.3,-0.2 h 0.8 l 0.6,-0.2 0.5,-0.5 1,-1.2 0.6,-0.6 1.3,-0.7 0.5,-0.5 0.6,-0.8 1.1,-2.9 0.4,-1.1 -0.2,-1.6 -0.2,-0.7 -0.2,-0.6 -1,-1.1 -1.9,-1.5 -0.6,-0.6 -0.4,-0.9 -1.2,-4.5 -0.2,-0.6 -0.5,-0.5 -0.4,-0.4 -0.9,-0.5 -2.3,-0.7 -1.1,-0.1 h -0.8 l 0.2,-1.3 0.2,-1.2 0.3,-1.1 0.2,-0.5 0.4,-0.5 0.7,-0.5 2,-1 0.7,-0.8 0.3,-0.6 0.6,-1.2 V 315 l 0.4,-0.6 0.3,-0.5 0.1,-0.6 -0.2,-0.6 -0.4,-0.5 -0.2,-0.6 -0.2,-0.7 -0.1,-0.6 v -0.6 l 0.1,-0.6 0.1,-0.6 0.3,-0.6 0.3,-0.5 0.1,-0.5 0.2,-0.9 0.1,-0.7 0.3,-0.3 0.4,-0.4 3.1,0.1 0.4,-0.1 0.4,-0.4 0.4,-0.2 0.5,-0.3 0.7,-0.1 3,0.3 0.7,0.3 h 0.9 l 6.3,-1.1 0.6,0.1 1.2,0.5 h 0.6 l 0.5,-0.2 0.9,-1.8 1.6,-1.7 1.1,0.9 0.2,1.2 0.1,0.8 0.2,1 0.4,0.3 1.1,-0.3 1,0.1 2,1.1 1,0.9 0.8,0.8 4,5.4 0.8,1.2 0.4,0.9 0.1,0.6 -0.1,0.7 0.1,0.5 0.3,1.4 v 0.6 l -0.1,0.5 -0.4,0.6 -1.1,1 -0.3,0.6 v 0.6 l 2.2,1.1 1.9,1.7 1.1,0.7 0.8,0.1 1.1,-0.3 0.3,-0.4 0.1,-0.5 0.3,-0.5 0.6,-0.1 0.9,0.4 0.5,0.6 0.2,0.7 0.2,0.7 0.3,0.7 0.9,0.8 1,1.4 4.4,7.7 0.3,0.6 v 0.5 l -0.4,0.3 -1,0.2 -0.3,0.3 -0.1,0.2 0.1,0.5 0.5,0.3 1.2,0.7 h 0.6 l 1.2,-0.4 0.7,0.1 0.3,0.4 0.1,0.5 -0.1,1.9 v 0.7 l 0.3,0.8 0.5,0.5 0.5,0.3 1.7,0.2 2.4,-0.3 0.4,0.1 0.4,0.1 1,0.5 0.5,0.2 0.6,-0.1 0.5,-0.3 0.8,-0.9 0.5,-0.2 0.6,0.1 1.2,0.4 1.3,0.1 0.6,-0.1 0.6,-0.2 0.3,-0.4 0.3,-0.6 0.4,-0.4 0.6,-0.4 0.8,0.1 0.6,0.5 0.6,0.6 0.5,0.2 0.4,-0.2 0.1,-0.5 v -0.6 -0.6 -0.5 l 0.1,-0.5 0.3,-0.2 0.4,0.4 0.9,1.7 1.1,1.4 0.7,0.7 0.6,0.3 h 0.7 l 2.3,-2 13.4,-1.8 0.7,-0.4 0.4,-0.4 -0.1,-0.6 v -0.8 l 0.3,-0.8 1.2,-1.2 0.9,-0.4 h 0.8 l 2,0.6 h 1 l 0.7,-0.2 1.8,-1 2,1.5 3.8,0.8 0.7,0.5 0.2,0.6 -0.6,1 0.2,0.7 0.7,0.4 2.2,0.8 0.5,0.5 0.3,0.4 v 0.4 l -0.2,0.4 -0.6,1.1 -0.2,0.6 -0.1,0.7 0.4,0.8 0.4,0.4 h 0.5 l 0.4,-0.3 0.5,-0.9 0.3,-0.3 0.7,0.1 3.2,4.1 1.3,2.3 1.2,2.6 0.2,0.6 v 0.6 l -0.2,0.5 -0.5,0.4 -0.6,0.1 -1.2,0.1 -0.6,0.2 -0.4,0.4 -0.1,0.8 0.3,0.7 0.6,0.7 0.5,0.7 v 0.1 0.5 l 0.4,2.7 0.2,0.8 0.5,1.2 0.6,0.5 0.6,0.1 0.5,-0.2 0.3,-0.2 0.7,-1 0.4,-0.3 0.7,0.1 0.6,0.8 1,1.7 0.6,0.9 0.7,0.6 1.2,0.8 0.6,0.3 0.6,0.1 0.6,-0.1 0.6,-0.2 0.4,-0.4 0.4,-0.5 0.2,-0.5 0.4,-0.5 0.4,-0.4 0.7,-0.1 0.5,0.4 0.2,0.5 v 0.6 l 0.2,0.6 0.6,0.7 1.1,1 1.6,0.9 0.7,0.3 0.3,0.3 0.2,0.4 0.2,1.3 0.4,0.9 0.5,0.2 0.6,-0.1 1.8,-1.4 0.5,-0.3 0.5,0.1 0.4,0.4 0.3,0.7 0.5,0.1 0.4,-0.3 0.4,-0.3 0.2,-0.7 2,-4.6 0.4,-0.7 0.5,-0.5 0.7,-0.3 h 0.7 l 1.4,-0.3 1,-0.4 h 1.1 l 3.4,2 0.6,0.3 h 0.7 l 0.6,-0.1 6,-2.1 0.6,-0.4 0.5,-0.7 0.2,-1.1 -0.1,-0.9 -0.1,-0.8 v -0.9 l 0.2,-1.1 0.3,-1.7 v -1.1 l -0.6,-1.5 0.3,-0.8 0.7,-1.1 6.5,-4.7 0.8,-0.7 1.2,-2.1 0.5,-0.7 0.7,-0.3 0.7,-0.2 0.5,-0.2 0.3,-0.5 0.1,-0.4 -0.4,-1.3 1.2,-0.4 0.7,-0.6 0.2,-0.4 1.1,-2.2 0.3,-0.4 0.4,-0.3 h 0.4 l 0.3,0.4 0.1,0.5 v 0.6 l -0.2,1.2 0.1,0.5 0.3,0.4 0.7,-0.3 0.5,-0.4 0.7,-0.8 1.5,-1 0.5,-0.5 1.2,-1.7 0.6,-0.8 0.5,-0.4 0.7,-0.3 1,-0.1 3,0.6 1.2,0.9 0.6,0.7 0.4,0.7 0.1,0.6 -0.1,1.2 0.2,0.5 0.6,0.4 1.1,0.3 0.9,0.7 1,0.5 h 1.5 l 0.9,-0.3 0.6,-0.4 0.7,-0.6 1.1,-0.4 3.2,-0.3 2.4,1 5.4,3.5 0.4,0.2 0.8,0.2 h 1.2 l 0.9,-0.1 0.8,-0.2 0.7,-0.4 0.5,-0.5 0.4,-0.6 0.6,-1.1 0.3,-0.5 0.5,-0.4 0.6,0.1 0.8,0.5 1.2,1.3 1.2,1.7 0.6,0.6 0.7,0.6 1.9,0.7 0.8,0.5 1.3,1.3 4.6,3.5 0.4,0.3 1.7,0.2 v 1.5 l 0.4,0.5 0.4,0.6 8.7,5.1 1,1 0.7,0.8 0.3,1.2 0.2,2.1 v 0.6 0.6 l -0.2,0.6 -0.1,0.7 -0.3,0.6 -0.3,0.6 -1.1,1.5 -0.2,0.4 v 0.5 0.7 l 0.4,0.6 0.5,0.3 h 0.6 0.6 l 0.6,0.1 0.8,0.4 3.4,3.8 0.5,0.8 0.4,0.8 0.1,0.6 v 0.6 0.5 0.5 l -0.3,0.8 z"
       id="FRBFC"
       name="Bourgogne Franche Comté"
       style="fill:#bdcfff;fill-opacity:0.363914" />
    <path
       d="m 344.2,794.3 -0.3,-1.5 -0.4,-2.1 -0.1,-1.2 V 789 l 0.1,-0.6 0.2,-0.6 0.5,-0.7 0.5,-0.6 0.4,-0.7 0.4,-0.8 v -1.3 -0.8 l -0.3,-1.2 -0.1,-0.6 0.1,-0.6 0.4,-0.7 1.1,-1.1 0.7,-0.9 0.4,-0.4 0.5,-0.1 1.8,-0.1 0.7,-0.1 0.5,-0.4 0.3,-0.6 -0.4,-1.6 -0.1,-1 0.1,-1.3 0.5,-0.8 0.4,-0.5 1.3,-0.6 0.5,-0.3 0.6,-0.6 0.4,-0.7 0.8,-2.1 0.5,-0.5 0.3,-0.2 0.8,0.3 0.4,-0.2 0.4,-0.6 0.2,-0.7 0.4,-2 0.2,-0.6 0.5,-0.5 1,-1 0.5,-0.6 0.3,-0.5 0.2,-0.5 v -0.5 l -0.1,-0.4 -0.5,-1.6 v -1.2 l 0.2,-0.9 0.3,-0.7 0.4,-0.5 0.4,-0.5 0.5,-0.3 1.1,-0.3 0.5,-0.3 0.3,-0.6 -0.1,-0.8 -0.8,-1.9 -0.2,-1.1 0.2,-3.2 -0.1,-0.6 -0.3,-0.4 h -0.6 l -0.5,0.3 -0.4,0.4 -0.3,0.5 -0.5,0.4 h -0.5 l -0.4,-0.5 -0.2,-1.7 0.2,-0.8 0.4,-0.3 0.5,0.2 h 0.5 l 0.4,-0.2 0.2,-0.5 -0.1,-0.7 -0.3,-1 -1.5,-3.7 -0.4,-0.6 -0.4,-0.4 -0.7,-0.4 -0.5,-0.5 -0.6,-1.7 -1.2,-0.8 -5.8,-1.3 -2.1,0.2 -0.4,-0.6 -0.2,-0.4 -0.2,-1 -0.2,-0.5 -0.9,-0.6 v -0.5 l 0.2,-0.7 0.8,-0.9 0.4,-1 -0.1,-0.7 -0.3,-0.6 -0.2,-0.6 0.1,-0.4 0.6,-0.3 h 1 l 0.3,-0.2 0.4,-0.5 1.2,-2.9 0.1,-0.6 -0.2,-0.5 -0.4,-0.5 -0.3,-0.5 V 715 l 0.1,-0.7 v -1.4 l 0.1,-0.7 0.2,-0.8 0.7,-1.1 0.5,-1.4 v -0.6 l -0.3,-0.6 -0.2,-0.5 -0.4,-1.1 -0.3,-0.5 -0.9,-1 -0.4,-0.6 0.1,-0.6 0.5,-0.7 2.1,-1.7 0.8,-0.3 2.2,0.3 h 1.2 l 0.8,-0.1 0.7,-0.6 1.2,-1.5 1.5,-1.1 0.6,-0.3 0.7,-0.2 0.9,0.3 0.4,0.4 0.3,0.4 0.1,0.4 v 0.5 l -0.2,0.4 -0.5,0.7 -0.1,0.4 v 0.6 l 0.2,0.4 0.3,0.3 0.3,0.2 0.5,0.2 0.5,0.1 2.2,0.2 0.5,-0.1 0.6,-0.4 0.4,-0.8 0.1,-0.7 -0.3,-2.2 0.5,-1 0.3,-0.5 1.6,-0.6 0.5,-0.1 0.6,0.2 0.5,0.8 0.4,0.2 0.6,-0.1 0.7,-0.5 0.5,-0.6 0.4,-0.5 0.9,-1.8 0.3,-0.4 0.6,-0.4 0.6,-0.1 2.9,1.2 1.1,0.6 0.5,0.1 h 0.5 l 0.7,-0.2 1.6,-1.1 0.9,-0.5 1.2,-0.2 4.5,-2.2 0.6,-0.6 0.6,-0.3 0.6,-0.1 0.9,0.3 0.6,0.1 h 0.5 l 4.2,-1.6 1,-0.2 1.3,0.5 0.6,0.5 1.8,1.8 0.4,0.3 1.3,-0.3 3.8,-2.3 0.2,-0.9 0.1,-0.5 0.4,-1.3 0.4,-0.6 0.4,-0.4 1.4,-0.6 0.4,-0.4 0.3,-0.7 0.1,-0.5 0.2,-0.5 0.2,-0.3 0.7,-0.3 h 0.6 l 0.6,0.1 1,0.5 0.6,0.2 h 0.6 l 0.5,-0.1 0.5,-0.3 0.3,-0.5 v -0.7 l -0.2,-0.5 -0.5,-0.5 -0.5,-0.2 -0.2,-0.3 v -0.5 l 1.4,-1 0.7,-0.7 2.3,-5.1 0.2,-0.5 0.1,-0.6 -0.2,-0.5 -0.4,-0.4 -0.5,-0.3 -1.6,-0.5 -0.4,-0.3 -0.2,-0.5 -0.5,-0.9 0.1,-0.6 0.6,-1.3 0.1,-0.6 0.1,-0.5 v -0.6 -0.6 -0.6 l 0.2,-0.5 0.4,-0.4 0.6,-0.1 0.6,0.3 0.4,0.5 0.8,0.4 1.2,0.2 5.1,-0.4 0.8,-0.9 V 662 l 0.1,-2.1 0.1,-0.8 v -0.8 l -0.4,-0.8 -1,-0.8 -0.5,-0.5 -0.2,-0.6 -0.2,-1.1 -0.2,-0.4 -0.2,-0.4 -0.2,-0.4 -0.1,-0.6 0.1,-1.2 -0.1,-0.5 -0.2,-0.5 -0.4,-0.5 -0.4,-0.5 -0.2,-0.3 -0.1,-0.5 0.3,-0.6 0.6,-0.7 3,-1.5 1,-0.8 1.1,-1 1.5,-1.6 0.7,-1 2.7,-5 1,-0.8 0.6,-0.3 1.1,-0.1 0.6,-0.2 0.5,-0.3 0.9,-0.9 0.5,-0.4 1.1,-0.4 0.7,-0.5 0.8,-0.7 0.9,-1.3 0.4,-0.9 0.1,-0.9 -0.3,-0.6 -0.4,-0.4 -0.1,-0.7 0.2,-0.7 0.8,-1.1 0.6,-0.4 0.6,-0.1 h 0.6 l 0.5,-0.3 0.5,-0.8 0.7,-1.5 0.5,-0.8 0.5,-0.6 1.7,-1.5 0.4,-0.5 0.3,-0.6 v -0.6 l -0.2,-0.8 v -0.6 l 0.4,-0.6 0.3,-0.8 0.1,-1 -1.4,-4.4 0.3,-1.4 1.8,-1.4 1,-0.4 0.2,-0.2 0.6,-0.6 0.9,-0.2 0.2,-0.2 0.6,-0.7 0.5,-0.3 h 0.4 l 0.3,0.4 0.2,0.5 0.1,0.4 0.4,0.2 1.4,-0.6 0.8,-0.1 1.8,0.6 1,0.6 2,1.4 2.1,1.9 0.4,0.5 0.1,0.6 0.3,0.5 0.5,0.5 1.2,0.6 0.7,0.5 0.6,0.4 0.3,0.4 0.4,0.3 0.8,0.2 h 1.3 l 3.2,-1.1 3.5,-2 0.6,-0.1 h 0.5 l 0.6,0.3 0.3,0.4 0.3,0.1 h 0.5 l 1.6,-0.9 0.3,-0.1 1.3,-0.2 3.3,-0.1 0.8,1.7 0.5,5.2 0.4,1.5 0.5,1.2 2.6,4.2 1,1.9 0.3,1 0.1,0.9 -1,4.7 -0.5,1.2 -0.1,0.7 0.3,0.2 1,0.5 0.5,0.5 0.2,0.5 0.4,2.5 0.3,0.9 0.3,0.7 0.8,0.7 0.7,0.1 0.6,-2.2 0.9,-0.5 h 0.6 l 3.8,-1.3 0.7,-0.1 0.6,0.2 0.4,0.5 0.2,0.4 0.5,0.4 h 0.4 l 0.4,-0.2 0.6,-0.4 0.3,-0.1 h 0.4 l 0.7,0.1 h 2.3 l 2,-0.2 1.1,-0.6 0.6,-0.6 0.7,-1.1 1.9,-2.1 0.4,-0.5 0.2,-0.5 0.2,-0.5 0.3,-1.7 0.1,-0.5 0.7,-1.5 1.4,-2 0.4,-0.7 0.1,-0.5 0.2,-1.2 0.1,-0.5 0.3,-0.6 8.2,-8.8 0.4,0.1 0.4,0.3 0.3,0.6 0.3,0.5 0.9,1 0.3,0.6 0.2,0.6 0.1,0.6 v 0.5 l -0.1,1.1 0.2,0.4 0.4,0.1 1.8,-0.4 h 0.6 l 0.3,0.1 0.3,0.1 0.6,1.4 1.3,1.6 0.3,0.6 0.5,1.7 0.3,0.6 0.4,0.4 0.5,0.3 1.4,0.5 0.3,0.1 0.3,0.3 0.2,0.5 -0.2,0.4 -0.6,0.3 -0.4,0.3 -0.2,0.4 0.2,0.5 0.3,0.6 0.1,0.6 0.1,0.5 0.1,1.8 0.1,0.6 0.3,1.1 0.5,1.2 0.3,0.5 0.5,0.6 2,1.8 0.9,-2.8 0.6,-1.2 1.1,-1.5 0.2,-0.7 0.4,-3 0.8,-3.7 0.6,-1.6 0.5,-1.1 1.1,-0.6 0.6,-0.6 0.5,-1.9 0.2,-2 0.4,-0.6 0.5,-0.5 0.6,-0.1 0.4,0.2 1,1.6 0.4,0.4 0.9,-0.1 1.2,-0.8 3.5,-3.6 0.8,-0.4 0.5,0.2 h 0.6 l 0.6,-0.2 0.7,-0.3 2.6,-1.8 0.4,-0.2 0.8,-0.2 0.7,0.1 0.6,-0.3 0.5,0.3 0.2,0.5 0.3,1.1 0.5,1.8 3.5,6.8 1.2,1.3 0.9,0.5 0.8,-0.5 0.6,-0.2 0.6,-0.2 2.1,-0.1 0.6,-0.1 0.6,-0.3 0.3,-0.5 0.2,-0.6 0.1,-1.2 0.1,-0.6 0.3,-0.5 0.4,-0.3 0.7,-0.1 0.8,-0.1 1.1,0.2 0.6,0.5 0.5,0.6 0.1,0.5 -0.2,0.6 -0.2,0.5 -0.2,0.5 0.1,0.4 0.4,0.2 3.4,0.6 0.8,0.3 0.5,0.4 1.7,1.9 1.9,1.6 0.8,0.5 0.9,0.3 0.4,0.2 0.4,0.4 0.4,0.3 0.3,0.1 1.5,0.4 -0.2,2.5 0.2,1.1 0.2,0.9 0.2,0.4 0.1,0.2 0.8,2.5 0.5,3.6 0.7,2.4 0.6,1.3 1.3,0.9 0.9,1.6 0.5,1.3 1.8,6.8 1.7,1.6 0.9,1.9 0.8,1.2 0.1,0.7 -0.3,0.5 -0.4,0.4 -0.2,0.8 0.3,1.1 0.2,2.8 0.3,0.5 0.5,0.1 1.1,-0.4 h 0.6 l 0.5,0.1 h 0.6 l 1.1,-0.5 0.6,0.1 0.3,0.3 0.4,0.6 0.5,0.4 0.7,0.2 4.2,2.5 0.7,0.3 h 0.7 l 0.5,-0.1 0.5,-0.4 0.7,-1 0.4,-0.4 1.6,-1 1.4,-1.3 0.5,-0.3 1.9,-0.5 0.9,0.1 0.4,0.4 0.2,0.5 -0.1,0.6 -0.2,0.5 v 0.6 l 0.2,0.6 0.8,0.8 0.6,0.2 0.7,-0.1 0.6,-0.4 0.4,-0.5 0.2,-0.5 0.1,-0.5 v -1.1 l 0.3,-0.5 0.7,-0.4 1.8,-0.2 1.6,0.2 1.8,0.8 0.3,0.4 0.1,0.2 0.2,0.2 0.5,0.4 0.2,0.2 0.3,0.4 0.2,0.2 0.4,0.3 1.6,0.9 2.9,0.7 0.5,2.1 0.7,0.9 0.5,0.6 0.1,0.4 0.1,0.3 -0.1,0.4 v 0.7 l 0.1,0.4 0.3,0.3 0.7,0.5 0.6,0.5 0.2,0.5 0.2,0.3 0.2,2.6 v 0.7 l -0.1,1.1 -0.1,0.3 -0.1,0.3 v 0.3 l -0.1,0.4 0.3,2.6 0.2,0.5 0.2,0.2 h 0.2 l 0.5,-0.3 0.2,-0.1 h 0.3 0.7 l 0.4,0.1 0.4,0.2 0.3,0.3 2.9,4 1.2,1.3 0.2,0.4 0.1,0.4 v 0.4 0.3 l -0.1,0.2 -0.1,0.1 v 0.1 h -0.1 -0.1 l -0.2,0.1 -0.3,-0.1 h -0.1 l -0.3,-0.1 h -0.2 l -0.3,0.1 v 0.1 0.2 0.5 l 0.1,1.3 v 0.3 l -0.1,0.4 -0.1,0.3 -0.4,0.5 -0.4,0.5 -0.3,0.3 -0.8,0.5 -0.4,0.3 -0.1,0.2 -0.4,0.4 -2.1,0.9 -0.8,0.4 -2.3,1.9 -1.9,1.1 -0.7,0.6 -0.4,0.4 -0.1,0.7 0.1,1 0.1,0.6 0.1,0.3 0.3,1.8 v 0.6 0.6 l -0.2,0.9 -0.7,2.3 -1.1,2.3 -0.1,0.4 v 0.3 l 0.1,0.3 0.1,0.2 v 0.5 l -0.1,0.5 -0.2,1 -0.3,0.5 -0.2,0.2 h -0.2 -0.3 l -0.3,-0.1 -0.2,-0.1 -0.5,-0.3 -0.5,-0.3 -2,-0.7 h -0.3 -0.3 l -0.3,0.1 -1.6,0.5 -1.4,1.1 -1.6,2.3 -0.3,0.6 -0.2,0.8 -0.2,0.5 -0.5,1.1 -0.2,0.3 v 0.3 l 0.2,0.2 0.2,0.2 0.2,0.1 0.4,0.1 h 0.3 0.6 l 0.2,0.2 v 0.5 l -0.3,1.1 -0.3,0.5 -0.3,0.3 H 638 l -1.1,0.1 -0.3,0.1 -0.5,0.3 -0.2,0.3 -0.1,0.3 v 0.6 l -0.2,0.3 -0.3,0.1 -1.1,0.3 -0.3,0.1 -2.5,2.2 -1,0.6 -0.7,0.4 -1.4,0.2 -0.5,0.4 -0.4,0.5 -0.5,0.3 h -0.6 l -0.3,0.2 -0.1,0.1 h -0.1 v 0.1 l -0.1,0.3 -0.2,0.8 -0.6,1.3 -1.6,1 -1.5,-0.4 -1.3,-0.6 -1.7,-1.3 -1,-2 1,-2 -0.1,-0.2 -1.6,-1.4 -3.6,-0.3 -3.5,0.4 -2.4,0.9 -0.8,0.7 -12.3,10.2 -7.3,3.2 -2,1.7 -4.8,6.3 -1.3,0.6 -2.4,-1.3 -1.5,0.3 -2.7,0.1 -4.2,1.8 -4.5,3.7 -1,1.3 -0.5,0.8 -0.8,0.7 -0.7,0.9 -1.1,0.9 -0.8,1.1 -0.7,1.5 -1.1,1.2 -1.4,1.2 -0.6,1.6 -0.5,1.3 -0.6,1.5 -1,2.3 -0.4,1.6 -0.5,1.3 -0.6,2.5 -0.4,1.8 0.2,0.8 0.8,0.5 v 1.7 l -0.5,5 -0.1,0.9 -0.3,3.9 -0.1,3.4 0.3,2.2 -0.4,3.5 0.3,4.5 0.2,3.5 0.4,2.7 0.9,1.1 1.3,0.6 1.7,0.4 1.4,0.5 0.5,0.8 v 1 l -0.2,0.9 0.5,0.8 0.6,0.6 1,1.6 0.3,1.8 v 0.3 l -2.7,0.5 h -1.6 l -1.6,-0.1 -1.3,-0.4 -0.7,-0.5 -0.6,-0.7 -0.5,-0.7 -0.4,-1 -0.4,-0.1 h -1.8 l -0.7,-0.2 -1,0.7 -2,-0.8 -2.1,1.6 -1,0.2 h -1.1 l -1,0.1 -1,0.6 -1.8,1.8 -1,0.6 -1.3,0.2 -2.4,-0.3 -1.3,0.1 -1.1,0.5 -2.6,2.1 -0.5,0.7 0.6,1.6 0.7,0.9 0.1,0.3 -1.7,0.1 -1.3,-0.2 -2.9,-1 h -1.2 l -0.5,0.5 -0.5,1.3 -0.4,0.4 -0.6,0.1 -0.7,-0.3 -1.3,-0.7 -1.1,-0.3 -1.2,-0.9 -1,-1.3 -0.5,-1.4 H 512 l -2,-0.5 -3.6,-1.7 -0.7,-0.6 -1.7,-1 -2,0.2 -3.8,1.2 -2.9,-0.3 -1,0.4 -0.3,0.5 -0.5,1.2 -0.3,0.5 -1.4,1.1 -1.1,1.2 -0.7,0.4 -1,0.3 -1.6,0.2 -0.9,-0.2 -0.7,-0.5 -1.2,-1 -0.6,-1.3 -0.8,-3.1 -0.9,-1.5 -1,-0.4 h -1.1 l -1.5,-0.4 -3.4,-2.4 -1.3,-0.5 -3.9,-0.5 -1.1,-0.5 v -0.3 -0.2 l -0.1,-0.2 -0.2,-0.1 0.2,-2.1 0.4,-1 0.3,-0.7 1.1,-1.1 1.6,-0.2 -0.3,-0.3 -0.5,-0.8 -1.4,-0.4 -1,-0.7 0.5,-1.7 -7,-0.7 -0.7,-0.3 -3.4,-2.3 -0.9,0.1 -1.8,0.7 -2,-0.1 -0.9,3.3 -1.4,0.5 -0.9,-1.1 -1.1,-2.9 -1.1,-1.7 -1.1,-1.9 -0.6,-0.3 -0.5,-0.1 -0.3,-0.3 0.2,-1.2 -1.4,-0.4 H 437 l -2,0.7 -0.7,-0.1 -1.1,-0.8 -0.6,-1.2 -0.5,-1.3 -0.6,-1.2 -1.1,-1 -1.3,-0.4 -5.2,-0.3 -0.5,-0.3 -1,-0.9 -0.6,-0.2 -0.6,0.2 -0.6,0.5 -0.6,0.3 -0.6,-0.2 -1,-1 -0.5,-0.4 -1.9,-0.8 -2.7,-1.6 -1,-0.1 -1.2,0.1 -1.1,-0.3 -2.1,-0.8 -1.1,-0.1 -1.7,0.1 -1.4,0.6 -0.3,1.2 0.1,1.8 -0.9,2.3 0.7,1 -0.4,0.4 -0.3,0.3 -0.4,0.9 0.9,0.3 0.8,0.9 0.4,1.3 -0.1,1.4 -0.1,0.2 -0.4,0.7 -0.8,0.2 -2.2,-0.2 -7.7,0.2 -1.1,-0.5 -2.3,0.7 h -1.2 l -1.3,-0.2 -0.3,-0.3 v -0.3 -0.4 l -0.1,-0.3 -1.7,-1.4 -1.2,0.4 -1.1,1.1 -1.7,2.4 -0.9,0.2 -1,-1.2 -1.3,-2.3 -1,-0.5 -3.3,-0.9 -1,0.2 -1.2,0.8 -3.7,0.5 -4.8,1.8 -2.2,0.2 -2.4,-1 -0.4,-0.4 -0.3,-0.4 -0.4,-0.4 -0.8,-0.2 -0.6,-0.3 -0.2,-0.5 -0.1,-0.6 -0.4,-0.5 -1,-0.8 -0.7,-1.3 -0.4,-1.4 0.2,-1.5 -1.2,0.5 -1.7,0.5 -1.7,-0.2 -0.7,-1.6 z m 139.3,31.9 0.9,0.7 1.4,0.2 h 0.1 l 0.7,-0.2 h 0.2 l -0.7,-1.2 -0.6,-1.4 -0.7,-0.9 -0.7,0.3 -0.7,1.5 z M 358.9,748 l 0.2,0.4 v 0.5 0.6 l -0.1,0.7 -0.5,1.2 -0.2,0.3 -0.2,0.2 -0.2,0.2 -0.2,0.1 h -0.6 l -0.6,-0.3 -0.4,-0.6 -0.2,-0.9 0.2,-1.7 0.3,-0.8 0.5,-0.6 0.4,-0.1 h 0.3 l 0.8,0.2 0.3,0.3 z m -3.2,11 -0.5,-0.2 -0.5,-0.7 -0.2,-0.5 V 757 l 0.1,-1.2 1.4,-1.7 1.5,0.9 0.6,1.9 -1.1,1.9 -0.6,0.2 z"
       id="FROCC"
       name="Occitanie"
       style="fill:#bdcfff;fill-opacity:0.363914" />
    <path
       d="m 296.3,291.9 3.1,0.5 h 2.1 l 2,-0.6 0.3,-0.2 0.2,-0.1 0.5,-0.3 0.6,-0.1 1.3,0.5 0.2,0.2 h 0.4 l 0.4,0.2 2.3,-0.4 1,0.9 0.7,1.2 0.8,1.8 0.3,0.5 0.5,0.3 0.5,-0.2 0.4,-0.3 h 0.5 l 0.5,0.3 0.4,0.5 0.5,0.5 0.6,0.1 0.7,-0.3 0.4,-0.5 0.2,-0.6 0.1,-0.5 0.5,-0.3 3,-0.8 0.6,0.1 0.5,0.5 0.2,0.5 0.2,0.5 0.6,0.2 5.3,-1.3 0.7,-0.3 0.5,-0.5 2.1,-2.3 0.5,-0.3 0.7,-0.2 h 0.7 l 3.2,0.3 4.1,1.1 0.9,-0.2 0.3,-0.4 0.3,-0.4 0.6,-0.9 0.7,-0.4 0.9,-0.2 h 1.4 l 0.8,-0.3 0.5,-0.5 0.4,-0.5 0.1,-0.6 -0.1,-0.6 -0.1,-0.7 0.2,-0.5 0.5,-0.3 3.9,1.5 0.5,0.5 0.3,0.7 -0.2,1 -0.4,0.7 0.2,1 0.6,1.3 2.1,2.5 1.1,0.9 0.9,0.4 0.6,0.1 0.5,0.1 0.5,0.7 0.3,0.7 0.3,4.8 3.7,-0.5 h 0.6 l 0.8,0.2 1.1,0.4 h 0.8 l 0.4,-0.4 0.2,-1.2 0.2,-0.5 0.4,-0.3 0.3,-0.2 0.4,-0.1 h 0.5 l 0.7,-0.2 0.3,-0.2 0.3,-0.4 0.5,-0.6 0.4,-0.9 0.5,-0.6 0.6,-0.6 0.8,-0.2 0.6,-0.3 1.1,-0.8 5.4,-1.3 h 0.9 l 0.9,0.2 2.6,1.2 0.8,0.4 0.4,0.5 0.4,0.9 0.1,0.7 -0.1,0.7 -0.3,2.5 0.1,2.6 0.2,1.2 0.3,1 0.5,1.2 0.6,0.8 1,0.8 1.7,1 1.2,0.2 0.8,-0.2 0.6,-0.2 0.5,0.2 0.3,0.8 0.1,0.7 v 0.5 l -0.1,0.9 0.2,0.3 0.8,0.5 5.3,1.4 2.3,0.1 0.1,-0.1 0.1,-0.1 0.3,-0.2 0.6,0.1 0.7,0.4 1.1,1.4 1.3,2.1 0.6,0.8 0.7,0.7 1.5,0.9 1.2,0.3 1.7,-0.4 3.1,2.3 0.6,0.2 1.9,0.1 0.6,0.2 0.5,0.3 0.4,0.5 v 0.5 l -0.6,0.7 -1.2,0.5 -2.2,1.6 -0.7,0.3 -0.3,0.5 0.1,0.8 0.4,0.4 0.4,0.3 0.4,0.5 v 0.4 l -0.6,0.5 -0.6,0.2 h -1.3 l -0.5,0.1 -0.4,0.5 v 0.8 l 0.2,0.7 0.4,0.6 0.2,0.6 0.3,0.4 0.4,0.1 1.1,0.1 0.3,0.5 -0.1,0.9 -0.5,2 -0.1,1.1 0.1,0.9 0.4,1.3 -0.3,0.8 -0.5,0.9 -1.4,1.4 -0.9,0.6 -0.7,0.7 -0.4,0.9 -0.1,0.9 -0.1,0.7 0.1,0.7 v 0.7 0.7 0.7 l -0.1,0.6 -1.6,5.1 -0.6,0.8 -0.8,0.8 -1.9,1.2 -1.3,0.6 h -0.2 l -0.6,0.2 -1.3,0.9 -1.4,1.5 -0.7,1.9 0.5,1.2 v 0.1 l 0.2,0.6 -0.1,0.5 -0.2,0.4 -0.6,0.3 -0.9,0.1 -0.8,0.2 -3.3,1.7 -2.5,0.6 -1,0.6 -0.5,0.6 -0.1,0.4 -0.5,0.3 -0.8,-0.2 -1.4,-0.9 h -0.7 l -0.7,0.6 -0.3,0.6 0.1,0.7 0.1,0.5 0.2,1.2 0.1,0.6 -0.2,0.3 -0.9,0.2 -3.5,-1.1 -1.8,-0.3 -2.7,-0.7 -1.4,3.9 -0.3,1.1 v 1.2 l 0.4,1.6 0.1,0.7 v 0.7 l -2,4.5 -0.3,1.2 -0.7,2.3 -0.1,0.9 0.4,1.7 -0.1,0.8 -1.7,2.9 -1.7,2.4 -0.7,1.2 -0.3,0.7 -0.4,1.1 -1.1,5.2 -0.9,6.9 -3.3,-0.6 -1.1,0.4 -2,2.6 -0.3,0.6 -0.1,0.7 -0.1,0.7 -0.5,0.8 -0.7,0.4 -1.7,0.6 -0.6,0.5 -0.3,0.5 -0.2,0.5 -0.6,1.1 -1.5,-0.5 -0.3,-0.4 -0.3,-0.7 -0.1,-0.7 -0.3,-0.8 -0.7,-0.6 -0.7,-0.2 h -0.6 l -1.3,0.4 -3.5,-0.1 -6.6,0.8 -1.7,0.8 -3.5,1 -0.8,0.2 -1.4,-0.8 -0.7,-0.1 H 331 l -1.2,0.5 -0.6,0.3 -0.5,0.6 -0.2,0.5 0.1,0.6 0.7,1.1 0.1,0.5 -0.3,0.5 -2.7,1.3 -1,1.1 -0.3,0.1 -1.2,0.5 -3.9,0.4 -3.5,-0.3 -1.7,-0.5 -3.6,0.6 h -0.8 l -0.6,-0.1 -0.6,-0.3 -2.4,-1.6 -0.7,-0.2 -0.9,-0.2 -0.4,0.3 -0.1,0.4 v 0.2 l -0.2,0.6 2.3,1.6 0.8,1 0.8,1.7 0.6,0.9 1.7,1 0.8,1.1 0.2,0.8 0.1,1.9 0.4,1.5 0.6,0.9 0.5,0.7 3.6,2.3 1.3,1.2 0.6,0.8 0.2,0.5 -0.1,0.4 -0.2,0.6 -0.6,1.1 0.1,1 0.5,1.5 1.7,2.7 1.7,3.5 0.2,0.9 0.2,0.7 v 0.6 0.7 l 0.1,0.7 0.4,0.9 0.7,1 0.4,0.7 0.2,0.7 0.1,1.8 0.5,2.6 v 0.9 l -0.1,0.5 -0.3,0.5 -0.5,0.4 -0.4,0.6 -0.2,0.9 1,4.8 0.1,0.6 -0.1,0.6 -0.5,1.4 -0.1,0.9 0.3,1.3 0.4,0.4 h 0.4 l 0.4,-0.3 0.4,0.1 2.1,1.7 0.7,0.8 0.2,0.7 -0.2,0.7 -0.4,0.5 -0.5,0.2 h -0.3 l -0.5,-0.1 h -0.5 -0.6 l -0.5,0.3 -1.9,2.1 -0.4,0.3 h -0.5 -1.8 l -0.6,0.2 -1.6,0.9 -0.5,0.3 -0.9,0.6 -0.8,0.2 -4.2,-2.7 -1.6,-0.3 h -1 l -0.9,0.3 -0.4,0.2 -2,0.4 -0.7,0.2 -0.6,0.1 -1.1,0.1 -0.7,-0.4 -0.2,-0.4 0.3,-0.5 0.5,-0.5 0.3,-0.6 0.1,-0.6 -0.5,-0.7 -0.5,-0.1 -1.1,0.5 -0.6,0.2 -1.3,0.1 -3.8,1 -0.6,0.2 -0.4,0.5 -1.1,1.6 -0.3,0.5 -0.8,-1.2 -2.8,-0.2 -2.3,1.4 0.1,2.9 -1.7,-0.5 -1.2,-1.5 -1.1,-1.7 -1,-0.2 -0.6,-0.2 -1.9,-1.1 -1.4,-1.2 -0.8,-0.4 -3.3,1.1 -1.6,-0.1 -0.7,-1.9 -0.3,-2.3 -1,-1.6 -1.4,-1 -1.7,-0.3 -4.2,-0.2 -1.6,-0.6 0.5,-1.1 -1,-1 -3.3,-0.5 -2.1,-1.9 -1.7,-0.4 -0.8,-0.5 -0.5,-0.8 -0.7,-1.9 -0.6,-1 0.1,1.1 0.3,1.5 0.1,0.8 -0.3,0.4 -0.5,-0.4 -0.6,-0.8 -1.4,-6.6 0.3,-1.5 -1,-0.5 -0.5,-1 -0.3,-1.2 -0.4,-1 -0.9,-1.1 -1,-0.9 -0.7,-0.8 -0.6,-2.3 -0.8,-0.7 -1.1,-0.3 -1,-0.2 -0.5,-0.5 -1.9,-3.8 -3.4,-3.6 -1.9,-1.4 -1.6,-0.5 -0.8,-0.6 -0.4,-1.4 -0.2,-1.7 -0.1,-1.6 0.1,-2 0.4,-0.9 1.6,-1.1 -0.3,-1.3 0.9,-1 2.4,-1.5 0.7,-1.3 1,-3.3 0.8,-1.6 1.1,-0.8 -0.1,-1.6 -0.7,-1.6 -0.7,-1 -1,-1 -3.7,-2.1 -7.1,-1.2 -2.2,-1.3 0.8,-0.5 0.7,-0.6 0.7,-0.6 2,-0.2 0.5,-0.4 0.2,-0.7 0.2,-1.4 v -1.2 l -0.7,-1.4 -0.2,-1.4 0.1,-1 0.3,-1.2 0.4,-1.1 0.5,-0.8 1.5,-0.6 5.7,-0.6 0.4,-0.3 0.4,-0.2 0.5,-0.1 0.5,0.6 0.5,0.4 3.1,0.9 1,-0.1 -0.5,-0.6 h 0.8 l 0.6,0.2 0.6,0.4 0.6,0.6 h -1.3 v 0.7 l 2.6,1.9 2.5,0.5 0.7,0.4 1.3,1.5 1.4,0.6 3.4,0.1 -1.3,-0.8 -2.5,-0.5 -1.1,-0.9 -1.9,-2.2 -2.1,-1.9 -2.2,-1.3 -1.2,-0.4 -1.5,-0.1 -0.5,-0.2 -0.9,-0.9 -2.3,-0.7 -8.6,0.6 -1.9,1.2 -0.4,0.7 -0.3,0.6 -0.3,0.5 -0.7,0.6 -1.8,0.6 -1.5,1.4 -1.1,0.5 h -1.2 l -1.2,-0.5 -0.9,-0.8 -1.5,-1.8 -1,-0.6 -1,-0.1 h -0.6 l -0.5,0.1 -0.4,0.5 -0.3,0.6 -0.1,0.5 v 0.3 l -1.8,-0.1 -5.8,-3 v -0.6 l 1.4,0.2 2.6,1.2 1.4,-0.2 1.1,-1.2 -0.6,-1.3 -1.2,-1.2 -0.9,-1.3 -0.5,0.3 -0.2,0.1 -0.2,0.2 0.3,0.7 v 0.3 l -0.3,0.9 h -0.4 l -0.1,-2.6 -0.8,-1.4 -2.5,-1.7 4.9,-3 0.7,0.1 0.6,0.2 1,0.2 -0.1,0.6 h -0.1 l -0.2,0.1 0.4,0.6 0.6,-0.7 2.2,-1.2 0.2,-0.6 -1,-0.2 h -1.5 l -1,-0.4 0.5,-1.3 -1,-0.7 -0.3,-0.1 h 0.1 l 0.4,-0.8 0.4,-0.3 0.8,-0.1 0.6,0.3 0.6,0.4 0.6,0.3 h 0.6 l 1.2,-0.3 h 0.6 0.6 l 0.6,-0.1 0.7,-0.4 0.9,-1.2 0.5,-0.9 0.3,-0.7 0.2,-0.5 0.1,-0.1 0.2,-0.2 0.4,-0.2 0.7,-0.1 0.4,0.2 0.3,0.2 0.1,0.1 0.1,0.2 0.3,0.2 0.5,0.1 0.8,-0.1 0.8,-0.3 1,-0.7 0.6,0.1 0.2,0.2 v 0.3 0.5 0.4 l 0.1,0.3 0.2,0.4 0.4,0.2 0.5,-0.1 0.4,-0.3 0.5,-0.8 0.3,-1 0.3,-0.7 0.7,-0.6 0.7,-0.2 0.8,-0.7 0.6,-1.2 0.7,-4 0.5,-1.2 0.2,-0.4 0.1,-0.4 -0.1,-0.4 v -0.3 l 0.2,-0.4 v -0.3 l -0.1,-0.5 -0.2,-0.3 0.5,-1.6 1.9,-1.1 0.9,-0.7 0.3,-0.2 0.4,-0.1 2,-0.4 2.1,0.1 1.2,-0.8 4.5,-1.7 1.9,0.8 1.2,0.2 h 0.6 l 7.5,-2.4 1.7,-1.1 1,-0.9 0.3,-0.6 0.4,-0.6 0.5,-0.6 0.5,-0.5 1.3,-1 6.4,-3 1,-1 0.7,-0.4 1.9,-0.2 1.3,0.2 0.7,0.2 0.6,0.4 0.4,0.7 0.2,0.6 0.9,0.7 0.8,0.3 6.2,1.1 0.5,-2.7 0.6,-0.7 0.3,-0.6 0.3,-0.8 0.5,-2.4 0.3,-0.9 0.6,-1.5 0.5,-1.4 0.6,-3.2 0.4,-1.3 0.3,-0.6 0.3,-0.6 0.9,-1.1 0.5,-0.5 0.6,-0.4 0.7,-0.3 0.7,-0.2 2.2,-0.1 0.6,-0.1 0.6,-0.3 0.5,-0.3 0.5,-0.3 0.1,-0.1 v -0.5 -0.8 l -0.2,-1.6 v -1.1 l 0.1,-1 v -0.7 l -0.3,-0.5 -1,-0.9 -0.3,-0.5 -0.1,-0.4 -0.1,-0.3 -0.7,-5.7 0.1,-0.4 0.2,-0.3 0.2,-0.1 0.1,-0.3 0.1,-0.4 v -0.5 l -0.4,-2.7 -0.1,-0.6 -0.2,-1.8 -0.1,-0.6 -0.1,-0.4 -0.4,-1 -0.2,-0.2 -0.2,-0.3 -0.2,-0.4 v -0.7 l 0.3,-1.1 0.3,-0.7 1.2,-2.4 0.2,-0.5 v -1.1 l -0.1,-1.8 -0.7,-6.9 v -1.6 l 0.2,-1.6 z M 222,456 l 0.7,1.2 -1.4,-0.6 -5,-0.1 -0.7,-1.6 0.5,-0.8 1.1,-0.2 1.2,0.2 2.4,1 z m 7.7,-23 0.6,0.6 0.3,1.3 0.2,1.9 -0.3,1.2 -1,-0.6 -1,-2.1 -1.3,-2.1 -1.5,-1 -1.7,0.8 -1,-1.4 -0.9,-3.5 -1.1,-1.3 3.5,-0.2 1.2,0.2 1.2,0.8 0.2,1 -0.3,1.2 0.1,1.3 0.7,0.8 z"
       id="FRPDL"
       name="Pays de la Loire"
       style="fill:#bdcfff;fill-opacity:0.363914" />
    <path
       d="m 296.3,291.9 v 3.8 l -0.2,1.6 v 1.6 l 0.7,6.9 0.1,1.8 v 1.1 l -0.2,0.5 -1.2,2.4 -0.3,0.7 -0.3,1.1 v 0.7 l 0.2,0.4 0.2,0.3 0.2,0.2 0.4,1 0.1,0.4 0.1,0.6 0.2,1.8 0.1,0.6 0.4,2.7 v 0.5 l -0.1,0.4 -0.1,0.3 -0.2,0.1 -0.2,0.3 -0.1,0.4 0.7,5.7 0.1,0.3 0.1,0.4 0.3,0.5 1,0.9 0.3,0.5 v 0.7 l -0.1,1 v 1.1 l 0.2,1.6 v 0.8 0.5 l -0.1,0.1 -0.5,0.3 -0.5,0.3 -0.6,0.3 -0.6,0.1 -2.2,0.1 -0.7,0.2 -0.7,0.3 -0.6,0.4 -0.5,0.5 -0.9,1.1 -0.3,0.6 -0.3,0.6 -0.4,1.3 -0.6,3.2 -0.5,1.4 -0.6,1.5 -0.3,0.9 -0.5,2.4 -0.3,0.8 -0.3,0.6 -0.6,0.7 -0.5,2.7 -6.2,-1.1 -0.8,-0.3 -0.9,-0.7 -0.2,-0.6 -0.4,-0.7 -0.6,-0.4 -0.7,-0.2 -1.3,-0.2 -1.9,0.2 -0.7,0.4 -1,1 -6.4,3 -1.3,1 -0.5,0.5 -0.5,0.6 -0.4,0.6 -0.3,0.6 -1,0.9 -1.7,1.1 -7.5,2.4 h -0.6 l -1.2,-0.2 -1.9,-0.8 -4.5,1.7 -1.2,0.8 -2.1,-0.1 -2,0.4 -0.4,0.1 -0.3,0.2 -0.9,0.7 -1.9,1.1 -0.5,1.6 0.2,0.3 0.1,0.5 v 0.3 l -0.2,0.4 v 0.3 l 0.1,0.4 -0.1,0.4 -0.2,0.4 -0.5,1.2 -0.7,4 -0.6,1.2 -0.8,0.7 -0.7,0.2 -0.7,0.6 -0.3,0.7 -0.3,1 -0.5,0.8 -0.4,0.3 -0.5,0.1 -0.4,-0.2 -0.2,-0.4 -0.1,-0.3 v -0.4 -0.5 -0.3 l -0.2,-0.2 -0.6,-0.1 -1,0.7 -0.8,0.3 -0.8,0.1 -0.5,-0.1 -0.3,-0.2 -0.1,-0.2 -0.1,-0.1 -0.3,-0.2 -0.4,-0.2 -0.7,0.1 -0.4,0.2 -0.2,0.2 -0.1,0.1 -0.2,0.5 -0.3,0.7 -0.5,0.9 -0.9,1.2 -0.7,0.4 -0.6,0.1 h -0.6 -0.6 l -1.2,0.3 h -0.6 l -0.6,-0.3 -0.6,-0.4 -0.6,-0.3 -0.8,0.1 -0.4,0.3 -0.4,0.8 h -0.1 l -1,-0.1 -0.8,-0.5 0.6,-1.7 -0.9,-1.2 0.7,-0.6 3.8,-0.2 2.3,-0.6 h 1.3 l -1,-0.2 -1.7,0.3 -1.1,-0.1 -4.7,-1.8 -1,-0.2 -0.8,0.1 -2.1,0.7 h -2.3 l -0.5,0.2 -0.4,0.3 -0.4,0.1 -0.6,-0.6 0.9,-0.2 1.1,-0.7 0.9,-1 0.5,-1.2 -1,0.9 -0.8,0.2 -0.9,-0.1 -1.1,0.2 0.5,0.1 0.4,0.2 0.2,0.4 0.2,0.6 h -1.6 l -0.7,-0.2 -0.7,-0.5 -0.1,2.2 -0.8,0.5 -2.1,-0.7 h -1 l -3.2,1.2 -1.2,0.1 -1,-0.1 -0.8,-0.4 -0.8,-0.8 -0.1,-0.4 -1,-1.8 -0.2,-0.1 -0.3,-0.5 -0.6,-0.2 -0.7,-0.2 -0.2,-0.1 0.1,-0.1 v -0.4 l -1.1,-0.4 1.1,-0.8 h 1.7 l 0.9,1.8 h 0.4 l 0.3,-0.4 0.4,-0.2 0.4,0.1 0.6,0.5 0.1,-0.5 0.3,-1.4 1,1.2 1.5,0.5 1.7,-0.2 1.3,-0.9 -0.4,-0.6 2.4,-3.4 0.3,-1.7 -1.4,-1.8 v 0.6 l 0.6,0.6 0.1,0.6 -0.4,0.5 -0.8,0.2 0.9,0.6 -0.3,0.4 -0.2,0.2 -0.8,0.1 -0.3,-0.5 -3.1,-2 1.3,0.2 1.3,0.4 -0.8,-1.1 -0.7,-0.4 -1.9,-0.4 0.8,0.6 -1.3,0.6 -3.2,0.3 -0.6,0.7 -0.5,1.1 -1.2,0.6 -2.1,0.5 v -0.6 h 0.4 v -0.7 l -0.8,0.1 -0.2,0.2 -0.2,0.4 h -0.5 l -0.2,-1.1 -0.1,-1 0.2,-0.7 0.6,-0.4 h -0.9 l -0.7,-0.5 -0.4,-0.9 -0.1,-1.1 H 179 l 0.1,0.7 0.3,1.2 0.1,0.6 v 2.2 l 0.2,0.9 0.5,1 0.7,0.9 0.7,0.7 -0.2,0.6 -0.1,0.3 -0.2,0.3 -0.1,-0.3 -0.7,-0.9 -0.5,0.3 -0.5,-0.5 -0.7,-1 -0.8,-0.7 0.3,1.2 -0.3,0.5 -0.6,-0.2 -0.3,-1.2 -0.2,-1.4 -0.4,0.1 -0.2,1 0.4,1.3 -0.9,-0.1 -0.4,-0.1 -0.4,-0.5 -1.9,1.1 -1,0.1 -0.9,-0.5 0.4,-0.3 0.4,-0.4 -0.6,-0.5 -0.7,-0.5 -0.7,0.1 -0.5,0.9 0.3,0.2 0.2,0.3 0.3,0.2 -0.7,3.1 0.4,2.6 1,2.1 1.4,1.6 h -0.9 l -1.2,-0.4 -0.4,0.4 h -0.4 l -0.8,-2.6 -0.1,-0.9 0.2,-1 0.5,-1.5 0.2,-1.3 -0.2,-2.1 -0.4,-1.6 -0.7,-1.2 -0.9,-1 -0.6,-0.4 -0.7,-0.3 -0.5,-0.3 -0.3,-0.6 0.1,-1.2 0.8,-2.6 4.6,-2.1 -0.2,-0.5 -0.1,-0.5 -0.1,-0.7 v -0.9 l -0.3,0.2 -0.7,0.3 -0.3,0.2 v -2 -0.6 h -0.4 l -0.5,1 -0.6,-0.2 -0.9,-0.4 -0.9,0.2 0.8,0.3 0.6,0.7 0.4,1 0.3,1.2 -0.3,0.1 -0.1,0.1 v 0.1 l -0.1,0.4 -0.7,-0.6 -0.4,0.4 -0.5,0.6 -0.9,0.2 0.2,0.3 0.7,1 -0.9,0.4 -0.3,0.8 -0.2,0.9 -0.6,0.4 -0.4,-0.4 -1.9,-2.1 -1.6,-0.5 -2.7,-0.7 -1.6,-0.1 1.1,-0.5 1.1,0.2 2.4,0.9 v -0.6 l -0.9,-0.6 -1.1,-0.4 -2.6,-0.3 v -0.6 l 0.5,-0.1 0.3,-0.2 v -0.5 -0.8 l 0.2,-0.4 1.1,0.2 0.4,-0.1 0.8,-2.1 0.5,-1.1 0.8,-0.6 v -0.7 l -1.3,1.6 -1.7,1.6 -1.9,1.1 -1.3,0.4 0.5,0.2 0.4,0.4 0.3,0.5 v 0.6 l -5.1,1.2 -0.9,-0.2 -0.2,-0.5 -1.9,-2.4 -0.9,-1.9 -0.7,-0.8 -0.2,-0.4 -0.3,-0.7 -0.6,0.6 H 143 l -2.1,-0.6 -1.6,0.1 -0.6,-0.1 -0.4,-0.3 -0.8,-0.8 -0.2,-0.2 -2.4,0.2 -1.2,-0.5 -0.5,-1.2 -0.5,-0.3 -3.3,1.8 -0.9,-0.8 h -1.3 l -1.4,0.3 -1.1,-0.1 -0.1,-0.3 -1.1,-2.3 -0.5,-0.4 -0.4,-0.4 -0.2,-0.5 0.2,-1.1 h -0.5 l -0.4,-0.2 -0.8,-0.5 -0.2,-1 -1.1,-1.3 -1.7,-1.2 -1.6,-0.3 0.5,1.9 -0.4,1.4 -1.4,1.5 -1.3,-0.3 h 0.7 l 0.5,-0.1 0.3,-0.4 0.2,-0.8 -0.7,0.2 -0.6,0.1 -0.5,0.2 -0.3,0.8 -1.8,-1.5 -0.8,-0.3 -1,-0.1 -0.7,-0.4 -0.8,-1.1 -0.6,-1.5 -0.2,-1.5 -0.7,1.1 0.4,1.4 0.8,1.3 0.8,0.7 v 0.6 h -0.8 l -0.6,0.3 -0.6,0.4 -0.6,0.6 -1.2,-2 -0.8,0.2 -0.2,1.1 0.9,0.7 -0.2,0.3 -0.2,0.3 v 0.6 h 1.7 v 0.7 l -2,1.9 -1,0.6 -1.5,0.4 -9.1,-0.4 0.1,-0.7 -0.2,-1.3 0.1,-0.5 0.4,-0.3 h 0.6 l 0.5,-0.1 0.3,-0.6 -0.2,-1.6 -1,-2.4 -0.6,-2.5 -0.9,-1.7 -2.9,-3.9 -5.5,-4.3 -0.6,-0.3 -0.9,0.5 -0.7,0.9 -0.8,0.5 -1.9,-1.9 -1.1,-0.2 -2.1,0.2 -4.6,-1.4 0.4,-0.3 0.3,-0.5 0.3,-0.6 0.4,-0.7 V 332 l 0.1,-0.4 0.2,-0.3 h 0.2 l 0.5,0.5 0.3,0.2 20,-4.5 3.5,1.1 0.9,-0.4 0.3,-0.7 0.6,-2.6 -0.3,-1 -0.9,-1.2 -0.2,-0.6 -0.3,-2.1 -0.8,-0.8 -2.6,-0.6 -0.5,-0.3 -0.4,-0.5 -0.3,-0.5 -0.1,-0.6 -1.6,0.5 -3.3,-2.1 -1.7,0.6 -0.9,1.7 -0.9,2.1 -1,1.7 -1.6,0.6 0.5,-2 0.3,-0.6 -0.7,-1.1 -0.4,-0.8 -0.1,-0.6 0.3,-1.1 0.5,-0.4 0.2,-0.4 -0.4,-1 -0.8,-0.2 -3.7,-0.1 0.2,-1 -0.2,-0.9 0.7,-0.4 0.5,0.1 0.5,0.2 0.7,0.1 0.8,-0.3 0.1,-0.6 -0.2,-0.7 -0.1,-0.3 1.1,-2.9 0.8,-0.8 1,0.5 -0.8,3.4 1.7,0.9 5.6,-0.4 0.6,0.3 0.4,0.4 0.5,0.3 0.8,0.2 0.7,-0.1 2.9,-0.8 4.2,-0.3 -0.4,0.4 -0.4,0.1 h -0.9 l 1.3,0.6 5,-1.1 v -0.7 l -1.9,0.1 -0.7,-0.3 -0.3,-1.1 -0.5,0.7 -0.9,0.2 -0.8,-0.3 -0.3,-0.9 -0.4,0.1 -2.6,0.2 0.5,-0.9 0.2,-0.2 0.6,-0.2 v -0.4 l 0.3,-0.4 0.6,-0.4 1.2,-1.4 -1.1,0.1 -1.4,1 -0.9,0.3 v -0.7 h 0.4 v -0.7 h -0.4 l -0.2,0.5 -0.4,0.5 -0.2,0.4 -1,-0.4 -1.9,1.3 -1.4,0.3 0.2,-0.4 0.2,-0.2 -0.4,-0.6 -0.5,0.5 -0.7,0.4 -0.9,0.2 -0.8,0.1 v -0.6 l 3.5,-4.3 0.7,-0.6 5.9,-3.5 -1.1,0.4 -1.9,1.1 -1.3,0.4 -4.1,0.7 -2,0.8 -3.9,2.5 -3,0.8 -1.8,0.9 -1.2,0.2 -1.1,-0.3 -2.2,-0.9 -1.2,-0.2 -0.2,0.3 v 0.7 l -0.1,0.7 -0.5,0.3 h -3.2 l -0.8,-0.3 -0.5,-1 -0.4,-1.9 1.1,-0.1 -0.1,-1.2 -1,-2.6 -0.1,-1.7 0.3,-1.8 0.7,-1.2 1.2,-0.4 v -0.6 l -1.6,-1.1 0.6,-2.7 1.6,-2.9 1.1,-1.6 0.6,0.4 0.7,0.3 -0.5,-0.7 1,-0.7 1.2,-0.4 1.9,-0.2 1.2,0.3 2.1,1.2 0.7,-0.2 -1.4,-2 -0.5,-1.3 0.9,-0.6 2.8,0.8 1.1,-0.1 -1.6,-0.7 0.1,-0.3 0.2,-0.4 -0.2,-0.3 -0.5,-0.3 v -0.6 h 4.8 l 1.4,-0.2 2.1,-1 1.4,-0.1 -0.9,-0.5 -0.3,-0.1 V 277 l 1.7,-0.3 1.7,-1 1.7,-0.7 1.6,0.1 1.1,1.3 -0.4,2.1 1.4,-0.2 1.9,-1.1 0.7,-0.2 0.7,0.2 1.4,0.5 h 0.9 V 277 l -1.2,-0.3 0.3,-1 1.1,-1.1 1,-0.7 1.2,-0.5 1.4,-0.3 1.4,0.1 1.1,0.7 0.4,-0.6 h 0.3 l 0.3,0.4 0.3,0.7 h 0.4 l 0.4,-0.4 0.2,-0.6 0.1,-0.7 -0.3,-0.8 0.9,-0.2 0.8,-0.3 1.3,-0.8 2.2,-0.7 0.3,0.4 -0.1,0.8 -0.2,0.7 v 0.5 l 0.8,0.3 v 0.6 h -0.5 v 0.7 l 0.7,0.4 0.4,0.7 0.1,0.9 -0.4,1.1 1.8,-1.7 0.9,-0.5 1.2,0.3 -0.6,0.5 -0.3,0.2 v 0.6 l 0.8,1 1.8,1.2 0.8,1 0.5,-0.6 -0.5,-0.7 0.5,-0.6 -0.3,-0.6 -0.2,-0.8 -0.4,-1.9 h 0.4 l 0.2,0.6 0.2,0.3 0.5,0.5 -0.2,-1.7 0.2,-1.8 0.5,-1 0.8,0.6 0.2,-0.4 0.2,-0.5 v -0.5 -0.6 l 0.8,1.1 1.2,0.4 2.8,-0.2 0.7,0.3 1.4,1.3 0.7,0.4 h 0.8 l 2.2,-0.6 v 1.6 l 1.5,0.4 h 1.8 l 0.9,-0.4 -0.6,-2.2 -0.2,-1.4 0.2,-0.7 3.2,-0.6 -0.9,-0.6 -2.1,-2.6 -0.3,-1.6 0.7,-0.8 1.7,-0.8 1.4,-2.4 0.3,-0.8 h 0.4 l 0.6,0.5 2,0.1 2.1,1.3 h 0.8 l -0.3,0.3 -0.2,0.3 -0.1,0.3 -0.2,0.4 1.5,0.1 h 0.7 l 0.6,-0.4 0.6,-0.8 0.4,-0.3 5.2,-1.9 0.8,-0.6 h 0.4 l 0.6,0.2 1.8,-2.4 1,0.3 0.4,1.3 v 1.9 l -0.5,1.7 -0.8,0.9 0.1,0.4 0.1,0.3 0.3,0.6 0.2,-1.2 0.5,-0.9 1.9,-2.3 1.5,-1.3 0.5,-0.7 0.7,0.3 1.1,-1.4 0.8,-0.3 0.8,0.5 0.4,0.9 v 1 l -0.4,0.9 v 0.6 l 0.9,0.7 -0.5,0.7 -0.8,2.5 -0.4,0.7 -1.3,1.8 v 0.7 h 0.4 l 2.1,-4.2 1.2,-1.8 1,0.2 0.6,-0.5 0.6,-0.2 0.7,0.2 0.6,0.5 -0.4,0.7 0.2,0.1 h 0.1 l 0.1,0.1 v 0.4 l -0.6,0.2 -0.5,0.3 -1,0.8 v 0.6 l 0.8,0.7 1.6,0.6 3.1,0.1 1.3,0.5 -0.1,0.8 v 0.5 l 0.1,0.7 -0.6,0.5 -0.3,0.1 v 0.6 l 0.9,0.6 1.1,1 1,1.1 0.4,0.9 4,3.5 0.6,2.8 0.3,0.7 0.1,0.5 -0.2,0.5 -0.1,0.4 0.2,0.6 0.3,0.3 0.8,0.4 1.5,1.1 3.5,1.8 -0.2,0.8 -0.2,0.7 -0.4,0.5 -0.4,0.5 h 0.7 l 0.6,0.3 0.5,0.6 0.5,0.7 0.9,0.7 0.1,-0.9 v -1.3 l 0.3,-0.7 2.4,0.1 1,-0.4 1.2,-1.3 1.5,-2.4 0.5,-0.6 0.6,-0.5 1.1,-0.3 4.2,-2.6 0.9,-1 v -0.7 h -0.6 l -1.2,-0.6 2.8,-0.8 1.3,0.2 0.6,1.2 1.6,-0.6 1.9,-1.2 1.6,-1.6 0.8,-1.7 0.3,1 0.4,0.7 0.6,0.3 0.8,-0.1 v 0.7 l -0.4,0.4 -0.3,0.4 -0.2,0.6 -0.3,0.5 -1.7,1.9 1.1,0.9 1.1,-0.8 1.3,-1.3 1.4,-0.7 0.3,0.5 0.3,2.2 0.2,0.5 0.7,0.3 0.4,0.8 0.3,1.1 0.1,1 0.6,-0.4 0.5,-0.7 0.2,-1 v -1.1 l 0.2,1.4 0.4,1.1 0.5,0.6 1,-0.6 v -0.6 l -0.3,-0.1 -0.6,-0.5 0.7,-1 0.8,-0.6 0.7,0.1 0.8,0.8 -0.4,-0.5 -0.4,-0.7 -0.5,-1.3 2.8,-1 3,-0.3 0.1,0.4 1.3,2.4 0.1,1.1 0.3,0.9 0.6,0.7 0.7,0.2 -0.2,1 -0.2,0.3 1.6,2.5 0.4,1.2 -0.3,2.1 0.6,-0.7 1.9,-1.2 -0.5,-0.4 -1.2,-0.9 0.4,-0.7 -1,-1.7 -0.2,-1.5 h 0.4 l 0.3,0.5 0.3,0.2 0.7,0.6 -0.5,-1.1 -0.5,-0.5 -0.7,-0.3 h -0.7 l -0.5,-0.5 -1.2,-2.8 -0.6,-1.2 0.2,-0.7 0.5,-0.9 0.7,-0.6 0.9,-0.3 0.3,-0.3 v -0.7 l 0.1,-0.6 0.5,-0.3 h 2.3 l -0.3,-0.7 6.3,-1.3 -0.2,0.4 v 0.4 l 0.2,0.5 0.4,0.7 -1.5,2.5 v 2.2 l 1.4,1.6 2.6,0.7 4.5,0.1 4.9,-0.8 3,-1.6 0.4,-0.1 0.1,0.2 0.2,0.7 0.1,0.5 0.2,0.6 0.5,1.3 1,1.9 0.3,1.1 0.3,0.5 0.2,0.5 0.2,1.1 0.1,0.7 0.6,1.3 1.8,3.3 0.5,0.5 1.6,1.1 0.4,0.6 0.6,0.5 1,0.3 h 1.4 l 1.8,-0.7 0.9,-0.6 1.3,-1.3 0.6,-0.4 1.5,-0.5 0.5,-0.3 0.5,-0.5 0.5,-0.6 0.8,-1.3 0.5,-0.6 1.1,-0.1 1.6,0.1 6.3,1.9 1,0.8 z m -122.8,108.7 -0.2,1.7 -1.7,0.5 -4.8,-0.4 -3.2,-1 -1.1,-0.8 0.2,-1.4 -0.5,-1.5 -0.6,-1.5 -0.4,-1.3 0.5,-0.5 0.3,-0.6 h 0.4 l 0.5,0.5 0.8,0.2 2.8,1.5 1.5,1.2 0.2,0.2 2.1,2.2 0.8,0.4 1.8,-0.1 z M 50.7,293.9 l 0.1,0.3 0.2,0.2 0.4,-0.1 v 0.7 l -3.2,1.7 -1.1,0.2 v -0.6 l 0.3,-0.1 0.4,0.1 H 48 l -0.4,-1 -0.6,-0.1 -1.5,0.4 V 295 l 2.5,-1.5 1.4,-0.4 1.2,0.6 z"
       id="FRBRE"
       name="Bretagne"
       style="fill:#bdcfff;fill-opacity:0.363914" />
    <path
       d="m 448,143.2 8.9,6.3 10.2,10.8 0.9,1.3 0.9,3.8 0.6,1.4 1.3,2.1 0.5,1.4 0.2,0.7 0.1,1 -0.5,0.7 -1.1,0.6 -0.6,0.7 -2.1,3.4 -0.4,1.2 0.1,0.8 0.6,0.1 0.6,-0.2 0.7,-0.3 0.6,-0.1 h 0.6 l 0.3,0.8 -0.3,0.9 -0.7,1.1 -0.7,0.6 -1.2,0.7 -0.4,0.6 0.1,0.5 0.4,0.5 0.2,0.7 v 1.8 l 0.2,2.9 0.3,1 0.3,1.2 0.2,3.2 0.2,1.1 0.5,0.6 h 0.3 l 0.4,-0.1 0.6,-0.3 0.6,-0.2 0.6,0.1 0.5,0.9 -0.1,0.9 -0.4,1.1 -0.5,0.5 -0.4,0.1 -0.2,0.1 -0.1,0.2 -0.2,0.4 -0.5,1.3 -0.6,1.4 -0.2,1.2 v 1.2 l 0.2,2.7 1.8,6.8 1.7,4.1 0.4,1.6 -0.1,0.1 -0.1,0.1 -0.3,0.2 -0.5,0.1 -0.4,-0.2 -0.2,-0.1 -0.1,-0.2 -0.8,-1 -0.5,-0.6 -0.6,-0.3 -0.6,0.1 -0.7,0.4 -0.8,1.3 v 0.2 l 0.1,0.6 0.3,1.2 -1.8,3.8 -3,10.2 -2.4,1.3 -7.9,1.9 -0.6,0.6 v 0.6 l 0.6,1.4 0.1,0.6 v 0.6 0.3 l -0.2,0.8 -0.1,0.4 0.1,0.6 0.3,0.5 0.5,0.2 0.6,0.1 0.5,0.1 0.3,0.3 v 0.8 l -0.1,0.7 0.1,0.6 0.3,1.1 -2.5,1.6 -0.3,0.5 -0.1,0.7 0.5,2 v 0.8 l -0.2,0.9 -0.4,0.6 -0.5,0.5 -1.5,0.7 -1,0.7 -1.4,1.2 -0.7,1 -0.4,0.9 -0.2,0.9 -0.5,1.3 -0.6,0.7 -0.7,0.5 -1.4,0.6 -2.6,1.6 -0.3,0.1 -0.3,0.1 -0.1,-0.1 -0.6,-0.4 -0.5,-0.2 -0.6,-0.1 -2.2,0.2 h -0.7 l -0.6,-0.2 -0.6,-0.2 -1.7,-1.5 -0.7,-0.3 -0.3,0.1 -0.3,0.4 v 1.2 l -0.1,0.5 -0.4,0.3 -0.4,0.2 h -0.2 -0.1 l -1.3,-0.1 -0.7,0.1 -0.9,0.2 -0.5,0.5 -0.4,0.7 -0.3,0.6 -0.6,0.8 -0.6,0.3 -0.7,0.1 -0.6,-0.1 h -0.7 l -5.9,1.7 -0.8,0.5 -0.6,0.5 -2,2.2 0.4,4.2 0.6,1.5 1.1,2 0.8,0.8 1.8,1.1 3.2,3.7 0.4,0.7 0.1,0.6 -0.1,0.4 v 0.3 l -0.1,0.2 -0.1,0.6 -0.1,0.6 v 0.7 l 0.2,0.9 0.2,0.5 0.4,0.6 0.5,0.6 0.7,0.9 0.1,0.8 -0.3,0.6 -0.6,0.6 -0.3,0.6 -0.3,0.6 -0.4,1.3 -0.3,0.5 -1.7,1.8 -1.4,0.8 -4.2,1.8 -0.8,0.3 -1.1,0.1 -0.5,0.1 -0.3,0.4 -0.3,0.6 -0.2,1.1 0.2,0.7 0.5,0.5 0.4,0.3 0.3,0.7 v 0.7 l -0.1,1.2 v 0.8 0.6 l 0.1,0.3 0.2,0.2 1,1.9 0.4,0.8 0.2,0.9 -0.1,0.8 -0.5,0.5 -0.4,0.4 -0.8,0.5 -1.7,0.4 -1.2,-0.3 -1.5,-0.9 -0.7,-0.7 -0.6,-0.8 -1.3,-2.1 -1.1,-1.4 -0.7,-0.4 -0.6,-0.1 -0.3,0.2 -0.1,0.1 -0.1,0.1 -2.3,-0.1 -5.3,-1.4 -0.8,-0.5 -0.2,-0.3 0.1,-0.9 v -0.5 l -0.1,-0.7 -0.3,-0.8 -0.5,-0.2 -0.6,0.2 -0.8,0.2 -1.2,-0.2 -1.7,-1 -1,-0.8 -0.6,-0.8 -0.5,-1.2 -0.3,-1 -0.2,-1.2 -0.1,-2.6 0.3,-2.5 0.1,-0.7 -0.1,-0.7 -0.4,-0.9 -0.4,-0.5 -0.8,-0.4 -2.6,-1.2 -0.9,-0.2 h -0.9 l -5.4,1.3 -1.1,0.8 -0.6,0.3 -0.8,0.2 -0.6,0.6 -0.5,0.6 -0.4,0.9 -0.5,0.6 -0.3,0.4 -0.3,0.2 -0.7,0.2 h -0.5 l -0.4,0.1 -0.3,0.2 -0.4,0.3 -0.2,0.5 -0.2,1.2 -0.4,0.4 H 366 l -1.1,-0.4 -0.8,-0.2 h -0.6 l -3.7,0.5 -0.3,-4.8 -0.3,-0.7 -0.5,-0.7 -0.5,-0.1 -0.6,-0.1 -0.9,-0.4 -1.1,-0.9 -2.1,-2.5 -0.6,-1.3 -0.2,-1 0.4,-0.7 0.2,-1 -0.3,-0.7 -0.5,-0.5 -3.9,-1.5 -0.5,0.3 -0.2,0.5 0.1,0.7 0.1,0.6 -0.1,0.6 -0.4,0.5 -0.5,0.5 -0.8,0.3 h -1.4 l -0.9,0.2 -0.7,0.4 -0.6,0.9 -0.3,0.4 -0.3,0.4 -0.9,0.2 -4.1,-1.1 -3.2,-0.3 h -0.7 l -0.7,0.2 -0.5,0.3 -2.1,2.3 -0.5,0.5 -0.7,0.3 -5.3,1.3 -0.6,-0.2 -0.2,-0.5 -0.2,-0.5 -0.5,-0.5 -0.6,-0.1 -3,0.8 -0.5,0.3 -0.1,0.5 -0.2,0.6 -0.4,0.5 -0.7,0.3 -0.6,-0.1 -0.5,-0.5 -0.4,-0.5 -0.5,-0.3 h -0.5 l -0.4,0.3 -0.5,0.2 -0.5,-0.3 -0.3,-0.5 -0.8,-1.8 -0.7,-1.2 -1,-0.9 -2.3,0.4 -0.4,-0.2 h -0.4 l -0.2,-0.2 -1.3,-0.5 -0.6,0.1 -0.5,0.3 -0.2,0.1 -0.3,0.2 -2,0.6 h -2.1 l -3.1,-0.5 -1.6,-0.8 -1,-0.8 -6.3,-1.9 -1.6,-0.1 -1.1,0.1 -0.5,0.6 -0.8,1.3 -0.5,0.6 -0.5,0.5 -0.5,0.3 -1.5,0.5 -0.6,0.4 -1.3,1.3 -0.9,0.6 -1.8,0.7 h -1.4 l -1,-0.3 -0.6,-0.5 -0.4,-0.6 -1.6,-1.1 -0.5,-0.5 -1.8,-3.3 -0.6,-1.3 -0.1,-0.7 -0.2,-1.1 -0.2,-0.5 -0.3,-0.5 -0.3,-1.1 -1,-1.9 -0.5,-1.3 -0.2,-0.6 -0.1,-0.5 -0.2,-0.7 -0.1,-0.2 0.6,-0.2 4.9,0.7 6.6,-1.5 2.3,0.8 -1,-1.6 -1.3,-0.7 -2.4,-0.2 v 0.2 l -0.3,0.4 -0.4,0.1 -0.1,-0.4 -0.1,-0.6 -0.2,-0.6 -0.3,-0.3 -2.2,-0.7 -0.7,-0.5 -0.4,-0.5 -0.5,-2.2 -2.3,-2.1 -0.5,-2.2 v -2.6 l -0.3,-2.2 -0.7,-1.5 -1.5,-0.4 V 259 l 0.8,-0.4 0.7,-0.8 0.4,-1.1 0.5,-4.5 0.4,-1 0.5,0.8 0.4,-1.1 v -0.8 l -0.3,-0.5 -0.7,-0.2 -0.3,-0.6 0.7,-5.4 0.4,-1.4 0.8,-0.5 1.5,0.7 v -0.6 l -1.2,-0.5 h -1.3 l -1.2,0.6 -0.5,1.5 -0.2,0.4 -0.4,-0.6 -0.5,-0.9 -0.2,-0.8 0.1,-2.3 0.1,-1 0.3,-0.9 -0.9,-0.2 -0.3,-0.7 0.1,-1.1 0.3,-1.2 0.4,-1.2 0.4,-0.6 1.2,-0.8 -0.7,-0.6 -0.2,0.1 -0.3,0.5 -0.5,-1.5 -0.4,-1.8 -0.3,-1.9 -0.1,-1.7 0.5,-0.9 1.1,-0.1 2.2,0.7 v -0.6 l -1.3,-0.4 -1.6,-0.8 H 263 l -0.5,1.8 -1,-1.2 -1,-3.5 -0.9,-1.1 0.4,-0.4 0.2,-0.1 0.2,-0.2 -1.7,-1.4 -0.8,-1 -0.5,-1.5 h 1.3 v -0.6 l -0.8,-2 h -0.5 l -0.5,1.7 -1.1,-0.8 -1.4,-1.5 -1.2,-0.7 0.2,-0.7 0.1,-0.3 0.2,-0.3 -0.9,0.2 -0.8,0.4 h -0.7 l -0.6,-0.6 -0.2,-1.3 0.2,-3.2 v -1.4 l -0.2,-0.6 -0.3,-0.6 -0.9,-1.7 -0.1,-0.4 v -0.5 l -0.2,-0.8 -0.6,-1 -1.6,-2 -0.4,-0.5 0.4,-1.4 1.8,-1.6 0.4,-0.9 0.2,-3 V 186 l -0.4,-1.4 -0.5,-1 -0.4,-0.9 -0.5,-0.7 -2,-0.4 -2.7,-1.2 0.5,-2.2 -0.2,-1.4 0.3,-0.8 1.7,-0.2 0.5,0.2 1.3,0.9 0.7,0.2 1.7,-0.2 0.6,0.2 0.3,0.4 0.3,1.2 0.3,0.4 0.2,0.1 0.7,-0.1 h 0.3 l 1.4,0.5 4.1,0.6 4.6,1.6 1,-0.1 v 0.3 0.4 l 0.2,0.5 0.4,0.2 0.6,-0.2 0.9,-0.9 0.6,-0.3 0.7,0.2 1.3,0.5 h 0.8 l 1,-0.5 1,-0.9 1.6,-2.2 0.9,-0.7 2.8,-0.9 1.2,-0.1 7.4,1.4 0.5,0.3 0.2,0.6 0.3,1.6 1.4,2.9 0.3,1.7 -1.6,1.1 -0.3,0.9 -0.1,0.9 -0.3,0.4 h -1.3 l -0.6,0.2 -0.4,0.5 -0.3,2.3 0.8,1.9 1.1,1.6 0.9,2.7 4.7,5.9 0.6,1.5 0.2,2.1 -0.1,1 -0.3,0.8 -0.3,0.4 -0.1,0.3 0.2,1 0.5,-0.1 0.7,-0.4 0.7,-0.1 0.6,0.6 0.5,0.6 0.7,0.4 0.2,-0.1 1,-0.2 v -0.7 l -0.7,-0.9 0.5,-1.3 1,-1.2 1.1,-0.5 8.2,0.5 7.3,2.8 10.6,0.6 2.6,0.8 1.6,0.2 2.2,-1.3 1.5,0.4 2.7,1.2 h 4.2 l 1.1,0.4 1.9,1.3 3.1,0.7 5.8,3.5 1.5,-1.4 10,-2.4 2.8,-1.4 1.7,-1.4 1.4,-0.4 0.6,-0.5 1.5,-2.3 4.1,-3 7.7,-1.8 0.5,-0.1 7.2,-1.6 2.8,-1.5 1.2,-1 1.1,-1.5 -4.4,2.8 -5.1,0.7 -5.2,-0.7 -4.4,-1.5 h -1.3 l -1,-0.1 -1.5,-0.4 -1.2,-0.8 -0.5,-0.9 -0.2,-0.6 -0.9,-0.6 -0.2,-0.8 0.1,-1 0.2,-0.7 3.1,-5.9 2.5,-8.4 0.9,-1.1 3.1,-2.5 h 0.7 l 0.6,-0.6 8.1,-3.8 0.7,-0.9 7.7,-4.6 2.1,-0.7 2.5,-1.6 4.8,-1.8 h 5.3 l 25.5,-8.2 1.5,-1.2 1.5,-0.5 2.5,-2.8 z"
       id="FRNOR"
       name="Normandie"
       style="fill:#bdcfff;fill-opacity:0.363914" />
    <path
       d="m 944.3,876.6 0.6,5.7 -0.1,6 -0.2,0.4 -0.5,0.2 -0.6,0.6 -0.5,0.7 -0.4,0.8 h 0.9 l -0.2,1.5 -0.3,0.9 -0.6,0.4 h -0.6 -0.5 l -0.2,0.5 0.3,1.2 -0.9,-0.4 -0.9,-0.2 -0.9,-0.1 -0.7,0.2 0.1,0.7 -0.6,0.8 -0.3,0.8 0.8,0.5 2,-0.8 1.3,-0.2 0.5,0.7 -0.2,1.2 -0.6,1 -0.9,0.7 -1.1,0.2 -0.5,0.4 -0.5,0.9 -0.6,0.8 -1.1,0.2 0.2,0.6 0.1,0.5 -0.1,0.6 -0.2,0.6 0.7,0.3 0.2,0.6 -0.3,0.7 -0.6,0.6 0.4,0.6 -1,0.4 -1.7,1.1 -1,0.2 v 0.6 l 0.5,0.5 0.2,0.6 -0.2,0.7 -0.5,0.5 v 0.5 l 0.7,-0.3 0.9,-1 0.8,-0.4 -0.2,1.2 -0.5,1.4 -0.5,1.2 -0.5,0.7 -1,0.6 -0.8,-0.3 -1.5,-1.4 -1,-0.4 -1.9,-0.3 -1.6,-0.7 0.7,-2.1 0.3,-0.3 0.5,-0.2 -1,-0.9 -1.5,-0.6 -0.9,-0.7 0.9,-1.2 v -0.5 l -0.8,0.2 -1.8,1.5 -0.4,-0.6 0.1,-0.2 h 0.1 l 0.1,-0.1 0.1,-0.3 -0.6,0.2 -0.3,0.1 -0.3,0.3 -0.5,-0.6 -0.6,-0.6 -1.6,-0.5 -1.5,-0.2 -1,0.2 -0.6,-0.5 -0.5,-0.5 -0.6,-0.5 -1.5,-0.3 -0.1,-0.3 -0.2,-0.4 -0.3,-0.3 -0.6,-0.2 h -0.5 -0.5 l -0.5,-0.4 0.8,-0.6 v -0.5 l -0.7,-0.3 -0.5,-0.3 -0.6,0.1 -0.8,-0.2 -0.8,-0.4 -0.4,-0.3 0.3,-1.6 -0.2,-0.6 -0.9,-0.4 0.4,-1 0.5,-1.7 0.6,-1.2 1,0.5 3.3,-1.5 0.6,-0.5 0.3,-1.1 0.6,-0.6 0.9,-0.5 0.7,-0.9 -1.4,-0.1 -3.9,-1.1 h -1.5 l -1.4,-0.3 -0.8,-0.8 0.5,-1.7 h -1.5 l -2.6,1 -1.4,0.1 0.1,-0.3 0.3,-0.8 -0.8,0.1 -0.7,-0.2 -0.6,-0.3 -0.8,-0.2 0.8,-0.4 1.7,-0.3 0.8,-0.4 0.5,-0.7 0.3,-0.9 -0.1,-0.7 -0.7,-0.5 v -0.6 h 1.4 l 1.3,-0.4 2,-1.3 -0.3,-0.7 -0.5,-0.6 -0.6,-0.3 -0.7,-0.1 2,-0.7 0.5,-0.4 -0.1,-0.2 -0.2,-0.6 -0.3,-0.4 h -0.2 l 0.7,-1.1 0.1,-0.1 0.2,-0.4 0.6,-0.7 0.1,-0.5 -0.2,-0.1 -0.7,-0.5 -0.3,-0.7 -0.3,-0.5 -0.4,-0.3 -0.7,-0.2 -1.2,0.1 -2.1,1.2 -1.3,0.4 -2.6,0.2 -1.1,0.2 -0.9,0.7 -0.5,-1.1 0.7,-1.4 -0.2,-1.1 -1.8,-2.1 3.1,-0.3 1.2,-0.5 0.8,-1.4 -0.8,-0.6 0.6,-1 1.2,-0.9 1.3,-0.4 0.4,-0.2 1.6,-0.9 h 0.3 l 0.1,-1.1 -0.3,-0.5 -1,-0.8 -1.1,-2.3 -0.4,-0.8 -0.6,-0.1 -1.8,0.5 -0.3,-0.4 -0.5,-1 -1.1,-0.7 -1.4,-0.3 h -1.3 l 0.3,-0.8 0.2,-0.3 -0.5,-0.4 -0.5,-0.2 -0.5,-0.1 -0.6,0.1 0.6,-0.1 0.5,-0.3 1,-0.7 v -0.6 h -1.7 v -0.6 l 0.7,-0.3 0.2,-0.8 -0.2,-0.8 -0.7,-0.3 0.5,-1 -0.5,-0.5 -0.9,-0.3 -0.4,-0.3 0.2,-0.8 0.7,-0.1 h 1.6 l 0.5,-0.2 0.5,-0.4 0.5,-0.3 2.5,-0.5 0.9,-0.4 0.6,-0.4 0.4,-0.2 0.2,0.1 0.2,-0.1 0.1,-0.7 -0.9,-0.7 -0.2,-0.2 -2.3,-1.1 -0.1,-0.3 -0.2,-0.6 -0.3,-0.3 -0.8,0.8 -0.4,-0.1 -0.2,-0.3 -0.1,-0.6 0.3,-0.3 1.8,-1.1 -1.3,-1.2 -1.4,0.1 -2.4,1.1 0.5,-0.7 -0.4,-0.7 -0.2,-0.9 -0.1,-0.9 0.2,-0.8 0.5,0.4 h 0.6 l 0.6,-0.4 0.4,-0.6 0.8,0.5 0.2,-0.4 0.1,-0.7 0.2,-0.6 0.3,-0.4 0.1,-0.3 0.3,-0.3 2,-0.3 0.6,-0.6 0.1,-0.8 v -1 l 0.6,-1.1 0.3,-0.6 -0.3,-0.3 -0.7,-0.1 -0.2,-0.3 0.1,-0.3 0.5,-2.2 0.8,-0.9 1.1,-0.5 1.2,-0.3 -0.4,-0.8 0.4,-1.9 -0.5,-0.8 v -0.6 l 0.5,0.3 h 0.2 l 0.1,0.1 0.1,0.8 1,-0.6 0.7,0.3 0.5,0.6 0.8,0.3 0.9,-0.4 0.8,-0.8 0.5,-1.1 0.3,-1.2 -0.4,-0.6 2.3,-0.1 3.9,-2.1 7,-1.5 1.9,-1 0.2,-1.6 3.3,-3.7 0.7,-0.6 1.5,-0.2 h 1.4 l 0.7,0.2 0.6,-0.1 3.2,0.9 1.3,0.8 0.4,0.4 0.4,0.6 0.3,0.6 0.6,1.7 h 0.4 l 2.2,-3.8 0.9,-2.5 -0.6,-1.8 0.5,-1.7 -0.3,-1.4 -0.9,-1.4 -1,-1.3 1.7,-2.4 v -0.7 l -0.4,-0.8 V 789 l 0.3,-0.8 0.4,-0.6 1.4,-1.5 -0.2,-0.5 -0.1,-0.2 0.1,-0.4 0.2,-0.7 -0.6,-0.7 -0.4,-1.3 -0.1,-1.5 0.3,-1.1 1,-0.7 h 2.5 l 1.2,-0.5 0.8,1.2 0.5,0.5 1.2,0.7 v 0.6 l -0.5,0.7 -0.1,0.9 0.3,1 0.7,0.8 -0.3,1.6 1.2,7.7 -0.1,2.5 -2,7.9 0.1,1 -0.2,1.2 0.1,2.4 -0.1,0.3 -0.2,0.2 -0.1,0.2 -0.1,0.4 0.2,0.3 0.3,0.1 0.2,0.1 0.2,0.1 0.1,0.7 0.2,0.5 v 0.4 l -0.3,0.7 0.5,0.4 0.2,0.6 0.1,0.6 0.4,0.7 0.5,0.4 1.7,0.8 -0.2,-1.3 -0.2,-0.5 -1,-2.2 1.8,2.7 0.6,1.4 0.3,1.6 -0.2,4.9 0.2,2.5 0.8,1.8 -0.4,1.1 -0.3,1.2 -0.1,1.3 v 1.5 l 0.2,1.8 1.2,3.2 0.2,1.7 -0.4,10.4 0.4,1.9 -0.1,0.7 -0.1,1.5 -0.2,0.6 -0.4,0.8 -1.7,1.6 -0.7,1 -0.9,2.1 -4.3,6.2 -0.9,0.9 -0.3,0.8 -0.1,2.9 -0.4,4.8 z m 5.5,-64.5 h -0.4 l -1.2,-2.3 z"
       id="FR20R"
       name="Corse"
       style="fill:#bdcfff;fill-opacity:0.363914" />
    <path
       d="m 293.8,491.9 0.3,-0.5 1.1,-1.6 0.4,-0.5 0.6,-0.2 3.8,-1 1.3,-0.1 0.6,-0.2 1.1,-0.5 0.5,0.1 0.5,0.7 -0.1,0.6 -0.3,0.6 -0.5,0.5 -0.3,0.5 0.2,0.4 0.7,0.4 1.1,-0.1 0.6,-0.1 0.7,-0.2 2,-0.4 0.4,-0.2 0.9,-0.3 h 1 l 1.6,0.3 4.2,2.7 0.8,-0.2 0.9,-0.6 0.5,-0.3 1.6,-0.9 0.6,-0.2 h 1.8 0.5 l 0.4,-0.3 1.9,-2.1 0.5,-0.3 h 0.6 0.5 l 0.5,0.1 h 0.3 l 0.5,-0.2 0.4,-0.5 0.2,-0.7 -0.2,-0.7 -0.7,-0.8 -2.1,-1.7 -0.4,-0.1 -0.4,0.3 h -0.4 l -0.4,-0.4 -0.3,-1.3 0.1,-0.9 0.5,-1.4 0.1,-0.6 -0.1,-0.6 -1,-4.8 0.2,-0.9 0.4,-0.6 0.5,-0.4 0.3,-0.5 0.1,-0.5 v -0.9 l -0.5,-2.6 -0.1,-1.8 -0.2,-0.7 -0.4,-0.7 -0.7,-1 -0.4,-0.9 -0.1,-0.7 v -0.7 -0.6 l -0.2,-0.7 -0.2,-0.9 -1.7,-3.5 -1.7,-2.7 -0.5,-1.5 -0.1,-1 0.6,-1.1 0.2,-0.6 0.1,-0.4 -0.2,-0.5 -0.6,-0.8 -1.3,-1.2 -3.6,-2.3 -0.5,-0.7 -0.6,-0.9 -0.4,-1.5 -0.1,-1.9 -0.2,-0.8 -0.8,-1.1 -1.7,-1 -0.6,-0.9 -0.8,-1.7 -0.8,-1 -2.3,-1.6 0.2,-0.6 V 429 l 0.1,-0.4 0.4,-0.3 0.9,0.2 0.7,0.2 2.4,1.6 0.6,0.3 0.6,0.1 h 0.8 l 3.6,-0.6 1.7,0.5 3.5,0.3 3.9,-0.4 1.2,-0.5 0.3,-0.1 1,-1.1 2.7,-1.3 0.3,-0.5 -0.1,-0.5 -0.7,-1.1 -0.1,-0.6 0.2,-0.5 0.5,-0.6 0.6,-0.3 1.2,-0.5 h 0.7 l 0.7,0.1 1.4,0.8 0.8,-0.2 3.5,-1 1.7,-0.8 6.6,-0.8 3.5,0.1 1.3,-0.4 h 0.6 l 0.7,0.2 0.7,0.6 0.3,0.8 0.1,0.7 0.3,0.7 0.3,0.4 1.5,0.5 0.6,-1.1 0.2,-0.5 0.3,-0.5 0.6,-0.5 1.7,-0.6 0.7,-0.4 0.5,-0.8 0.1,-0.7 0.1,-0.7 0.3,-0.6 2,-2.6 1.1,-0.4 3.3,0.6 0.6,1.2 0.4,0.6 0.2,0.6 0.3,0.5 0.5,0.3 0.8,-0.1 1,-0.7 h 0.4 l 0.3,0.6 v 0.6 l -0.1,0.5 0.1,0.5 0.5,0.4 h 0.8 l 1.4,-0.5 0.5,0.2 0.3,0.7 v 0.7 l -0.1,0.7 -0.2,0.6 v 0.6 0.6 l 0.5,0.4 h 0.9 l 0.8,-0.2 1.4,-0.6 h 0.5 l 0.4,0.3 0.4,1 0.4,0.4 1.3,0.1 0.5,0.1 0.3,0.4 v 0.6 1.1 l -0.4,1.8 -0.1,1.8 v 1.3 l 0.1,0.7 0.2,0.6 0.5,0.7 0.7,0.5 1.1,0.2 2.7,-0.3 2.8,0.6 0.6,-0.3 0.5,-0.3 0.3,-0.5 0.5,-0.2 1.2,-0.3 4.9,-0.3 0.6,-0.1 0.5,-0.3 0.2,-0.3 V 433 l -0.1,-0.3 -0.1,-0.3 -0.1,-0.3 -0.2,-0.3 -0.2,-0.2 -0.1,-0.3 -0.1,-0.3 v -0.7 -0.3 -0.3 -0.1 l 0.2,-0.2 0.7,0.3 3.4,2.2 1.3,0.5 0.7,0.5 0.6,0.7 0.7,1.4 1.3,3.8 7.3,11 2.6,2.1 0.4,0.5 0.9,1 0.5,0.8 0.7,1.7 0.2,1.1 v 0.8 l -0.2,0.6 -0.2,0.6 -0.2,0.6 v 0.6 1.8 l 0.1,1.2 0.4,1.4 0.5,0.8 0.8,0.9 1.4,1.3 1.7,1 1.3,0.4 0.4,0.2 0.3,0.3 0.2,1.4 0.3,0.6 0.7,0.3 3.9,0.1 0.6,0.1 0.6,0.3 0.5,0.4 0.5,0.6 0.3,0.5 0.3,0.6 0.2,0.5 v 0.2 l -0.5,2.2 v 0.8 l 0.7,1 0.6,0.5 1.2,0.6 0.8,1.2 -1.1,3.7 1,0.8 0.8,0.1 0.9,0.7 0.7,0.1 h 0.9 l 2.7,-0.3 0.9,-0.3 0.4,-0.5 0.3,-0.5 0.3,-0.6 0.8,-0.4 0.7,0.1 0.5,0.4 0.4,0.6 0.3,0.6 0.3,0.5 2.8,1.9 1.9,-1.2 4.1,-4.2 0.8,-0.3 0.7,0.2 0.7,0.3 0.9,0.2 1.6,-0.3 0.6,0.3 0.3,0.4 -0.1,0.6 0.2,0.6 0.5,0.5 1,0.2 0.8,-0.2 0.6,-0.4 0.6,-0.6 0.7,-0.6 0.7,-0.1 2.6,0.6 0.7,-0.2 0.5,-0.5 0.3,-0.5 0.2,-0.5 V 482 l -0.1,-0.6 v -0.6 l 0.1,-0.7 0.6,-0.7 0.5,-0.1 h 0.6 l 0.5,0.4 1.3,1.8 0.6,0.5 0.8,0.1 0.6,-0.3 1.2,-1 0.6,-0.2 0.7,-0.1 5.5,0.2 0.8,0.2 1.2,0.6 0.5,0.1 h 3.5 l 2.1,0.9 2.3,-0.5 1,-0.2 6.1,0.3 2.1,3.1 1.7,1.7 0.4,0.9 0.1,0.9 0.5,1.6 0.5,0.6 0.6,0.3 1.2,0.4 1.8,0.4 0.5,0.4 0.3,0.5 0.3,1 0.2,0.6 0.4,0.6 0.4,0.1 0.6,-0.6 0.5,-0.2 0.9,0.3 0.6,0.7 2.5,4.1 0.4,0.9 0.4,1.9 0.3,0.8 0.4,0.9 1.2,2.1 0.6,1.5 -0.4,4 v 0.8 l 0.2,1 0.3,0.7 1,2 0.6,1.2 0.2,0.8 v 0.7 l -0.3,0.9 0.1,0.4 -0.1,0.8 0.1,1.3 -0.3,0.7 -0.9,1 -0.5,0.6 -0.3,0.7 -0.4,0.9 -0.5,1.4 -0.4,0.8 -0.5,0.6 -0.5,0.4 -0.3,0.4 -0.9,1.3 -0.3,0.3 h -0.2 l -0.3,0.1 -1.2,-0.2 -0.6,0.2 -0.6,0.4 -0.7,1 -0.7,0.5 -1.2,0.8 -0.7,0.8 -0.2,0.6 0.2,0.7 1.3,1.8 0.4,0.6 0.2,0.6 0.2,1.1 0.2,0.6 0.4,0.4 0.5,0.2 h 0.4 l 0.6,0.2 0.1,0.1 0.4,0.5 0.5,0.4 0.3,0.4 1.6,2 0.6,1.4 v 0.6 1.3 l -0.1,1.5 -0.1,0.9 -0.1,0.5 -0.1,0.3 -0.3,0.3 -0.3,0.4 -1.3,0.5 -0.4,0.3 -0.4,0.5 -0.6,2.9 0.1,0.8 0.3,0.7 1,1.1 0.4,0.9 0.1,1.1 v 1.6 1.2 l 0.2,0.9 0.2,0.4 1,0.7 -1.2,5.4 -0.7,1.8 -0.4,0.5 -0.3,0.2 h -0.4 l -1.8,-0.3 -1.5,-0.6 -0.8,-0.8 -0.5,-0.3 -0.3,-0.1 -0.5,-0.1 H 510 l -1.1,0.3 -0.3,0.4 -0.1,0.3 0.1,0.2 0.2,0.2 0.2,0.2 0.2,0.2 0.2,0.2 0.1,0.3 0.1,0.3 v 0.4 0.3 0.4 l -0.1,0.3 -0.8,1.4 -0.4,1.1 -0.3,0.4 -0.3,0.2 -0.5,0.2 -2,3.3 -0.5,0.4 -1.2,0.8 -1.2,0.2 -0.3,0.3 -0.1,0.3 -0.4,1.8 -0.3,0.5 -2.4,1.9 -0.1,0.6 -0.1,0.6 0.1,0.7 0.2,0.7 0.3,0.6 0.4,0.6 0.2,0.8 -0.2,1 -1.4,2.8 -0.3,0.9 -0.3,0.8 -0.4,1.2 -0.5,0.7 -0.5,0.6 -2.4,1.8 -0.4,0.7 v 0.7 l 0.2,0.5 1.2,2.3 0.2,0.5 0.1,0.3 v 0.2 0.2 l -0.2,0.4 -0.4,0.4 -0.5,0.2 -2.2,0.3 -1.4,0.6 -3.3,0.1 -1.3,0.2 -0.3,0.1 -1.6,0.9 h -0.5 l -0.3,-0.1 -0.3,-0.4 -0.6,-0.3 h -0.5 l -0.6,0.1 -3.5,2 -3.2,1.1 h -1.3 l -0.8,-0.2 -0.4,-0.3 -0.3,-0.4 -0.6,-0.4 -0.7,-0.5 -1.2,-0.6 -0.5,-0.5 -0.3,-0.5 -0.1,-0.6 -0.4,-0.5 -2.1,-1.9 -2,-1.4 -1,-0.6 -1.8,-0.6 -0.8,0.1 -1.4,0.6 -0.4,-0.2 -0.1,-0.4 -0.2,-0.5 -0.3,-0.4 h -0.4 l -0.5,0.3 -0.6,0.7 -0.2,0.2 -0.9,0.2 -0.6,0.6 -0.2,0.2 -1,0.4 -1.8,1.4 -0.3,1.4 1.4,4.4 -0.1,1 -0.3,0.8 -0.4,0.6 v 0.6 l 0.2,0.8 v 0.6 l -0.3,0.6 -0.4,0.5 -1.7,1.5 -0.5,0.6 -0.5,0.8 -0.7,1.5 -0.5,0.8 -0.5,0.3 h -0.6 l -0.6,0.1 -0.6,0.4 -0.8,1.1 -0.2,0.7 0.1,0.7 0.4,0.4 0.3,0.6 -0.1,0.9 -0.4,0.9 -0.9,1.3 -0.8,0.7 -0.7,0.5 -1.1,0.4 -0.5,0.4 -0.9,0.9 -0.5,0.3 -0.6,0.2 -1.1,0.1 -0.6,0.3 -1,0.8 -2.7,5 -0.7,1 -1.5,1.6 -1.1,1 -1,0.8 -3,1.5 -0.6,0.7 -0.3,0.6 0.1,0.5 0.2,0.3 0.4,0.5 0.4,0.5 0.2,0.5 0.1,0.5 -0.1,1.2 0.1,0.6 0.2,0.4 0.2,0.4 0.2,0.4 0.2,1.1 0.2,0.6 0.5,0.5 1,0.8 0.4,0.8 v 0.8 l -0.1,0.8 -0.1,2.1 v 0.1 l -0.8,0.9 -5.1,0.4 -1.2,-0.2 -0.8,-0.4 -0.4,-0.5 -0.6,-0.3 -0.6,0.1 -0.4,0.4 -0.2,0.5 v 0.6 0.6 0.6 l -0.1,0.5 -0.1,0.6 -0.6,1.3 -0.1,0.6 0.5,0.9 0.2,0.5 0.4,0.3 1.6,0.5 0.5,0.3 0.4,0.4 0.2,0.5 -0.1,0.6 -0.2,0.5 -2.3,5.1 -0.7,0.7 -1.4,1 v 0.5 l 0.2,0.3 0.5,0.2 0.5,0.5 0.2,0.5 v 0.7 l -0.3,0.5 -0.5,0.3 -0.5,0.1 h -0.6 l -0.6,-0.2 -1,-0.5 -0.6,-0.1 h -0.6 l -0.7,0.3 -0.2,0.3 -0.2,0.5 -0.1,0.5 -0.3,0.7 -0.4,0.4 -1.4,0.6 -0.4,0.4 -0.4,0.6 -0.4,1.3 -0.1,0.5 -0.2,0.9 -3.8,2.3 -1.3,0.3 -0.4,-0.3 -1.8,-1.8 -0.6,-0.5 -1.3,-0.5 -1,0.2 -4.2,1.6 H 394 l -0.6,-0.1 -0.9,-0.3 -0.6,0.1 -0.6,0.3 -0.6,0.6 -4.5,2.2 -1.2,0.2 -0.9,0.5 -1.6,1.1 -0.7,0.2 h -0.5 l -0.5,-0.1 -1.1,-0.6 -2.9,-1.2 -0.6,0.1 -0.6,0.4 -0.3,0.4 -0.9,1.8 -0.4,0.5 -0.5,0.6 -0.7,0.5 -0.6,0.1 -0.4,-0.2 -0.5,-0.8 -0.6,-0.2 -0.5,0.1 -1.6,0.6 -0.3,0.5 -0.5,1 0.3,2.2 -0.1,0.7 -0.4,0.8 -0.6,0.4 -0.5,0.1 -2.2,-0.2 -0.5,-0.1 -0.5,-0.2 -0.3,-0.2 -0.3,-0.3 -0.2,-0.4 v -0.6 l 0.1,-0.4 0.5,-0.7 0.2,-0.4 v -0.5 l -0.1,-0.4 -0.3,-0.4 -0.4,-0.4 -0.9,-0.3 -0.7,0.2 -0.6,0.3 -1.5,1.1 -1.2,1.5 -0.7,0.6 -0.8,0.1 h -1.2 l -2.2,-0.3 -0.8,0.3 -2.1,1.7 -0.5,0.7 -0.1,0.6 0.4,0.6 0.9,1 0.3,0.5 0.4,1.1 0.2,0.5 0.3,0.6 v 0.6 l -0.5,1.4 -0.7,1.1 -0.2,0.8 -0.1,0.7 v 1.4 l -0.1,0.7 v 0.6 l 0.3,0.5 0.4,0.5 0.2,0.5 -0.1,0.6 -1.2,2.9 -0.4,0.5 -0.3,0.2 h -1 l -0.6,0.3 -0.1,0.4 0.2,0.6 0.3,0.6 0.1,0.7 -0.4,1 -0.8,0.9 -0.2,0.7 v 0.5 l 0.9,0.6 0.2,0.5 0.2,1 0.2,0.4 0.4,0.6 2.1,-0.2 5.8,1.3 1.2,0.8 0.6,1.7 0.5,0.5 0.7,0.4 0.4,0.4 0.4,0.6 1.5,3.7 0.3,1 0.1,0.7 -0.2,0.5 -0.4,0.2 h -0.5 l -0.5,-0.2 -0.4,0.3 -0.2,0.8 0.2,1.7 0.4,0.5 h 0.5 l 0.5,-0.4 0.3,-0.5 0.4,-0.4 0.5,-0.3 h 0.6 l 0.3,0.4 0.1,0.6 -0.2,3.2 0.2,1.1 0.8,1.9 0.1,0.8 -0.3,0.6 -0.5,0.3 -1.1,0.3 -0.5,0.3 -0.4,0.5 -0.4,0.5 -0.3,0.7 -0.2,0.9 v 1.2 l 0.5,1.6 0.1,0.4 v 0.5 l -0.2,0.5 -0.3,0.5 -0.5,0.6 -1,1 -0.5,0.5 -0.2,0.6 -0.4,2 -0.2,0.7 -0.4,0.6 -0.4,0.2 -0.8,-0.3 -0.3,0.2 -0.5,0.5 -0.8,2.1 -0.4,0.7 -0.6,0.6 -0.5,0.3 -1.3,0.6 -0.4,0.5 -0.5,0.8 -0.1,1.3 0.1,1 0.4,1.6 -0.3,0.6 -0.5,0.4 -0.7,0.1 -1.8,0.1 -0.5,0.1 -0.4,0.4 -0.7,0.9 -1.1,1.1 -0.4,0.7 -0.1,0.6 0.1,0.6 0.3,1.2 v 0.8 1.3 l -0.4,0.8 -0.4,0.7 -0.5,0.6 -0.5,0.7 -0.2,0.6 -0.1,0.6 v 0.5 l 0.1,1.2 0.4,2.1 0.3,1.5 -0.2,-0.1 -0.9,-0.9 -0.4,0.9 -0.4,0.6 -0.5,0.2 -0.5,-0.6 -3,2.4 -1.5,0.9 -1.9,0.1 -3.3,-1.5 -1.6,-0.1 -0.1,2 -0.5,0.2 -1.1,0.7 -0.5,0.1 -0.6,-0.4 v -0.5 l 0.1,-0.5 -0.3,-0.5 -0.3,-0.1 h -1 l -0.4,-0.2 v -0.3 l 0.1,-0.4 -0.1,-0.4 -2.4,-3.2 -1.1,-0.9 -2.1,-1.3 -0.6,-0.1 h -0.6 -0.6 l -0.7,-0.6 -0.3,-0.8 0.1,-0.5 0.2,-0.4 v -0.5 l -0.3,-0.7 -0.9,-2.4 -1.6,-0.5 -4.8,0.8 -4.9,-0.4 -2.4,-0.7 -2.1,-1.7 -0.8,-0.9 -1,-0.3 -2.2,-0.2 -0.4,-0.4 -1,-0.7 -0.6,-0.2 -2.3,0.2 -2,-1.6 -2.1,-1.2 -3.6,-0.6 -1.2,-0.8 -1,-1.2 -0.3,-1.1 0.5,-1.1 1.3,-1.1 -1.4,-0.4 -1.4,0.5 -1.1,1.2 -0.4,1.7 -0.2,2.3 -0.5,1.1 -1,0.3 -1.7,-0.1 -1.5,-0.4 -1.4,-0.8 -1.1,-1.3 -0.8,-1.8 0.5,-0.7 2.5,-2.8 0.8,-1 1,-2.7 0.6,-3.4 -0.2,-3.1 -1.8,-1.8 -0.7,-0.1 -0.7,0.3 -0.7,0.1 -2.6,-1.3 -1.9,-0.6 -1.2,-0.1 -0.9,0.6 -0.5,1.4 -0.4,0.8 -0.7,0.4 -0.7,0.1 -0.7,-0.1 -0.8,-0.4 -0.3,-0.4 -0.4,-1.4 -0.1,-0.8 0.2,-0.5 v -0.4 l -0.7,-0.4 -1.1,-0.6 h -0.6 l -1.2,0.5 -1.4,0.2 -0.7,0.3 -0.7,0.1 -0.1,-0.3 -0.2,-0.3 -0.2,-1.7 -0.8,-1.1 -1.7,-0.8 -0.1,-1.1 0.1,-1.8 0.1,-0.9 0.2,0.1 1,0.7 0.5,-0.6 1.1,-0.5 5.5,-0.9 1.4,-2.1 1.4,-0.7 1.1,-0.9 0.6,-0.7 1.3,-2.6 0.3,-1 0.5,-0.7 2.5,-3.2 0.4,-0.9 1.9,-2.6 0.4,-2.7 1.5,-4.8 2.5,-14.1 1.5,-4.9 2.2,-11.1 3.9,-24.4 1.7,-12.2 0.2,-2.2 0.3,-3.2 -0.2,-1.2 -0.5,-2.5 0.1,-0.7 1.6,-2.4 0.2,-0.6 0.2,-1 1.1,-4 1.2,-1.5 1.6,-0.1 3.8,0.9 2.1,-0.3 1.3,-0.9 v -1.3 l -1.5,-1.6 h 0.8 l -0.6,-1.3 -4.6,-4.4 -0.7,-0.3 -0.3,-0.1 -0.3,-0.3 -0.3,-0.2 h -0.4 l -0.2,0.3 -0.2,0.4 -0.1,0.3 -0.1,0.2 -0.4,0.8 -2.8,4.2 -0.7,3.9 -0.5,2.1 -0.4,1 3.7,-43.1 2.6,-13.9 1.1,-18.6 0.4,-1.3 2.1,-4.3 0.9,-1.4 1,-0.4 0.6,0.4 0.2,0.4 v 0.6 l -0.1,1 -0.2,0.3 -0.1,0.5 v 0.5 l 0.2,0.4 0.7,1.1 0.5,0.7 4.1,3.2 2.7,1.5 0.9,0.3 7.5,8.4 1.7,2.5 0.8,2.7 0.1,1.8 0.8,3.2 1.2,8.2 0.2,1 2.1,5.1 2.1,2.7 2.4,2.3 2,1.2 0.5,0.6 0.6,1.1 v 0.9 l -0.1,1.3 v 1.9 l 0.3,1.8 0.5,1.4 0.9,0.6 -0.3,-1.2 -0.2,-2.4 -0.4,-1.1 0.6,-2.4 -0.7,-1.9 -1.4,-1.4 -1.4,-0.9 1.9,0.1 1.6,0.4 1.4,0.7 1.4,1.1 -1.6,-2.7 -2.4,-1.2 -2.7,-0.9 -2.2,-1.7 -1.1,-2.3 -0.8,-2.8 -2.4,-16.8 -0.8,-3.4 -2,-5.6 -1.3,-2.5 -1.4,-2.2 -2.8,-3.3 -8.8,-6.4 -0.2,-0.3 -0.3,-1.7 -0.4,-0.4 -2,-0.7 -3.3,-3.4 -1.9,-0.7 -1.1,-0.3 -1.1,-0.6 -0.8,-0.9 -0.8,-1 -1.1,-0.9 -2.2,0.5 -1.1,-0.4 1,-6.2 v -1.2 l 4.1,-1.2 h 1.2 l 4,4.7 0.7,0.5 0.7,0.7 4.4,2 -1.4,-1.6 -5.6,-4.5 -1.6,-1.9 -0.3,-0.8 -0.1,-1 -0.3,-1.4 -0.4,-1.3 -0.5,-0.9 0.7,-0.4 0.4,-0.5 0.3,-0.5 0.3,-0.4 0.7,-0.6 1,-0.6 0.5,-0.1 0.5,0.1 0.4,-0.2 0.3,-1 -0.1,-1 -0.4,-0.9 -0.4,-0.8 -0.4,-0.4 0.4,-0.3 0.6,-0.7 0.3,-0.2 -1,-0.7 -0.7,-1.2 -0.9,-3 1.3,1 h 1.1 l 0.8,-0.7 0.7,-1.5 v -0.6 l -0.3,-0.4 -0.4,-0.4 -0.4,-0.3 -1.1,-0.5 -0.3,-0.7 V 513 l -0.5,-1.2 0.1,-0.8 -0.1,-0.4 -0.3,-0.1 -0.8,-0.3 -0.2,-0.1 -0.3,-0.4 -0.4,-0.3 V 509 l 0.7,-0.8 -1.4,-1.1 -0.5,-0.1 -0.2,-0.1 v -0.5 l 0.1,-0.4 -0.1,-0.3 h -0.3 -1 l -0.6,-0.1 h -0.6 l -0.5,-0.1 -0.6,-0.6 -0.1,-0.8 0.4,-0.9 0.6,-0.7 0.6,-0.4 -0.3,-1.7 0.7,-1.2 4.2,-2.7 0.5,-1.1 v -0.7 l -0.3,-0.8 -0.2,-1.3 z m 65.1,256.1 -0.2,-0.3 -0.3,-0.3 -0.8,-0.2 h -0.3 l -0.4,0.1 -0.5,0.6 -0.3,0.8 -0.2,1.7 0.2,0.9 0.4,0.6 0.6,0.3 h 0.6 l 0.2,-0.1 0.2,-0.2 0.2,-0.2 0.2,-0.3 0.5,-1.2 0.1,-0.7 v -0.6 -0.5 z m -3.2,11 h 0.7 l 0.6,-0.2 1.1,-1.9 -0.6,-1.9 -1.5,-0.9 -1.4,1.7 -0.1,1.2 v 0.6 l 0.2,0.5 0.5,0.7 z m -65.9,-226.5 -0.7,2.3 -0.9,1.4 -1.1,-0.5 -0.9,-3.1 -0.5,-1.2 -0.6,-1.2 -3.7,-4.1 -1.3,-1 -1.3,-1.6 -1,-1.7 0.2,-0.8 0.2,-0.9 -0.7,-2.1 -1.4,-3.1 1.9,0.3 2.1,1.1 2,1.6 1.4,1.6 0.7,0.4 0.8,-0.3 0.8,-0.1 0.9,0.9 0.3,1.1 -0.1,1 v 0.9 l 0.7,0.7 v 0.6 l -0.3,0.8 0.6,0.6 1.8,1.1 0.5,0.8 0.1,0.7 z m -19.8,-31.4 -2.5,-2.8 -0.7,-0.5 v -0.6 l 3.6,-0.9 1.1,0.2 0.4,0.4 0.3,0.5 v 0.5 l -0.3,0.5 -1.5,-0.6 h -0.7 l 1.1,1.8 h 1.7 l 1.7,-0.8 1.5,-0.4 v 0.6 h -0.8 v 0.7 l 1,0.5 6.2,1 1.5,1 1.1,1.3 0.7,1.7 h -0.5 l -0.5,0.2 -0.6,0.3 -0.3,-0.3 -0.3,-0.1 -2.8,-0.5 -6,-3.9 -3.5,0.6 z"
       id="FRNAQ"
       name="Nouvelle Aquitaine"
       style="fill:#bdcfff;fill-opacity:0.363914" />
    <path
       d="m 550.5,448.7 -1.7,0.1 -1.6,-0.3 -2.8,0.9 -3.9,2.6 -0.4,0.4 -0.4,0.9 -0.4,0.6 -0.6,0.7 -0.6,-0.1 -0.7,-0.2 -0.8,-0.1 -0.6,0.3 -0.9,1.1 -0.5,0.1 -2.1,-0.8 -0.3,-0.5 -0.2,-0.4 -0.5,-0.2 -0.4,0.3 -1,1.3 -1.8,1.6 -1.1,0.8 -1.5,0.1 -0.4,0.3 -0.1,0.5 0.3,1.2 -0.4,0.5 -0.6,0.1 -1.4,-0.1 -0.4,0.2 -0.2,0.3 -0.1,0.5 0.3,0.5 0.7,1 0.1,0.5 -0.1,0.3 -0.4,0.9 -0.1,0.6 0.1,0.6 0.4,0.6 0.9,1.2 0.4,0.6 0.2,0.5 0.1,0.3 0.1,0.4 v 0.5 l -0.1,0.4 -0.2,0.2 -5.2,1.5 -2.9,0.2 -1.8,0.5 h -0.6 l -0.6,-0.1 -0.9,0.1 -1.3,0.3 -3.7,1.9 -0.9,1.5 -0.6,0.6 -0.5,0.4 -0.5,0.1 -0.5,0.3 -0.2,0.4 -0.5,1.1 -1.6,2.8 -6.1,-0.3 -1,0.2 -2.3,0.5 -2.1,-0.9 h -3.5 l -0.5,-0.1 -1.2,-0.6 -0.8,-0.2 -5.5,-0.2 -0.7,0.1 -0.6,0.2 -1.2,1 -0.6,0.3 -0.8,-0.1 -0.6,-0.5 -1.3,-1.8 -0.5,-0.4 h -0.6 l -0.5,0.1 -0.6,0.7 -0.1,0.7 v 0.6 l 0.1,0.6 v 0.6 l -0.2,0.5 -0.3,0.5 -0.5,0.5 -0.7,0.2 -2.6,-0.6 -0.7,0.1 -0.7,0.6 -0.6,0.6 -0.6,0.4 -0.8,0.2 -1,-0.2 -0.5,-0.5 -0.2,-0.6 0.1,-0.6 -0.3,-0.4 -0.6,-0.3 -1.6,0.3 -0.9,-0.2 -0.7,-0.3 -0.7,-0.2 -0.8,0.3 -4.1,4.2 -1.9,1.2 -2.8,-1.9 -0.3,-0.5 -0.3,-0.6 -0.4,-0.6 -0.5,-0.4 -0.7,-0.1 -0.8,0.4 -0.3,0.6 -0.3,0.5 -0.4,0.5 -0.9,0.3 -2.7,0.3 h -0.9 l -0.7,-0.1 -0.9,-0.7 -0.8,-0.1 -1,-0.8 1.1,-3.7 -0.8,-1.2 -1.2,-0.6 -0.6,-0.5 -0.7,-1 v -0.8 l 0.5,-2.2 v -0.2 l -0.2,-0.5 -0.3,-0.6 -0.3,-0.5 -0.5,-0.6 -0.5,-0.4 -0.6,-0.3 -0.6,-0.1 -3.9,-0.1 -0.7,-0.3 -0.3,-0.6 -0.2,-1.4 -0.3,-0.3 -0.4,-0.2 -1.3,-0.4 -1.7,-1 -1.4,-1.3 -0.8,-0.9 -0.5,-0.8 -0.4,-1.4 -0.1,-1.2 v -1.8 -0.6 l 0.2,-0.6 0.2,-0.6 0.2,-0.6 V 457 l -0.2,-1.1 -0.7,-1.7 -0.5,-0.8 -0.9,-1 -0.4,-0.5 -2.6,-2.1 -7.3,-11 -1.3,-3.8 -0.7,-1.4 -0.6,-0.7 -0.7,-0.5 -1.3,-0.5 -3.4,-2.2 -0.7,-0.3 -0.2,0.2 v 0.1 0.3 0.3 0.7 l 0.1,0.3 0.1,0.3 0.2,0.2 0.2,0.3 0.1,0.3 0.1,0.3 0.1,0.3 v 0.3 l -0.2,0.3 -0.5,0.3 -0.6,0.1 -4.9,0.3 -1.2,0.3 -0.5,0.2 -0.3,0.5 -0.5,0.3 -0.6,0.3 -2.8,-0.6 -2.7,0.3 -1.1,-0.2 -0.7,-0.5 -0.5,-0.7 -0.2,-0.6 -0.1,-0.7 v -1.3 l 0.1,-1.8 0.4,-1.8 v -1.1 -0.6 l -0.3,-0.4 -0.5,-0.1 -1.3,-0.1 -0.4,-0.4 -0.4,-1 -0.4,-0.3 h -0.5 l -1.4,0.6 -0.8,0.2 h -0.9 l -0.5,-0.4 v -0.6 -0.6 l 0.2,-0.6 0.1,-0.7 v -0.7 l -0.3,-0.7 -0.5,-0.2 -1.4,0.5 h -0.8 l -0.5,-0.4 -0.1,-0.5 0.1,-0.5 v -0.6 l -0.3,-0.6 H 371 l -1,0.7 -0.8,0.1 -0.5,-0.3 -0.3,-0.5 -0.2,-0.6 -0.4,-0.6 -0.6,-1.2 0.9,-6.9 1.1,-5.2 0.4,-1.1 0.3,-0.7 0.7,-1.2 1.7,-2.4 1.7,-2.9 0.1,-0.8 -0.4,-1.7 0.1,-0.9 0.7,-2.3 0.3,-1.2 2,-4.5 v -0.7 l -0.1,-0.7 -0.4,-1.6 v -1.2 l 0.3,-1.1 1.4,-3.9 2.7,0.7 1.8,0.3 3.5,1.1 0.9,-0.2 0.2,-0.3 -0.1,-0.6 -0.2,-1.2 -0.1,-0.5 -0.1,-0.7 0.3,-0.6 0.7,-0.6 h 0.7 l 1.4,0.9 0.8,0.2 0.5,-0.3 0.1,-0.4 0.5,-0.6 1,-0.6 2.5,-0.6 3.3,-1.7 0.8,-0.2 0.9,-0.1 0.6,-0.3 0.2,-0.4 0.1,-0.5 -0.2,-0.6 v -0.1 l -0.5,-1.2 0.7,-1.9 1.4,-1.5 1.3,-0.9 0.6,-0.2 h 0.2 l 1.3,-0.6 1.9,-1.2 0.8,-0.8 0.6,-0.8 1.6,-5.1 0.1,-0.6 v -0.7 -0.7 -0.7 l -0.1,-0.7 0.1,-0.7 0.1,-0.9 0.4,-0.9 0.7,-0.7 0.9,-0.6 1.4,-1.4 0.5,-0.9 0.3,-0.8 -0.4,-1.3 -0.1,-0.9 0.1,-1.1 0.5,-2 0.1,-0.9 -0.3,-0.5 -1.1,-0.1 -0.4,-0.1 -0.3,-0.4 -0.2,-0.6 -0.4,-0.6 -0.2,-0.7 v -0.8 l 0.4,-0.5 0.5,-0.1 h 1.3 l 0.6,-0.2 0.6,-0.5 v -0.4 l -0.4,-0.5 -0.4,-0.3 -0.4,-0.4 -0.1,-0.8 0.3,-0.5 0.7,-0.3 2.2,-1.6 1.2,-0.5 0.6,-0.7 v -0.5 l -0.4,-0.5 -0.5,-0.3 -0.6,-0.2 -1.9,-0.1 -0.6,-0.2 -3.1,-2.3 0.8,-0.5 0.4,-0.4 0.5,-0.5 0.1,-0.8 -0.2,-0.9 -0.4,-0.8 -1,-1.9 -0.2,-0.2 -0.1,-0.3 v -0.6 -0.8 l 0.1,-1.2 v -0.7 l -0.3,-0.7 -0.4,-0.3 -0.5,-0.5 -0.2,-0.7 0.2,-1.1 0.3,-0.6 0.3,-0.4 0.5,-0.1 1.1,-0.1 0.8,-0.3 4.2,-1.8 1.4,-0.8 1.7,-1.8 0.3,-0.5 0.4,-1.3 0.3,-0.6 0.3,-0.6 0.6,-0.6 0.3,-0.6 -0.1,-0.8 -0.7,-0.9 -0.5,-0.6 -0.4,-0.6 -0.2,-0.5 -0.2,-0.9 V 293 l 0.1,-0.6 0.1,-0.6 0.1,-0.2 v -0.3 l 0.1,-0.4 -0.1,-0.6 -0.4,-0.7 -3.2,-3.7 -1.8,-1.1 -0.8,-0.8 -1.1,-2 -0.6,-1.5 -0.4,-4.2 2,-2.2 0.6,-0.5 0.8,-0.5 5.9,-1.7 h 0.7 l 0.6,0.1 0.7,-0.1 0.6,-0.3 0.6,-0.8 0.3,-0.6 0.4,-0.7 0.5,-0.5 0.9,-0.2 0.7,-0.1 1.3,0.1 h 0.1 0.2 l 0.4,-0.2 0.4,-0.3 0.1,-0.5 v -1.2 l 0.3,-0.4 0.3,-0.1 0.7,0.3 1.7,1.5 0.6,0.2 0.6,0.2 h 0.7 l 2.2,-0.2 0.6,0.1 0.5,0.2 0.6,0.4 0.1,0.1 0.3,-0.1 0.3,-0.1 2.6,-1.6 1.4,-0.6 0.7,-0.5 0.6,-0.7 0.5,-1.3 0.2,-0.9 0.4,-0.9 0.7,-1 1.4,-1.2 1,-0.7 1.5,-0.7 0.5,-0.5 0.4,-0.6 0.2,-0.9 v -0.8 l -0.5,-2 0.1,-0.7 0.3,-0.5 2.5,-1.6 3.4,6.7 0.9,1.3 0.5,0.9 0.3,1.3 v 0.8 l -0.1,0.9 -0.3,1.4 -0.1,0.5 -0.1,0.5 0.1,0.4 0.1,1 0.1,0.4 0.4,0.6 1.8,1.1 v 0.2 0.3 l -0.1,0.7 -0.3,0.7 -1,1.2 -0.3,0.6 -0.2,0.7 0.1,0.5 0.1,0.5 1,0.5 0.5,0.6 0.5,1.6 0.6,1 0.9,1 3.1,2.2 0.8,0.7 0.3,0.8 0.2,1.4 0.2,0.6 0.5,0.6 1.2,0.7 0.7,0.5 0.6,1 0.2,0.8 0.2,0.7 v 0.7 0.5 l -0.1,1.4 0.1,0.6 v 0.2 l 0.6,1.3 0.7,0.8 1,0.8 3,1.7 1.6,0.6 2.2,-0.5 0.5,0.4 v 2.2 l 0.2,0.7 0.6,0.8 0.6,0.5 0.5,0.6 0.5,1 0.3,2.2 0.3,1.1 0.6,1 1.1,0.7 0.2,0.3 0.1,0.5 -0.9,1.3 -0.5,0.6 -0.4,0.4 v 0.6 l 0.1,0.4 1,0.7 9,-2 2.1,-1 0.5,-0.6 0.4,-0.5 0.5,-1.2 0.4,-0.4 0.6,-0.1 0.9,0.7 0.6,0.5 0.3,0.7 0.1,0.6 0.4,0.4 0.7,0.3 1.6,-0.5 0.7,-0.5 0.4,-0.7 0.4,-0.3 0.6,-0.1 2.8,1.6 1.9,-0.3 0.5,-0.1 0.9,1.3 0.4,0.8 0.8,3.5 0.2,0.3 v 0.1 l 3.5,2.4 0.8,0.9 0.5,0.8 v 0.6 l -0.2,0.6 -0.7,1.1 v 0.3 l 0.1,0.2 0.3,0.7 0.2,0.5 -0.1,0.5 -0.3,0.4 h -0.3 l -1.6,-0.3 h -0.5 l -0.5,0.4 -0.3,0.5 -0.1,0.6 0.1,0.6 0.4,0.5 0.6,0.4 0.9,0.2 h 0.9 l 2.2,-0.6 1,-0.1 8.5,0.6 0.8,-0.2 1.3,-0.8 0.6,-0.7 0.4,-0.6 0.6,-0.6 1,-0.4 1.7,-0.1 0.7,0.3 0.2,0.5 -0.3,0.5 -0.2,0.6 v 0.6 l 1,0.2 0.9,-0.1 6.2,-2.2 h 0.8 l 1.1,0.1 2.3,0.7 0.9,0.5 0.4,0.4 0.5,0.5 0.2,0.6 1.2,4.5 0.4,0.9 0.6,0.6 1.9,1.5 1,1.1 0.2,0.6 0.2,0.7 0.2,1.6 -0.4,1.1 -1.1,2.9 -0.6,0.8 -0.5,0.5 -1.3,0.7 -0.6,0.6 -1,1.2 -0.5,0.5 -0.6,0.2 h -0.8 l -0.3,0.2 -0.1,0.6 0.2,2.4 0.3,0.9 0.6,1 0.1,0.6 -0.3,0.8 -0.3,0.5 -0.2,0.4 -0.1,0.5 0.2,0.7 v 0.7 0.6 l -0.5,0.9 -0.6,0.4 -2,0.8 -2,1.3 -0.6,0.2 h -0.5 l -1.2,-0.1 -1.3,0.2 -0.6,0.2 -0.5,0.3 -0.4,0.5 v 0.1 l -0.2,0.9 -0.1,0.9 0.1,0.7 0.3,0.6 0.6,0.5 h 0.6 l 0.6,0.2 0.6,0.4 1.7,1.6 0.7,0.8 0.8,1.7 0.4,1 v 0.8 l -0.6,1.2 v 0.7 l 0.4,0.9 1.8,2.4 0.6,1.4 -1.3,0.5 h -2.4 l -0.6,0.2 -2.6,1.5 v 0.3 l -0.1,0.4 1.1,1.4 0.5,0.6 0.6,1.3 0.6,1.7 0.4,0.7 1,1.4 0.4,0.5 0.1,0.5 v 0.7 l -0.5,2.5 -0.1,0.4 -0.4,0.9 -0.2,0.6 -0.1,0.3 -0.2,0.5 -0.7,1.4 -0.8,0.9 -0.5,1.2 -0.1,0.3 v 0.4 l 0.2,0.5 0.4,0.8 0.3,0.4 0.2,0.3 0.3,0.1 0.3,0.2 0.6,0.3 0.3,0.1 0.2,0.2 1.5,2.1 0.5,0.4 1,0.8 0.2,0.2 0.3,0.6 0.3,0.8 0.5,3.2 0.1,0.4 0.5,0.9 0.9,2.6 0.7,2.7 0.1,0.4 0.4,1.6 0.1,0.7 v 0.7 l -0.2,1.4 v 0.7 0.7 l 0.3,0.7 0.3,0.3 1.2,1 0.2,0.2 0.2,0.3 0.1,0.3 0.1,1.7 v 2.3 l 0.3,1 v 0.8 0.7 l -0.1,0.9 -0.6,2.1 -0.5,1.6 -0.1,0.4 v 0.5 l 0.2,0.7 0.1,0.4 0.7,1.4 0.1,0.3 v 0.4 l 0.1,0.6 -0.2,0.7 -0.4,0.9 -1.4,2.7 -0.4,0.8 v 0.2 z"
       id="FRCVL"
       name="Centre Val de Loire"
       style="fill:#bdcfff;fill-opacity:0.363914" />
    <path
       d="m 468.1,223 0.9,0.9 0.2,0.7 0.2,1 0.4,0.7 0.8,0.6 0.7,0.2 0.7,0.1 1.9,0.1 2.9,0.9 1.8,0.3 1.1,0.5 2.2,-0.6 2.9,-0.1 1.2,-0.3 0.9,-0.4 2.7,-2 0.7,-0.5 0.9,-0.3 0.6,0.1 0.5,0.4 0.4,0.6 0.8,0.6 1.6,0.8 h 1 l 1.5,0.3 3.9,1.8 0.9,0.2 0.9,-0.1 2.1,-1.3 1.1,-0.4 1,0.4 10.8,6 h 0.6 l 1,-0.5 0.5,0.3 0.4,0.4 0.2,0.5 0.6,0.8 1.3,1.1 2.7,-1.2 1.5,0.3 1.1,1.2 0.7,0.6 0.7,-0.1 1.3,-0.5 0.5,0.2 0.6,0.6 0.3,0.2 0.6,0.3 h 0.7 l 0.4,-0.2 0.4,-0.4 0.3,-0.5 0.7,-0.6 0.6,-0.1 0.6,0.1 3.4,1 4.8,-0.9 1,-0.4 0.6,0.3 0.9,0.7 h 0.5 l 1,-0.9 0.9,-0.4 0.8,-0.1 1,0.1 0.7,-0.3 1.4,-1 3.8,1.2 0.5,0.6 0.6,0.8 0.9,2.2 0.1,0.9 -0.2,0.9 -0.2,0.6 -0.2,0.6 v 0.4 l 0.2,0.8 0.5,0.6 8.9,8 0.7,0.2 1,-0.6 0.5,-0.1 0.4,0.4 0.3,0.5 0.2,1.5 0.1,1.1 0.1,0.7 0.6,0.9 2.2,1.7 1,0.4 0.9,0.1 1.7,-0.3 -0.1,2 -0.3,0.6 -0.4,0.5 -0.6,0.2 h -2.1 l -0.7,0.2 -0.2,0.4 0.3,0.5 0.8,0.7 0.1,0.5 -0.4,0.5 -0.8,0.7 -0.5,0.7 -0.2,1 v 0.6 l 0.2,0.2 v 0.1 l 0.4,0.1 0.7,-0.1 h 0.3 l 0.1,0.1 0.2,0.3 0.3,0.7 0.5,0.4 0.5,0.4 0.3,0.5 0.2,0.6 0.1,0.6 0.3,1.5 0.1,1 -0.5,2.2 0.1,1.1 0.2,0.7 0.5,0.4 0.6,-0.1 1.1,-0.4 h 0.4 l 0.4,0.2 0.5,0.8 1.3,1.8 -2.7,2.4 -1.1,1.7 -0.4,1.7 -0.5,1.1 -0.6,0.6 -0.8,0.3 h -0.7 l -1,0.3 -0.3,0.2 -0.1,0.5 0.3,0.6 0.6,1.1 0.1,0.3 -0.2,0.5 -1.3,1.1 -0.3,0.6 -0.1,0.6 0.7,1.4 v 0.3 l -0.1,0.5 -0.3,1.1 -0.2,1.1 0.2,0.9 -1.6,1.7 -0.9,1.8 -0.5,0.2 h -0.6 l -1.2,-0.5 -0.6,-0.1 -6.3,1.1 h -0.9 l -0.7,-0.3 -3,-0.3 -0.7,0.1 -0.5,0.3 -0.4,0.2 -0.4,0.4 -0.4,0.1 -3.1,-0.1 -0.4,0.4 -0.3,0.3 -0.1,0.7 -0.2,0.9 -0.1,0.5 -0.3,0.5 -0.3,0.6 -0.1,0.6 -0.1,0.6 v 0.6 l 0.1,0.6 0.2,0.7 0.2,0.6 0.4,0.5 0.2,0.6 -0.1,0.6 -0.3,0.5 -0.4,0.6 v 0.1 l -0.6,1.2 -0.3,0.6 -0.7,0.8 -2,1 -0.7,0.5 -0.4,0.5 -0.2,0.5 -0.3,1.1 -0.2,1.2 -0.2,1.3 -6.2,2.2 -0.9,0.1 -1,-0.2 v -0.6 l 0.2,-0.6 0.3,-0.5 -0.2,-0.5 -0.7,-0.3 -1.7,0.1 -1,0.4 -0.6,0.6 -0.4,0.6 -0.6,0.7 -1.3,0.8 -0.8,0.2 -8.5,-0.6 -1,0.1 -2.2,0.6 h -0.9 l -0.9,-0.2 -0.6,-0.4 -0.4,-0.5 -0.1,-0.6 0.1,-0.6 0.3,-0.5 0.5,-0.4 h 0.5 l 1.6,0.3 h 0.3 l 0.3,-0.4 0.1,-0.5 -0.2,-0.5 -0.3,-0.7 -0.1,-0.2 v -0.3 l 0.7,-1.1 0.2,-0.6 v -0.6 l -0.5,-0.8 -0.8,-0.9 -3.5,-2.4 v -0.1 l -0.2,-0.3 -0.8,-3.5 -0.4,-0.8 -0.9,-1.3 -0.5,0.1 -1.9,0.3 -2.8,-1.6 -0.6,0.1 -0.4,0.3 -0.4,0.7 -0.7,0.5 -1.6,0.5 -0.7,-0.3 -0.4,-0.4 -0.1,-0.6 -0.3,-0.7 -0.6,-0.5 -0.9,-0.7 -0.6,0.1 -0.4,0.4 -0.5,1.2 -0.4,0.5 -0.5,0.6 -2.1,1 -9,2 -1,-0.7 -0.1,-0.4 v -0.6 l 0.4,-0.4 0.5,-0.6 0.9,-1.3 -0.1,-0.5 -0.2,-0.3 -1.1,-0.7 -0.6,-1 -0.3,-1.1 -0.3,-2.2 -0.5,-1 -0.5,-0.6 -0.6,-0.5 -0.6,-0.8 -0.2,-0.7 v -2.2 l -0.5,-0.4 -2.2,0.5 -1.6,-0.6 -3,-1.7 -1,-0.8 -0.7,-0.8 -0.6,-1.3 v -0.2 l -0.1,-0.6 0.1,-1.4 v -0.5 -0.7 l -0.2,-0.7 -0.2,-0.8 -0.6,-1 -0.7,-0.5 -1.2,-0.7 -0.5,-0.6 -0.2,-0.6 -0.2,-1.4 -0.3,-0.8 -0.8,-0.7 -3.1,-2.2 -0.9,-1 -0.6,-1 -0.5,-1.6 -0.5,-0.6 -1,-0.5 -0.1,-0.5 -0.1,-0.5 0.2,-0.7 0.3,-0.6 1,-1.2 0.3,-0.7 0.1,-0.7 v -0.3 -0.2 l -1.8,-1.1 -0.4,-0.6 -0.1,-0.4 -0.1,-1 -0.1,-0.4 0.1,-0.5 0.1,-0.5 0.3,-1.4 0.1,-0.9 v -0.8 l -0.3,-1.3 -0.5,-0.9 -0.9,-1.3 -3.4,-6.7 -0.3,-1.1 -0.1,-0.6 0.1,-0.7 v -0.8 l -0.3,-0.3 -0.5,-0.1 -0.6,-0.1 -0.5,-0.2 -0.3,-0.5 -0.1,-0.6 0.1,-0.4 0.2,-0.8 v -0.3 -0.6 l -0.1,-0.6 -0.6,-1.4 v -0.6 l 0.6,-0.6 7.9,-1.9 2.4,-1.3 3,-10.2 z"
       id="FRIDF"
       name="Île de France"
       style="fill:#bdcfff;fill-opacity:0.363914" />
  </g>
  <circle
     style="opacity:1;fill:#ff0000;fill-opacity:1;stroke:#ff0000;stroke-width:4.78488;stroke-dasharray:none;stroke-opacity:1"
     id="path13-0"
     cx="380.84406"
     cy="168.04811"
     r="10" />
  <circle
     style="fill:#ff0000;fill-opacity:1;stroke:#ff0000;stroke-width:4.78488;stroke-dasharray:none;stroke-opacity:1"
     id="path13-0-9"
     cx="224.60501"
     cy="146.60953"
     r="10" />
</svg>
