<svg width="1024" height="1024" viewBox="0 0 1024 1024" fill="none" xmlns="http://www.w3.org/2000/svg">
<path d="M704.978 153.674C744.56 150.51 746.693 184.629 770.981 203.009C794.948 221.146 822 212.279 840.174 243.208C846.05 253.053 847.696 264.856 844.737 275.933C840.654 291.507 829.313 300.574 816.1 308.328C815.7 295.694 811.616 285.515 802.331 276.813C788.866 264.195 769.421 261.848 756.507 277.033C739.756 296.728 739.045 319.456 740.798 343.954C743.422 340.768 746.363 337.857 749.576 335.266C764.232 323.375 789.299 314.347 807.69 317.27C895.57 331.237 903.599 459.032 839.958 506.709C812.722 527.113 768.319 533.911 737.552 522.369C698.802 507.831 667.956 493.613 626.374 509.838C563.436 531.942 541.172 599.196 518.918 655.579C506.022 687.942 493.42 720.421 481.112 753.012C473.9 772.364 463.678 806.603 447.207 818.969C420.463 839.045 379.221 836.32 358.466 808.946C379.179 803.509 386.823 783.379 390.295 764.251C391.246 759.009 395.009 740.302 391.143 736.794C386.618 736.852 380.488 750.422 378.129 754.482C367.193 773.305 358.798 797.309 344.511 813.707C335.074 824.537 312.764 830.855 298.834 830.256C272.107 828.827 260.955 824.751 242.824 806.33C275.438 802.772 283.124 771.912 293.277 745.467C301.659 723.633 310.686 696.115 315.791 673.36C322.315 644.983 328.218 616.466 333.495 587.83C335.369 577.63 337.491 567.407 338.9 557.133C339.556 552.351 337.246 549.076 332.271 549.098C311.389 549.192 287.831 560.193 276.922 578.495C273.011 585.061 272.124 591.854 271.43 599.249C277.814 597.393 283.967 595.525 290.685 596.843C297.015 598.024 302.566 601.791 306.003 607.236C321.509 631.392 300.187 670.429 278.282 683.363C259.464 694.473 243.349 696.688 222.191 692.178C219.714 691.488 217.259 690.718 214.832 689.87C194.881 682.772 179.984 667.763 171.195 648.78C159.812 624.191 159.401 596.41 168.938 571.239C189.171 517.835 250.669 488.046 305.673 493.818C314.849 494.781 322.404 496.459 331.08 499.285C347.807 504.733 362.363 512.516 380.418 508.248C388.276 506.391 391.776 504.704 399.045 501.363C404.769 502.804 411.811 503.484 417.719 504.135C413.326 510.746 407.634 520.074 405.258 527.545C394.581 561.115 387.082 596.163 379.849 630.643C375.683 650.501 368.768 673.313 367.794 693.222C372.982 685.463 379.384 669.798 383.156 660.967C392.27 639.628 400.565 617.776 409.438 596.314L428.419 551.067C436.226 532.519 441.447 525.389 440.426 505C447.289 504.905 454.095 505.372 460.921 505.387C474.652 505.417 488.098 505.618 501.815 506.192C489.864 525.303 485.451 540.363 478.285 561.51C471.321 582.086 464.56 602.731 458.004 623.44C451.815 642.056 445.978 660.786 440.495 679.621C439.144 684.397 432.437 706.554 435.248 709.815C441.37 707.898 459.813 658.429 463.572 649.943C477.908 617.584 491.116 584.678 507.01 553.005C528.802 509.579 556.917 464.804 602.099 442.786C633.01 427.645 662.662 435.513 692.298 448.77C701.734 452.585 711.156 457.678 720.781 460.944C754.76 472.472 805.576 459.704 818.166 422.676C822.512 409.896 822.832 392.97 816.783 380.962C812.575 372.527 805.151 366.14 796.183 363.237C787.634 360.484 778.346 361.103 770.403 365.39C784.091 369.262 792.766 378.194 795.074 392.418C797.353 407.286 793.608 422.449 784.669 434.546C775.736 446.818 761.754 455.548 746.709 457.8C731.251 460.114 714.635 455.405 702.206 446.007C691.774 438.119 685.552 426.749 682.982 414.048C675.849 378.791 697.01 294.912 704.198 255.321C707.29 238.291 711.308 219.352 708.754 202.058C707.503 193.586 704.46 184.636 697.18 179.483C687.65 172.738 675.774 174.234 665.005 176.119C678.458 163.087 686.366 156.355 704.978 153.674Z" fill="#FEFEF2"/>
<path d="M433.361 113.715C458.483 111.139 488.057 123.314 503.284 143.489C517.886 162.594 521.14 182.499 518.832 206.123C515.119 244.118 480.719 278.454 441.329 274.523C430.071 273.399 420.528 266.466 413.537 257.643C401.514 243.298 405.549 217.858 420.852 207.372C433.184 198.923 443.133 199.989 451.537 212.526C452.184 211.008 452.734 209.449 453.183 207.861C458.873 188.408 446.448 174.411 428.462 169.667C404.209 163.269 376.642 171.646 355.626 183.872C348.314 188.074 341.4 192.933 334.97 198.39C327.797 204.551 319.264 213.838 312.87 221.15C280.172 258.54 251.701 304.786 237.898 352.726C234.4 368.799 230.832 391.152 239.175 406.113C244.882 416.348 256.82 415.762 265.686 409.95C289.29 394.478 302.73 366.12 309.401 339.491C307.848 339.544 306.295 339.562 304.741 339.543C287.107 339.222 280.497 322.501 281.214 307.345C282.018 290.346 290.542 275.451 302.888 264.093C317.896 250.892 345.151 242.821 361.815 256.888C388.825 279.687 373.322 328.6 365.06 357.377C362.094 367.709 358.816 378.325 355.235 388.208C348.36 407.182 339.534 425.331 334.717 445C330.62 461.584 330.7 471.65 332.748 488.284C306.71 495.976 281.937 488.466 277.62 459.095C247.922 479.926 204.609 498.155 172.63 470.745C153.182 454.076 146.303 426.263 144.47 401.498C139.74 337.582 168.977 274.3 209.782 226.551C264.79 163.428 349.461 119.613 433.361 113.715Z" fill="#FEFEF2"/>
<path d="M674.754 510.631C687.756 509.683 700.565 511.166 711.411 519.118C719.575 525.085 725.001 534.08 726.471 544.085C729.382 563.614 719.483 580.333 708.401 595.287C720.234 590.059 732.761 587.969 741.097 600.58C744.813 606.202 745.708 612.191 744.279 618.75C742.529 626.797 737.623 633.805 730.661 638.204C724.343 642.204 716.685 643.733 709.371 641.937C703.743 640.612 698.892 637.062 695.929 632.097C691.699 624.916 692.782 618.093 694.8 610.625C678.778 621.752 675.742 623.813 657.009 628.29C655.829 632.38 647.83 649.178 647.79 651.078C649.876 650.311 651.766 649.337 653.91 650.189C664.48 654.39 657.918 671.626 652.853 678.015C649.746 681.935 647.417 683.492 643.235 685.185L636.108 683.369C632.058 691.403 627.061 705.728 623.745 714.513C617.237 731.606 610.823 748.734 604.504 765.898C600.127 777.853 592.681 797.524 594.948 810.204C595.973 815.936 599.615 818.826 604.126 821.742C598.621 824.685 592.838 827.097 586.732 828.467C574.547 831.203 557.156 831.391 546.348 824.165C541.834 821.148 538.85 816.634 537.999 811.259C534.985 792.236 566.235 719.639 574.931 696.686C583.02 675.332 591.199 653.946 598.274 632.233C605.428 610.278 608.652 587.207 616.601 565.521C619.876 556.34 624.342 547.628 629.884 539.61C641.311 523.318 655.207 514.074 674.754 510.631Z" fill="#FEFEF2"/>
<path d="M680.166 561.481C703.612 561.026 665.857 605.904 661.626 610.967L657.099 616.297C659.881 598.664 665.75 572.851 680.166 561.481Z" fill="black"/>
<path d="M693.754 646.676C695 646.572 696.248 646.503 697.498 646.47C705.669 646.313 714.785 649.341 720.609 655.184C723.629 658.214 726.12 662.347 726.045 666.754C725.891 675.745 720.423 686.466 716.95 694.638C708.903 713.572 687.17 758.632 687.501 777.274C687.576 781.53 688.649 786.228 691.917 789.205C694.796 791.828 698.926 792.617 702.717 792.384C707.198 792.108 711.096 789.858 714.03 786.527C719.159 780.704 722.024 771.011 717.912 763.888C715.944 760.479 713.039 757.624 711.272 754.084C709.302 750.136 708.614 745.127 708.434 740.758C707.861 726.869 712.192 712.051 721.87 701.808C730.142 693.051 742.107 688.607 754.027 688.408C765.261 688.221 776.566 691.925 784.695 699.867C795.914 710.828 798.782 726.698 799.046 741.743C797.902 776.674 775.145 804.983 743.943 818.965C717.281 830.914 686.262 834.586 658.433 824.61C611.358 807.733 633.329 759.007 647.157 726.193C653.551 710.181 660.134 694.252 666.779 678.343C669.735 671.269 671.195 663.229 667.946 656.046L667.663 655.435C677.999 649.93 682.238 648.144 693.754 646.676Z" fill="#FEFEF2"/>
<path d="M558.331 255.608L558.903 255.554C580.269 253.648 596.432 266.242 598.075 288.133C600.161 315.936 582.507 343.713 565.142 364.072C554.526 376.518 541.294 388.375 526.297 395.226C518.443 398.803 505.23 404.39 497.847 397.21C492.81 392.313 493.636 383.829 493.788 377.376C487.375 396.974 483.281 445.895 517.633 437.085C517.06 430.631 516.414 425.989 519.204 419.66C522.296 412.829 528.059 407.569 535.144 405.113C550.455 399.664 563.096 408.043 567.874 422.675C574.471 466.56 511.682 501.186 475.523 476.521C445.854 456.283 451.234 415.556 458.617 385.407C471.112 334.393 501.468 266.899 558.331 255.608Z" fill="#FEFEF2"/>
<path d="M538.806 301.877C549.57 302.866 543.311 323.101 541.269 328.985C535.242 346.357 525.276 361.311 508.484 369.681L503.373 371.484C505.004 348.308 517.366 313.621 538.806 301.877Z" fill="black"/>
<path d="M666.689 199.171C672.762 198.685 680.158 199.584 685.426 202.588C707.069 215.306 700.704 245.863 690.689 264.332C684.683 275.408 669.573 294.224 654.305 286.386C646.707 282.485 658.564 273.021 655.646 267.132C654.963 265.755 654.565 265.061 653.003 264.412C648.005 261.912 642.043 265.221 640.301 270.454C635.217 285.722 655.149 296.152 663.815 305.363C668.939 310.809 673.243 316.446 676.034 323.399C692.312 364.313 665.301 414.897 625.848 430.575C624.241 431.082 622.623 431.552 620.995 431.986C608.896 435.098 596.053 434.253 585.209 427.725C551.063 407.205 566.687 346.262 602.697 337.247C615.441 334.057 624.966 339.092 627.957 352.056C638.556 314.346 607.852 309.077 603.601 275.978C599.273 242.284 633.846 203.085 666.689 199.171Z" fill="#FEFEF2"/>
<path d="M480.977 286.195L481.269 286.754C480.479 290.795 477.626 298.862 476.271 303.036C474.053 309.837 472.017 316.695 470.163 323.604C462.525 351.252 456.679 379.934 446.962 407.014C438.511 430.562 430.378 457.724 413.248 476.543C402.505 488.344 389.125 494.193 373.329 489.139C352.95 482.618 351.198 461.226 351.246 442.986C351.949 413.729 361.884 384.736 371.532 357.435C377.48 339.967 385.935 319.674 393.575 302.965C406.003 300.861 418.403 298.593 430.771 296.163C419.375 331.839 398.705 366.953 392.733 404.354C392.283 407.174 392.446 413.94 396.478 414.208C403.942 414.704 408.169 404.722 410.95 399.166C419.667 377.177 425.8 353.604 431.891 330.74C435.065 318.765 438.753 306.596 440.791 294.397L480.977 286.195Z" fill="#FEFEF2"/>
<path d="M546.824 645.199C547.781 645.11 548.742 645.053 549.703 645.025C564.398 644.674 579.864 652.949 578.53 669.639C577.6 681.285 571.795 692.229 567.492 702.981C561.644 717.624 555.916 732.314 550.31 747.05C543.271 765.328 532.477 788.95 531.558 808.531C531.279 814.463 534.262 818.04 538.298 821.935C523.016 828.342 515.278 830.492 498.828 830.587C483.025 830.041 470.761 825.417 462.381 811.432C477.291 798.416 481.452 782.844 488.011 764.856C491.955 754.03 495.986 743.235 500.104 732.474L514.59 694.535C518.297 684.959 522.702 674.777 525.13 664.896C524.294 662.917 521.65 657.222 521.622 655.724C521.483 648.052 542.297 645.647 546.824 645.199Z" fill="#FEFEF2"/>
<path d="M871.067 494.305C872.886 499.346 870.815 514.366 870.194 520.246C865.304 566.506 834.187 628.25 778.798 599.253C768.254 593.733 759.448 584.081 752.048 574.628C743.017 562.162 737.721 550.792 733.261 536.21C757.447 548.349 778.628 555.975 805.925 548.224C836.738 539.473 855.575 521.205 871.067 494.305Z" fill="#FEFEF2"/>
<path d="M508.091 107.294C515.335 106.418 522.485 106.998 529.69 107.681C563.328 110.868 589.22 135.225 584.17 170.594C579.979 199.947 564.525 215.572 542.216 233.051C534.633 238.447 529.102 242.178 520.796 246.63C525.797 239.812 530.003 232.446 533.334 224.674C547.161 192.566 549.164 147.023 521.253 121.483C514.173 115.005 507.257 112.178 498.597 108.453C501.674 107.955 504.973 107.643 508.091 107.294Z" fill="#FEFEF2"/>
<path d="M610.272 116.615C639.588 114.865 653.382 133.392 647.141 161.499C640.664 190.672 618.209 206.246 594.483 221.157C589.169 224.22 583.399 227.23 577.979 230.157C599.572 206.776 615.817 178.772 606.821 146.153C604.045 136.087 600.028 130.447 594.151 122.081C600.16 119.188 603.791 117.878 610.272 116.615Z" fill="#FEFEF2"/>
<path d="M303.763 685.888C304.146 687.954 303.209 690.5 302.488 692.511C294.059 715.287 278.706 744.23 255.62 754.958C232.164 765.858 214.855 752.395 205.342 731.492C200.618 718.055 200.404 708.186 202.816 694.249C216.142 709.413 228.696 720.008 250.325 718.234C274.083 716.285 289.027 703.418 303.763 685.888Z" fill="#FEFEF2"/>
<path d="M844.164 608.904C844.914 610.816 844.205 613.307 843.6 615.411C836.388 640.496 817.996 677.787 785.833 669.119C776.668 666.649 769.809 657.899 765.519 649.555C760.044 637.374 759.711 626.483 758.572 613.334C777.802 628.816 800.178 635.216 823.29 624.185C831.897 620.077 837.273 615.247 844.164 608.904Z" fill="#FEFEF2"/>
<path d="M149.493 465.751C150.506 466.702 153.204 470.64 153.861 471.866C167.29 496.927 195.088 507.182 221.788 497.637C226.692 495.884 231.554 495.437 236.985 495.481C228.112 500.266 221.459 503.79 213.223 509.577C204.431 515.876 196.989 523.012 187.676 528.778C174.409 536.994 158.372 536.702 150.295 521.417C141.717 505.187 144.511 482.625 149.493 465.751Z" fill="#FEFEF2"/>
<path d="M566.842 590.58C602.592 587.35 600.905 633.855 569.137 642.439C533.874 645.175 533.735 601.478 566.842 590.58Z" fill="#FEFEF2"/>
</svg>
