<svg xmlns="http://www.w3.org/2000/svg" width="447" height="444" fill="none" viewBox="0 0 447 444">
  <g clip-path="url(#a)">
    <path fill="#434041" d="M48.036 204.417c1.363.126 2.945 1.907 3.876 2.873 16.435 17.059 26.171 38.651 16.992 62.102-2.564 6.552-6.521 12.593-10.657 18.25-6.932 9.483-15.505 18.124-19.94 29.214-3.119 7.797-3.158 16.437-3.315 24.706-.021.253-.1.538-.15.788-.416.17-.236.129-.529.175a6.348 6.348 0 0 1-.385-1.037c-.857-3.299-.781-7.163-.79-10.568-.058-23.253 15.005-34.23 26.398-52.011 15.004-23.416 10.456-44.433-5.32-65.768-1.266-1.711-5.92-6.761-6.153-8.4-.015-.108-.018-.216-.027-.324Zm41.885-107.43.176.343c-.858 1.926-3.697 3.937-5.194 5.503a34.43 34.43 0 0 0-2.508 2.882 34.828 34.828 0 0 0-3.995 6.502 34.862 34.862 0 0 0-1.439 3.54 32.036 32.036 0 0 0-1.462 15.486c3.761 26.206 33.83 40.716 44.814 63.746a55.927 55.927 0 0 1 1.649 3.761 53.349 53.349 0 0 1 .942 2.57 54.81 54.81 0 0 1 2.464 10.655 56.591 56.591 0 0 1 .282 2.724 52.096 52.096 0 0 1 .146 2.733 56.906 56.906 0 0 1 .011 2.739 52.07 52.07 0 0 1-.125 2.734 56.199 56.199 0 0 1-.26 2.727 55.861 55.861 0 0 1-.925 5.395 55.913 55.913 0 0 1-1.041 3.972 54.897 54.897 0 0 1-.858 2.6c-5.092 14.363-16.32 26.408-28.472 35.25-2.437 1.772-5.026 3.788-7.743 5.086-.147-.941.142-1.265.814-1.898 2.581-2.434 5.456-4.608 8.102-6.985 9.919-8.909 18.641-18.978 23.486-31.569 3.114-8.093 4.148-16.439 2.985-25.046-2.994-22.146-20.67-35.849-34.52-51.563-4.64-5.263-9.073-10.813-11.928-17.274-3.865-8.743-5.406-19.037-1.827-28.151 2.944-7.495 8.902-15.152 16.426-18.462Z"/>
    <path fill="#434041" d="M51.174.327c2.11 1.036 6.707 11.475 7.895 14.276 9.335 22.02 8.294 47.632-.964 69.504-6.711 15.855-15.759 31.149-15.486 48.952.113 7.412 1.703 14.262 5.108 20.862 13.093 25.38 45.576 28.296 55.471 56.31 1.092 3.093 2.662 8.322 1.15 11.491-.129-.112-.457-.463-.522-.61-.303-.69-.364-1.959-.528-2.725-.511-2.396-1.094-4.847-2.032-7.117-2.426-5.871-6.754-11.382-11.123-15.926-6.609-6.875-15.056-11.301-22.957-16.444-6.252-4.07-12.009-8.829-16.816-14.549a48.019 48.019 0 0 1-3.114-4.085 47.02 47.02 0 0 1-1.828-2.896 50.198 50.198 0 0 1-1.616-3.021 47.404 47.404 0 0 1-2.572-6.345 48.378 48.378 0 0 1-1.647-6.645 49.674 49.674 0 0 1-.262-1.692c-3.206-23.985 10.076-42.086 17.583-63.487a89.599 89.599 0 0 0 2.195-7.018 89.88 89.88 0 0 0 1.608-7.175 89.534 89.534 0 0 0 1.008-7.283 89.173 89.173 0 0 0 .404-7.342 91.958 91.958 0 0 0-1.746-18.307 91.816 91.816 0 0 0-1.39-5.98c-1.185-4.486-2.789-8.932-4.526-13.234-1.029-2.548-2.303-5.117-3.118-7.73-.2-.639-.234-1.12-.175-1.784ZM18.157 123.213c.212.04.441.16.642.242.09.574.105.53-.2.978-.864 1.264-2.168 2.435-3.2 3.577a43.432 43.432 0 0 0-4.809 6.407c-14.446 23.422 5.176 40.812 17.035 59.388 5.984 9.375 10.867 19.813 13.439 30.665 6.886 29.055-2.778 58.785-17.863 83.613-6.337 10.429-12.85 17.473-16.44 29.667a48.675 48.675 0 0 0-1.821 18.7c.152 1.615 2.311 12.554 1.795 13.389l-.481-.332c-2.762-5.083-4.154-11.36-4.463-17.102-.928-17.282 5.968-27.113 14.873-40.892 2.682-4.15 5.216-8.5 7.59-12.835 5.729-10.465 10.504-22.34 13.08-34.01 5.585-25.312.588-47.523-13.24-69.215-4.428-6.948-9.65-13.381-14.065-20.335-6.016-9.475-9.866-18.706-7.278-30.036 2.083-9.12 7.491-16.922 15.406-21.869Zm401.271 77.272c2.191-.114 4.697.667 6.693 1.532 8.191 3.55 14.48 11.961 17.646 20.077 3.413 8.75 4.446 20.388.484 29.152-1.108 2.451-2.378 3.544-4.734 4.709-4.859 2.402-9.886 4.485-14.808 6.759l-43.325 19.759-166.795 75.561-130.113 59.293-35.32 16.011c-7.447 3.398-14.947 7.098-22.598 9.974-.136.012-.271.031-.408.036-4.17.165-13.988-9.677-16.484-12.783-1.213-1.509-1.939-3.372-3.204-4.828-1.403-1.613-3.59-2.59-5.137-4.17 2.457-10.608 1.65-17.847-1.043-28.201 2.165-1.343 4.593-2.433 6.506-4.133 1.823-1.62 2.766-4.413 4.915-5.65 3.882-2.233 8.331-3.716 12.429-5.534l25.453-11.389 102.41-45.68L301.28 253.9l71.13-32.241c15.639-7.107 31.229-14.414 47.018-21.174Z"/>
    <path fill="#C29B00" d="M5.22 396.902c1.265.618 2.464 1.672 3.42 2.694 3.684 3.938 5.872 9.511 5.586 14.926-.119 2.247-.831 4.053-2.54 5.53-1.133.595-2.313.927-3.534 1.285-1.052-.431-2.066-.961-3.086-1.462 1.752-9.729 1.647-13.217.154-22.973Z"/>
    <path fill="#E19302" d="M23.098 393.624c.396.283.78.58 1.155.891a26.916 26.916 0 0 1 2.053 1.852 27.956 27.956 0 0 1 2.706 3.141 27.068 27.068 0 0 1 1.53 2.305 27.627 27.627 0 0 1 3.392 9.017 27.805 27.805 0 0 1 .369 2.741c.567 6.42-1.254 18.07-5.671 22.997-.694.773-1.417 1.131-2.457 1.172-4.688.189-8.692-4.295-11.794-7.274l-1.934-2.308c2.266 1.222 9.977 6.939 11.852 6.725 1.355-.155 2.252-1.264 2.977-2.308 3.447-4.965 5.065-13.941 1.364-19.124-2.96-4.148-7.352-4.719-8.361-10.721-.614-3.648.817-6.243 2.819-9.106Z"/>
    <path fill="#E53234" d="M13.483 389.235c2.214.106 4.628 1.337 6.636 2.2-1.001 2.129-2.123 4.166-2.702 6.463-3.195 12.677 9.898 13.274 10.505 21.981a16.169 16.169 0 0 1 .008 2.495 16.144 16.144 0 0 1-.204 1.652 16.71 16.71 0 0 1-.616 2.418 16.902 16.902 0 0 1-.975 2.297 16.045 16.045 0 0 1-1.31 2.124 16.698 16.698 0 0 1-1.045 1.295l-1.956-1.958c-3.132-2.449-6.888-3.985-9.996-6.452 1.036-.771 2.04-1.547 2.86-2.559 2.244-2.767 2.76-6.283 2.463-9.732-.571-6.644-4.502-13.448-9.562-17.684 1.878-1.667 3.653-3.369 5.894-4.54Z"/>
    <path fill="#FDFDFD" d="M340.784 240.977c.132.018.266.024.396.056.93.229 2.044.955 2.877 1.443.647.376 1.28.774 1.901 1.192a33.946 33.946 0 0 1 3.549 2.74 34.879 34.879 0 0 1 3.162 3.179 34.53 34.53 0 0 1 3.904 5.469c5.947 10.19 6.975 20.595 4.004 31.893-3.494 1.262-6.844 2.955-10.257 4.423-.352.088-.164.098-.551-.129.051-1.587.803-3.193 1.136-4.753.865-4.054.55-9.154-.379-13.18-2.723-11.807-10.019-21.18-20.228-27.488a302.12 302.12 0 0 1 10.486-4.845Z"/>
    <path fill="#EE925D" d="M420.289 204.999c1.326-.069 2.667.416 3.888.891 7.359 2.865 12.351 9.925 15.366 16.93 3.177 7.385 4.482 17.403 1.353 25.03-.511 1.246-1.235 2.667-2.369 3.453-2.812 1.95-6.566 3.229-9.702 4.634l-14.971 6.804c-16.256 7.315-32.361 15.071-48.76 22.046-.481.142-.478.251-.951.015-.27-1.529.474-3.583.62-5.176a42.195 42.195 0 0 0 .025-7.181 42.542 42.542 0 0 0-1.189-7.081c-2.885-11.336-9.926-20.035-19.842-25.976 5.187-2.441 10.463-4.638 15.687-6.991l29.232-13.338 17.406-7.843c4.646-2.147 9.325-4.679 14.207-6.217Z"/>
    <path fill="#FED344" d="M376.702 270.999c.231.078.579.183.778.315.592.391.651.669.765 1.306-.25.837-.641 1.125-1.294 1.64-.084-.046-.169-.087-.251-.137-.7-.43-.972-.812-1.152-1.606.208-.747.59-1.037 1.154-1.518Zm11.535-47.666c.32.081.545.126.858.263.622.273.827.68 1.075 1.268-.095.846-.344 1.186-.865 1.812-.466-.029-.842-.111-1.292-.22-.475-.431-.777-.612-.79-1.316-.014-.777.518-1.295 1.014-1.807Zm-28.792 15.045c.325.118.77.239 1.05.437.572.405.593.64.736 1.279-.241.825-.63 1.216-1.231 1.816-.307-.11-.724-.228-1-.421-.558-.39-.643-.855-.754-1.479.223-.84.523-1.104 1.199-1.632Zm41.378 17.256c.34.081.756.152 1.079.302.653.302.813.669 1.072 1.302-.031.811-.322 1.209-.763 1.851-.386-.059-.855-.123-1.212-.295-.623-.299-.791-.674-1.028-1.284.029-.87.337-1.228.852-1.876Zm17.925-28.543c.318.1.707.196 1.003.362.59.33.728.663.913 1.28-.164.881-.571 1.278-1.172 1.92-.36-.076-.943-.178-1.245-.41-.48-.368-.714-.732-.682-1.348.039-.749.691-1.309 1.183-1.804Zm-6.57 15.298c.431.077 1.07.167 1.451.385.611.351.635.565.812 1.195-.175.799-.597 1.124-1.173 1.649-.384-.053-.838-.091-1.198-.236-.625-.253-.751-.65-.938-1.241.149-.824.495-1.17 1.046-1.752Zm21.3-9.51c.367.063.953.118 1.276.323.599.382.644.635.823 1.273-.163.905-.455 1.247-1.094 1.893-.431-.073-.964-.164-1.342-.396-.475-.292-.713-.78-.717-1.328-.005-.755.566-1.273 1.054-1.765Zm-47.774 26.583c.475-.003 1.098-.009 1.542.154.623.229.746.552.996 1.1-.025.851-.268 1.222-.734 1.889-.404.004-1.003.038-1.388-.109-.678-.259-.769-.498-1.083-1.099-.011-.832.255-1.252.667-1.935Zm10.309-25.883c.42.068.915.145 1.288.366.601.356.711.685.92 1.296-.081.876-.341 1.201-.918 1.85-.466-.037-1.169-.108-1.573-.357-.586-.362-.612-.576-.77-1.196.147-.856.53-1.304 1.053-1.959Zm-22.289 13.358c.545.002 1.102.042 1.616.242.581.227.792.657 1.014 1.19-.017.869-.276 1.224-.77 1.889-.459.054-.991.071-1.424-.125-.524-.238-.894-.637-1.039-1.197-.2-.771.221-1.381.603-1.999Zm51.25 2.251c.451.034 1.148.124 1.526.389.629.44.665.694.832 1.393-.156.834-.461 1.218-1.009 1.854-.468-.037-1.165-.135-1.558-.412-.611-.433-.639-.702-.812-1.385.171-.852.434-1.208 1.021-1.839Zm-21.259-30.78c.733.076 1.342.159 1.911.682.416.382.594.822.541 1.384-.069.728-.771 1.154-1.303 1.55-.554-.053-1.26-.239-1.687-.633-.564-.52-.566-.783-.671-1.502.322-.801.559-.944 1.209-1.481Zm17.791-6.273c.488.069 1.181.222 1.562.559.504.446.724.847.691 1.533-.035.742-.605 1.328-1.066 1.854-.64-.023-1.265-.047-1.768-.522-.463-.437-.541-.938-.513-1.545.035-.764.593-1.366 1.094-1.879Zm-46.6 21.32c.842.013 1.205.058 1.93.486.264.394.471.55.476 1.044.011 1.067-.569 1.611-1.27 2.306-.514-.12-1.118-.278-1.544-.603-.564-.429-.619-.771-.762-1.413.189-.88.524-1.211 1.17-1.82Z"/>
    <path fill="#FDFDFD" d="M327.446 247.031c.335.172.669.347 1.001.524a38.587 38.587 0 0 1 3.273 1.993 39.757 39.757 0 0 1 4.505 3.565 39.401 39.401 0 0 1 5.108 5.702 38.75 38.75 0 0 1 2.114 3.197 39.651 39.651 0 0 1 1.791 3.388 39.024 39.024 0 0 1 2.047 5.368c2.219 7.493 2.161 15.977-1.629 22.96a9698.238 9698.238 0 0 0-104.788 47.695l-64.854 29.542-92.023 42.076c-16.938 7.699-34.074 15.052-50.861 23.07 1.244-2.552 2.376-5.134 3.197-7.857 2.668-8.837 2.381-19.111-2.132-27.314-3.706-6.734-10.492-12.53-17.895-14.72 2.89-1.055 5.639-2.722 8.457-3.988l20.801-9.15 55.042-24.465 196.82-87.97c10.051-4.444 19.953-9.227 30.026-13.616Z"/>
    <path fill="#434041" d="M64.698 387.115c.152.075.32.122.454.224 1.83 1.399 3.501 7.938 3.853 10.212.952 6.136-.611 11.747-4.262 16.712-.347.369-.478.486-.955.706 4.188-11.458 5.156-15.937.91-27.854Zm-27.548-6.366c.114.034.232.061.345.103 5.496 2.028 10.155 8.674 12.466 13.774 3.305 7.292 3.867 15.254 1.08 22.776l-.342.564c-.09-.113.541-7.033.488-8.16-.55-11.729-5.37-21.199-14.037-29.057Z"/>
  </g>
  <defs>
    <clipPath id="a">
      <path fill="#fff" d="M0 0h447v444H0z"/>
    </clipPath>
  </defs>
</svg>
