<?xml version="1.0" encoding="UTF-8" standalone="no"?>
<svg
   sodipodi:docname="23 - Security Box.svg"
   inkscape:version="1.1.1 (1:1.1+202109281949+c3084ef5ed)"
   id="svg831"
   version="1.1"
   viewBox="0 0 22.577778 22.577778"
   height="64pt"
   width="64pt"
   inkscape:export-filename="/media/taufikramadhan/Data/Tr Design Studio/Project Design/TR Creative Design/Icon Design/Project Hiring/Icon Icons/009 -  Hotel And Holidays/Send/3 - Flat/SVG/22 - Vehicle.png"
   inkscape:export-xdpi="576"
   inkscape:export-ydpi="576"
   xmlns:inkscape="http://www.inkscape.org/namespaces/inkscape"
   xmlns:sodipodi="http://sodipodi.sourceforge.net/DTD/sodipodi-0.dtd"
   xmlns="http://www.w3.org/2000/svg"
   xmlns:svg="http://www.w3.org/2000/svg"
   xmlns:rdf="http://www.w3.org/1999/02/22-rdf-syntax-ns#"
   xmlns:cc="http://creativecommons.org/ns#"
   xmlns:dc="http://purl.org/dc/elements/1.1/">
  <defs
     id="defs825">
    <pattern
       y="0"
       x="0"
       height="6"
       width="6"
       patternUnits="userSpaceOnUse"
       id="EMFhbasepattern" />
    <pattern
       y="0"
       x="0"
       height="6"
       width="6"
       patternUnits="userSpaceOnUse"
       id="EMFhbasepattern-9" />
    <pattern
       y="0"
       x="0"
       height="6"
       width="6"
       patternUnits="userSpaceOnUse"
       id="EMFhbasepattern-0" />
    <pattern
       y="0"
       x="0"
       height="6"
       width="6"
       patternUnits="userSpaceOnUse"
       id="EMFhbasepattern-7" />
    <pattern
       y="0"
       x="0"
       height="6"
       width="6"
       patternUnits="userSpaceOnUse"
       id="EMFhbasepattern-2" />
    <pattern
       y="0"
       x="0"
       height="6"
       width="6"
       patternUnits="userSpaceOnUse"
       id="EMFhbasepattern-98" />
    <pattern
       y="0"
       x="0"
       height="6"
       width="6"
       patternUnits="userSpaceOnUse"
       id="EMFhbasepattern-6" />
    <pattern
       y="0"
       x="0"
       height="6"
       width="6"
       patternUnits="userSpaceOnUse"
       id="EMFhbasepattern-01" />
    <pattern
       y="0"
       x="0"
       height="6"
       width="6"
       patternUnits="userSpaceOnUse"
       id="EMFhbasepattern-07" />
    <pattern
       y="0"
       x="0"
       height="6"
       width="6"
       patternUnits="userSpaceOnUse"
       id="EMFhbasepattern-8" />
    <pattern
       y="0"
       x="0"
       height="6"
       width="6"
       patternUnits="userSpaceOnUse"
       id="EMFhbasepattern-4" />
    <pattern
       y="0"
       x="0"
       height="6"
       width="6"
       patternUnits="userSpaceOnUse"
       id="EMFhbasepattern-40" />
    <pattern
       y="0"
       x="0"
       height="6"
       width="6"
       patternUnits="userSpaceOnUse"
       id="EMFhbasepattern-08" />
    <pattern
       y="0"
       x="0"
       height="6"
       width="6"
       patternUnits="userSpaceOnUse"
       id="EMFhbasepattern-04" />
    <pattern
       y="0"
       x="0"
       height="6"
       width="6"
       patternUnits="userSpaceOnUse"
       id="EMFhbasepattern-014" />
    <pattern
       y="0"
       x="0"
       height="6"
       width="6"
       patternUnits="userSpaceOnUse"
       id="EMFhbasepattern-27" />
    <pattern
       y="0"
       x="0"
       height="6"
       width="6"
       patternUnits="userSpaceOnUse"
       id="EMFhbasepattern-09" />
    <pattern
       y="0"
       x="0"
       height="6"
       width="6"
       patternUnits="userSpaceOnUse"
       id="EMFhbasepattern-5" />
    <pattern
       y="0"
       x="0"
       height="6"
       width="6"
       patternUnits="userSpaceOnUse"
       id="EMFhbasepattern-018" />
  </defs>
  <sodipodi:namedview
     inkscape:document-rotation="0"
     inkscape:snap-global="true"
     inkscape:snap-nodes="false"
     inkscape:bbox-nodes="true"
     inkscape:snap-bbox="true"
     showguides="false"
     inkscape:snap-midpoints="true"
     inkscape:snap-smooth-nodes="true"
     inkscape:snap-intersection-paths="true"
     inkscape:object-paths="true"
     inkscape:showpageshadow="false"
     inkscape:pagecheckerboard="true"
     inkscape:window-maximized="1"
     inkscape:window-y="31"
     inkscape:window-x="0"
     inkscape:window-height="705"
     inkscape:window-width="1366"
     units="pt"
     showgrid="false"
     inkscape:current-layer="layer1"
     inkscape:document-units="pt"
     inkscape:cy="43.228498"
     inkscape:cx="39.063252"
     inkscape:zoom="4.4415145"
     inkscape:pageshadow="2"
     inkscape:pageopacity="0.0"
     borderopacity="1.0"
     bordercolor="#666666"
     pagecolor="#ffffff"
     id="base">
    <inkscape:grid
       id="grid1378"
       type="xygrid" />
    <sodipodi:guide
       inkscape:locked="false"
       id="guide1380"
       orientation="78.000048,0"
       position="0.97013831,21.607643" />
    <sodipodi:guide
       inkscape:locked="false"
       id="guide1382"
       orientation="0,78.000005"
       position="0.97013831,0.97013129" />
    <sodipodi:guide
       inkscape:locked="false"
       id="guide1384"
       orientation="-78.000048,0"
       position="21.607639,0.97013129" />
    <sodipodi:guide
       inkscape:locked="false"
       id="guide1386"
       orientation="0,-78.000005"
       position="21.607639,21.607643" />
  </sodipodi:namedview>
  <metadata
     id="metadata828">
    <rdf:RDF>
      <cc:Work
         rdf:about="">
        <dc:format>image/svg+xml</dc:format>
        <dc:type
           rdf:resource="http://purl.org/dc/dcmitype/StillImage" />
      </cc:Work>
    </rdf:RDF>
  </metadata>
  <g
     transform="translate(0,-274.42223)"
     id="layer1"
     inkscape:groupmode="layer"
     inkscape:label="Icon">
    <g
       id="g38657"
       style="display:inline;stroke-width:0.794886"
       transform="matrix(1.2580419,0,0,1.2580419,-114.48469,-115.6497)">
      <path
         style="color:#000000;fill:#3a4d5c;fill-opacity:1;stroke-width:0.794886;stroke-linecap:round;stroke-linejoin:round;stroke-miterlimit:1.5;-inkscape-stroke:none"
         d="m 93.625,324.72461 a 0.26460996,0.26460996 0 0 0 -0.263672,0.26562 v 1.05664 c -4e-6,0.28913 0.240178,0.5293 0.529297,0.5293 h 0.529297 c 0.25814,-10e-6 0.496929,-0.13921 0.625,-0.36328 l 0.660156,-1.08594 a 0.26460996,0.26460996 0 0 0 -0.226562,-0.40234 z"
         id="path1652" />
      <path
         style="color:#000000;fill:#3a4d5c;fill-opacity:1;stroke-width:0.794886;stroke-linecap:round;stroke-linejoin:round;stroke-miterlimit:1.5;-inkscape-stroke:none"
         d="m 104.4707,324.72461 a 0.26460996,0.26460996 0 0 0 -0.22656,0.40234 l 0.66211,1.08594 c 0.12807,0.22406 0.36686,0.36327 0.625,0.36328 h 0.5293 c 0.28912,0 0.52931,-0.24015 0.52929,-0.5293 v -1.05664 a 0.26460996,0.26460996 0 0 0 -0.26367,-0.26562 z"
         id="path1658" />
      <path
         style="color:#000000;fill:#3a4d5c;fill-opacity:1;stroke-width:0.794886;stroke-linecap:round;stroke-linejoin:round;stroke-miterlimit:1.5;-inkscape-stroke:none"
         d="m 94.154297,311.49609 c -0.435236,0 -0.792966,0.35773 -0.792969,0.79297 v 0.5293 a 0.26460996,0.26460996 0 0 0 0.263672,0.26562 h 12.70117 a 0.26460996,0.26460996 0 0 0 0.26367,-0.26562 v -0.5293 c 0,-0.43524 -0.35773,-0.79297 -0.79296,-0.79297 z"
         id="path1664" />
      <path
         style="color:#000000;fill:#aabfd0;stroke-width:0.794886;stroke-linecap:round;stroke-linejoin:round;stroke-miterlimit:1.5;-inkscape-stroke:none"
         d="m 93.625,312.55469 c -1.021479,0 -1.851563,0.83008 -1.851563,1.85156 v 8.99609 c 0,1.02148 0.830084,1.85157 1.851563,1.85157 h 12.70117 c 1.02148,0 1.85156,-0.83009 1.85156,-1.85157 v -8.99609 c 0,-1.02148 -0.83008,-1.85156 -1.85156,-1.85156 z"
         id="path1670" />
      <path
         style="color:#000000;fill:#d0e2ee;stroke-width:0.794886;stroke-linecap:round;stroke-linejoin:round;stroke-miterlimit:1.5;-inkscape-stroke:none"
         d="m 94.419922,313.61133 c -0.435246,0 -0.794922,0.35968 -0.794922,0.79492 v 8.99609 c 0,0.43525 0.359676,0.79297 0.794922,0.79297 h 11.640628 c 0.43524,0 0.79297,-0.35772 0.79297,-0.79297 v -8.99609 c 0,-0.43524 -0.35773,-0.79492 -0.79297,-0.79492 z"
         id="path1677" />
      <path
         style="color:#000000;fill:#7d8e9e;stroke-width:0.794886;stroke-linecap:round;stroke-linejoin:round;stroke-miterlimit:1.5;-inkscape-stroke:none"
         d="m 93.625,314.93555 c -0.435161,0 -0.792969,0.3578 -0.792969,0.79297 v 1.05859 c 0,0.43516 0.357808,0.79297 0.792969,0.79297 h 0.529297 c 0.435161,0 0.792969,-0.35781 0.792969,-0.79297 v -1.05859 c 0,-0.43517 -0.357808,-0.79297 -0.792969,-0.79297 z"
         id="path1683" />
      <path
         style="color:#000000;fill:#7d8e9e;stroke-width:0.794886;stroke-linecap:round;stroke-linejoin:round;stroke-miterlimit:1.5;-inkscape-stroke:none"
         d="m 93.625,320.49219 c -0.435161,0 -0.792969,0.3578 -0.792969,0.79297 v 1.05859 c 0,0.43516 0.357808,0.79297 0.792969,0.79297 h 0.529297 c 0.435161,0 0.792969,-0.35781 0.792969,-0.79297 v -1.05859 c 0,-0.43517 -0.357808,-0.79297 -0.792969,-0.79297 z"
         id="path1696" />
      <path
         style="color:#000000;fill:#7d8e9e;stroke-width:0.794886;stroke-linecap:round;stroke-linejoin:round;stroke-miterlimit:1.5;-inkscape-stroke:none"
         d="m 99.974609,314.93555 c -2.188746,0 -3.96875,1.78 -3.96875,3.96875 0,2.18874 1.780004,3.96875 3.96875,3.96875 2.188751,0 3.968751,-1.78001 3.968751,-3.96875 0,-2.18875 -1.78,-3.96875 -3.968751,-3.96875 z"
         id="path1709" />
      <path
         style="color:#000000;fill:#3a4d5c;stroke-width:0.794886;stroke-linecap:round;stroke-linejoin:round;stroke-miterlimit:1.5;-inkscape-stroke:none"
         d="m 99.974609,316.52344 c -1.311992,0 -2.380859,1.06886 -2.380859,2.38086 0,1.31199 1.068867,2.38086 2.380859,2.38086 1.311991,0 2.382811,-1.06887 2.382811,-2.38086 0,-1.312 -1.07082,-2.38086 -2.382811,-2.38086 z"
         id="path1715" />
      <path
         id="path26769"
         style="color:#000000;fill:#283843;fill-opacity:1;stroke-width:0.794886;stroke-linecap:round;stroke-linejoin:round;stroke-miterlimit:1.5;-inkscape-stroke:none"
         d="m 99.974778,316.52335 c -0.790779,0 -1.493173,0.38864 -1.926497,0.98444 0.392832,-0.28593 0.875794,-0.45527 1.397331,-0.45527 1.311988,0 2.382798,1.06873 2.382798,2.38073 0,0.52091 -0.16907,1.00372 -0.45475,1.3963 0.59543,-0.43343 0.98392,-1.13542 0.98392,-1.92547 0,-1.312 -1.07081,-2.38073 -2.382802,-2.38073 z" />
      <path
         id="path22697"
         style="color:#000000;fill:#5d7285;fill-opacity:1;stroke-width:0.794886;stroke-linecap:round;stroke-linejoin:round;stroke-miterlimit:1.5;-inkscape-stroke:none"
         d="m 99.974778,314.93533 c -1.228804,0 -2.329204,0.56131 -3.057694,1.44074 0.687017,-0.5691 1.56858,-0.91157 2.528528,-0.91157 2.188748,0 3.968748,1.78 3.968748,3.96875 0,0.95995 -0.34247,1.84151 -0.91157,2.52853 0.87942,-0.72849 1.44074,-1.8289 1.44074,-3.0577 0,-2.18875 -1.78,-3.96875 -3.968752,-3.96875 z" />
      <path
         id="path76014"
         style="color:#000000;fill:#d0e2ee;stroke-width:3.0043;stroke-linecap:round;stroke-linejoin:round;stroke-miterlimit:1.5;-inkscape-stroke:none"
         d="m 384.92773,138.71289 a 1.0000006,1.0000006 0 0 0 -0.70703,0.29492 l -4.33008,4.33399 c -1.24624,-0.73244 -2.8134,-0.72961 -4.06054,0.002 l -4.33594,-4.33594 a 1.0000006,1.0000006 0 0 0 -1.41016,0 1.0000006,1.0000006 0 0 0 0,1.41602 l 4.33008,4.33203 c -0.73324,1.24636 -0.73464,2.81392 -0.004,4.06055 l -4.32618,4.33398 a 1.0000006,1.0000006 0 0 0 0,1.41016 1.0000006,1.0000006 0 0 0 1.41016,0 l 4.33398,-4.32813 c 1.24693,0.72943 2.81453,0.72958 4.06055,-0.002 l 4.33203,4.33008 a 1.0000006,1.0000006 0 0 0 1.41602,0 1.0000006,1.0000006 0 0 0 0,-1.41016 l -4.33594,-4.33594 c 0.73056,-1.24683 0.7311,-2.81397 0,-4.06054 l 4.33594,-4.33008 a 1.0000006,1.0000006 0 0 0 0,-1.41602 1.0000006,1.0000006 0 0 0 -0.70899,-0.29492 z"
         transform="matrix(0.26458334,0,0,0.26458334,0,280.06666)" />
      <path
         id="path78359"
         style="color:#000000;fill:#aabfd0;stroke-width:3.0043;stroke-linecap:round;stroke-linejoin:round;stroke-miterlimit:1.5;-inkscape-stroke:none"
         d="m 377.85742,133.78906 c -0.33579,0 -0.66874,0.0122 -0.99804,0.0371 v 0.95899 a 1.0000006,1.0000006 0 0 0 0.99804,1.0039 1.0000006,1.0000006 0 0 0 1.00391,-1.0039 v -0.95899 c -0.3312,-0.0252 -0.66615,-0.0371 -1.00391,-0.0371 z m -12.96289,11.99414 c -0.0252,0.3312 -0.0371,0.66614 -0.0371,1.00391 0,0.33579 0.0122,0.66874 0.0371,0.99805 h 0.9668 a 1.0000006,1.0000006 0 0 0 0.99609,-0.99805 1.0000006,1.0000006 0 0 0 -0.99609,-1.00391 z m 24.96485,0 a 1.0000006,1.0000006 0 0 0 -1.00391,1.00391 1.0000006,1.0000006 0 0 0 1.00391,0.99805 h 0.95898 c 0.0249,-0.32931 0.0371,-0.66226 0.0371,-0.99805 0,-0.33777 -0.012,-0.67271 -0.0371,-1.00391 z m -12.00196,12.00391 a 1.0000006,1.0000006 0 0 0 -0.99804,0.99609 v 0.9668 c 0.3293,0.0249 0.66225,0.0371 0.99804,0.0371 0.33776,0 0.67271,-0.0119 1.00391,-0.0371 v -0.9668 a 1.0000006,1.0000006 0 0 0 -1.00391,-0.99609 z"
         transform="matrix(0.26458334,0,0,0.26458334,0,280.06666)" />
      <path
         style="color:#000000;fill:#7d8e9e;stroke-width:0.794886;stroke-linecap:round;stroke-linejoin:round;stroke-miterlimit:1.5;-inkscape-stroke:none"
         d="m 104.73828,315.99414 a 0.2645835,0.2645835 0 0 0 -0.26562,0.26367 0.2645835,0.2645835 0 0 0 0.26562,0.26563 h 0.79297 a 0.2645835,0.2645835 0 0 0 0.26563,-0.26563 0.2645835,0.2645835 0 0 0 -0.26563,-0.26367 z"
         id="path79695" />
      <path
         style="color:#000000;fill:#7d8e9e;stroke-width:0.794886;stroke-linecap:round;stroke-linejoin:round;stroke-miterlimit:1.5;-inkscape-stroke:none"
         d="m 104.73828,321.28516 a 0.2645835,0.2645835 0 0 0 -0.26562,0.26367 0.2645835,0.2645835 0 0 0 0.26562,0.26562 h 0.79297 a 0.2645835,0.2645835 0 0 0 0.26563,-0.26562 0.2645835,0.2645835 0 0 0 -0.26563,-0.26367 z"
         id="path79777" />
      <path
         style="color:#000000;fill:#3a4d5c;fill-opacity:1;stroke-width:0.794886;stroke-linecap:round;stroke-linejoin:round;stroke-miterlimit:1.5;-inkscape-stroke:none"
         d="m 105.13477,315.46484 a 0.2645835,0.2645835 0 0 0 -0.26563,0.26368 v 6.3496 a 0.2645835,0.2645835 0 0 0 0.26563,0.26563 0.2645835,0.2645835 0 0 0 0.26367,-0.26563 v -6.3496 a 0.2645835,0.2645835 0 0 0 -0.26367,-0.26368 z"
         id="path79812" />
      <path
         id="path8897"
         style="color:#000000;fill:#8195ac;fill-opacity:1;stroke-width:0.794886;stroke-linecap:round;stroke-linejoin:round;stroke-miterlimit:1.5;-inkscape-stroke:none"
         d="m 93.624778,312.5546 c -0.645927,0 -1.214787,0.33223 -1.546159,0.83457 0.292082,-0.19268 0.641419,-0.3054 1.016992,-0.3054 h 12.701549 c 1.02148,0 1.85157,0.83008 1.85157,1.85156 v 8.99635 c 0,0.37556 -0.11274,0.72493 -0.30541,1.017 0.50234,-0.33138 0.83458,-0.90023 0.83458,-1.54616 v -8.99635 c 0,-1.02148 -0.83009,-1.85157 -1.85157,-1.85157 z" />
      <path
         id="path16454"
         style="color:#000000;fill:#7d8e9e;fill-opacity:1;stroke-width:0.794886;stroke-linecap:round;stroke-linejoin:round;stroke-miterlimit:1.5;-inkscape-stroke:none"
         d="m 94.420076,313.61138 c -0.35529,0 -0.66011,0.23952 -0.76016,0.56431 0.0732,-0.0226 0.15086,-0.0351 0.231,-0.0351 h 11.640624 c 0.43524,0 0.79272,0.35954 0.79272,0.79478 v 8.99635 c 0,0.0797 -0.0118,0.15663 -0.0341,0.22945 0.32462,-0.0994 0.56327,-0.4031 0.56327,-0.75861 v -8.99635 c 0,-0.43524 -0.35747,-0.79479 -0.79271,-0.79479 z" />
      <path
         id="path21719"
         style="color:#000000;fill:#5e6f7e;fill-opacity:1;stroke-width:0.794886;stroke-linecap:round;stroke-linejoin:round;stroke-miterlimit:1.5;-inkscape-stroke:none"
         d="m 93.624778,314.93533 c -0.355468,0 -0.659239,0.23915 -0.758611,0.56379 0.07279,-0.0223 0.149739,-0.0346 0.229444,-0.0346 h 0.529686 c 0.43516,0 0.792715,0.35806 0.792715,0.79323 v 1.05834 c 0,0.0795 -0.01191,0.15679 -0.03411,0.22944 0.324622,-0.0994 0.563274,-0.40316 0.563274,-0.75861 v -1.05833 c 0,-0.43517 -0.357556,-0.79324 -0.792716,-0.79324 z" />
      <path
         id="path21868"
         style="color:#000000;fill:#5e6f7e;fill-opacity:1;stroke-width:0.794886;stroke-linecap:round;stroke-linejoin:round;stroke-miterlimit:1.5;-inkscape-stroke:none"
         d="m 93.624778,320.47995 c -0.355468,0 -0.659239,0.23915 -0.758611,0.56379 0.07279,-0.0223 0.149739,-0.0346 0.229444,-0.0346 h 0.529686 c 0.43516,0 0.792715,0.35806 0.792715,0.79323 v 1.05834 c 0,0.0795 -0.01191,0.15679 -0.03411,0.22944 0.324622,-0.0994 0.563274,-0.40316 0.563274,-0.75861 v -1.05833 c 0,-0.43517 -0.357556,-0.79324 -0.792716,-0.79324 z" />
      <path
         style="color:#000000;fill:#3a4d5c;stroke-width:0.794886;stroke-linecap:round;stroke-linejoin:round;stroke-miterlimit:1.5;-inkscape-stroke:none"
         d="m 94.947266,315.99414 h -2.115235 v 0.5293 h 2.115235 z"
         id="path1689"
         sodipodi:nodetypes="ccccc" />
      <path
         style="color:#000000;fill:#3a4d5c;stroke-width:0.794886;stroke-linecap:round;stroke-linejoin:round;stroke-miterlimit:1.5;-inkscape-stroke:none"
         d="m 94.947266,321.54883 h -2.115235 v 0.52929 h 2.115235 z"
         id="path1703"
         sodipodi:nodetypes="ccccc" />
      <path
         id="path27996"
         style="fill:#a9c4d9;fill-opacity:1;stroke:none;stroke-width:1.58977;stroke-linecap:round;stroke-linejoin:round;stroke-miterlimit:1.5;stop-color:#000000"
         d="m 384.92773,138.71289 c -0.26548,5.6e-4 -0.51984,0.10666 -0.70703,0.29492 l -4.33008,4.33399 c -1.24624,-0.73244 -2.8134,-0.72966 -4.06054,0.002 0,0 5.67124,1.83939 4.05859,6.88672 l 4.33203,4.33008 c 0.39073,0.39173 1.02529,0.39173 1.41602,0 0.38783,-0.39006 0.38783,-1.0201 0,-1.41016 l -4.33594,-4.33594 c 0.73056,-1.24683 0.7311,-2.81397 0,-4.06054 l 4.33594,-4.33008 c 0.39173,-0.39073 0.39173,-1.02529 0,-1.41602 -0.18766,-0.18874 -0.44283,-0.29488 -0.70899,-0.29492 z"
         transform="matrix(0.26458334,0,0,0.26458334,0,280.06666)"
         sodipodi:nodetypes="scccccccccccss" />
    </g>
  </g>
</svg>
